<svg width="379" height="65" viewBox="0 0 379 65" fill="none" xmlns="http://www.w3.org/2000/svg">
<path d="M149.413 20.1595C144.544 20.2814 135.774 20.5497 129.91 20.7691C104.271 21.6715 103.128 21.6959 74.8049 21.3788C53.5129 21.135 45.4881 21.1106 38.4322 21.3544C21.4633 21.8909 12.6186 22.8664 6.87945 24.8418C-2.66091 28.1096 -2.23855 33.6942 7.89808 38.6935C11.3267 40.3762 17.0658 42.2784 21.6372 43.2051C23.426 43.5709 25.0161 43.9123 25.19 43.9611C25.3888 44.0099 25.4881 44.5952 25.4881 45.717V47.3997H20.0968C15.3266 47.3997 14.4322 47.4728 12.6931 47.9362C8.71796 48.9848 7.87324 50.4724 8.9664 54.545C9.43845 56.3253 9.53783 58.008 9.2397 58.9834L9.04094 59.6663H13.7117C23.9478 59.6663 36.8173 60.8856 46.2335 62.739L49.4384 63.3731L92.9415 63.1048C116.842 62.9585 154.656 62.7146 176.917 62.5683C208.122 62.3488 224.246 62.3488 247.227 62.5683C263.625 62.739 278.78 62.9097 280.892 62.9829C283.003 63.0317 284.643 63.0317 284.494 62.9829C284.047 62.7634 252.867 61.8367 230.581 61.3734C213.587 61.0076 172.494 60.8369 158.035 61.0563C151.078 61.1783 145.339 61.2514 145.289 61.227C145.24 61.2027 145.339 60.9588 145.513 60.6905C145.761 60.3003 145.761 60.1052 145.538 59.837C145.19 59.4468 145.563 59.398 154.681 58.8127C171.128 57.7153 189.24 57.7885 222.134 59.0566C248.395 60.0565 256.718 60.2272 270.954 60.0565C278.258 59.9833 285.612 59.837 287.302 59.7638L290.333 59.5931V61.3246C290.333 62.9341 290.382 63.0805 290.904 63.178C291.202 63.2268 296.544 63.3975 302.755 63.5682C313.538 63.8121 323.475 64.1779 338.531 64.8119C344.643 65.0802 345.711 65.0802 348.742 64.69C350.606 64.4705 353.388 63.9584 354.954 63.5926C358.034 62.8122 362.134 61.4221 362.134 61.1539C362.134 60.6661 336.072 58.3006 320.27 57.3739C298.854 56.0814 281.289 55.4961 239.401 54.6426C228.817 54.4475 217.016 54.1792 213.19 54.0817L206.233 53.911L213.19 53.7159C221.587 53.472 253.115 53.6915 259.525 54.0329C262.059 54.1792 265.736 54.3987 267.724 54.545C276.37 55.1303 289.339 55.5937 309.339 56.0082C330.979 56.4716 342.084 56.8618 352.941 57.5934C358.01 57.9348 364.693 58.5445 366.606 58.8127C367.326 58.9347 367.972 58.6908 370.556 57.3008C375.351 54.7401 378.333 51.6918 378.929 48.7409C379.5 45.9608 376.593 42.8881 371.525 40.9127C369.637 40.1567 369.612 40.1567 364.643 40.1567H359.674L359.401 39.1569C359.103 38.1326 359.351 36.2792 359.923 35.2306C360.072 34.9623 360.146 34.7185 360.097 34.6697C360.022 34.5965 346.457 34.0112 320.767 32.9626L306.854 32.4017L319.401 32.5236C326.308 32.5968 338.382 32.7187 346.233 32.8163C362.084 33.0114 361.14 33.1089 361.14 31.4018C361.14 29.5241 359.699 28.3535 356.146 27.2805C352.916 26.305 350.159 26.1587 338.034 26.4025C320.569 26.7439 314.68 26.6708 308.221 26.0611C295.972 24.9149 282.059 24.1833 257.538 23.4517C236.693 22.8176 230.084 22.5982 221.637 22.2324C213.513 21.8666 210.78 21.6959 200.395 21.013C186.805 20.1107 166.184 19.7693 149.413 20.1595ZM230.035 29.1095C229.712 29.1582 229.165 29.1582 228.792 29.1095C228.395 29.0607 228.668 29.0119 229.339 29.0119C230.035 29.0119 230.333 29.0607 230.035 29.1095ZM238.904 29.5484C244.171 29.8655 251.873 30.2557 272.569 31.2555C279.277 31.5726 279.351 31.5969 274.432 31.475C263.128 31.2311 234.258 29.7679 231.575 29.329C230.333 29.1339 233.562 29.207 238.904 29.5484ZM283.575 31.792C283.326 31.8408 282.879 31.8408 282.581 31.792C282.258 31.7433 282.457 31.6945 283.003 31.6945C283.55 31.6701 283.798 31.7189 283.575 31.792ZM285.289 31.7676C285.215 31.8408 284.991 31.8652 284.817 31.792C284.618 31.7189 284.693 31.6457 284.966 31.6457C285.239 31.6213 285.389 31.6945 285.289 31.7676Z" fill="#FF2C2C" fill-opacity="0.85"/>
<path d="M285.438 63.0073C285.662 63.0561 286.01 63.0561 286.184 63.0073C286.333 62.9341 286.159 62.8854 285.736 62.8854C285.339 62.8854 285.19 62.9341 285.438 63.0073Z" fill="#FF2C2C" fill-opacity="0.85"/>
<path d="M120.048 30.572V38.96H129.192V41.66H120.048V50.3H130.272V53H116.772V27.872H130.272V30.572H120.048ZM139.225 35.972V47.6C139.225 48.56 139.429 49.244 139.837 49.652C140.245 50.036 140.953 50.228 141.961 50.228H144.373V53H141.421C139.597 53 138.229 52.58 137.317 51.74C136.405 50.9 135.949 49.52 135.949 47.6V35.972H133.393V33.272H135.949V28.304H139.225V33.272H144.373V35.972H139.225ZM147.118 43.064C147.118 41.048 147.526 39.284 148.342 37.772C149.158 36.236 150.274 35.048 151.69 34.208C153.13 33.368 154.726 32.948 156.478 32.948C158.206 32.948 159.706 33.32 160.978 34.064C162.25 34.808 163.198 35.744 163.822 36.872V33.272H167.134V53H163.822V49.328C163.174 50.48 162.202 51.44 160.906 52.208C159.634 52.952 158.146 53.324 156.442 53.324C154.69 53.324 153.106 52.892 151.69 52.028C150.274 51.164 149.158 49.952 148.342 48.392C147.526 46.832 147.118 45.056 147.118 43.064ZM163.822 43.1C163.822 41.612 163.522 40.316 162.922 39.212C162.322 38.108 161.506 37.268 160.474 36.692C159.466 36.092 158.35 35.792 157.126 35.792C155.902 35.792 154.786 36.08 153.778 36.656C152.77 37.232 151.966 38.072 151.366 39.176C150.766 40.28 150.466 41.576 150.466 43.064C150.466 44.576 150.766 45.896 151.366 47.024C151.966 48.128 152.77 48.98 153.778 49.58C154.786 50.156 155.902 50.444 157.126 50.444C158.35 50.444 159.466 50.156 160.474 49.58C161.506 48.98 162.322 48.128 162.922 47.024C163.522 45.896 163.822 44.588 163.822 43.1ZM175.946 36.908C176.594 35.78 177.554 34.844 178.826 34.1C180.122 33.332 181.622 32.948 183.326 32.948C185.078 32.948 186.662 33.368 188.078 34.208C189.518 35.048 190.646 36.236 191.462 37.772C192.278 39.284 192.686 41.048 192.686 43.064C192.686 45.056 192.278 46.832 191.462 48.392C190.646 49.952 189.518 51.164 188.078 52.028C186.662 52.892 185.078 53.324 183.326 53.324C181.646 53.324 180.158 52.952 178.862 52.208C177.59 51.44 176.618 50.492 175.946 49.364V62.36H172.67V33.272H175.946V36.908ZM189.338 43.064C189.338 41.576 189.038 40.28 188.438 39.176C187.838 38.072 187.022 37.232 185.99 36.656C184.982 36.08 183.866 35.792 182.642 35.792C181.442 35.792 180.326 36.092 179.294 36.692C178.286 37.268 177.47 38.12 176.846 39.248C176.246 40.352 175.946 41.636 175.946 43.1C175.946 44.588 176.246 45.896 176.846 47.024C177.47 48.128 178.286 48.98 179.294 49.58C180.326 50.156 181.442 50.444 182.642 50.444C183.866 50.444 184.982 50.156 185.99 49.58C187.022 48.98 187.838 48.128 188.438 47.024C189.038 45.896 189.338 44.576 189.338 43.064ZM195.775 43.064C195.775 41.048 196.183 39.284 196.999 37.772C197.815 36.236 198.931 35.048 200.347 34.208C201.787 33.368 203.383 32.948 205.135 32.948C206.863 32.948 208.363 33.32 209.635 34.064C210.907 34.808 211.855 35.744 212.479 36.872V33.272H215.791V53H212.479V49.328C211.831 50.48 210.859 51.44 209.563 52.208C208.291 52.952 206.803 53.324 205.099 53.324C203.347 53.324 201.763 52.892 200.347 52.028C198.931 51.164 197.815 49.952 196.999 48.392C196.183 46.832 195.775 45.056 195.775 43.064ZM212.479 43.1C212.479 41.612 212.179 40.316 211.579 39.212C210.979 38.108 210.163 37.268 209.131 36.692C208.123 36.092 207.007 35.792 205.783 35.792C204.559 35.792 203.443 36.08 202.435 36.656C201.427 37.232 200.623 38.072 200.023 39.176C199.423 40.28 199.123 41.576 199.123 43.064C199.123 44.576 199.423 45.896 200.023 47.024C200.623 48.128 201.427 48.98 202.435 49.58C203.443 50.156 204.559 50.444 205.783 50.444C207.007 50.444 208.123 50.156 209.131 49.58C210.163 48.98 210.979 48.128 211.579 47.024C212.179 45.896 212.479 44.588 212.479 43.1ZM228.311 53.324C226.799 53.324 225.443 53.072 224.243 52.568C223.043 52.04 222.095 51.32 221.399 50.408C220.703 49.472 220.319 48.404 220.247 47.204H223.631C223.727 48.188 224.183 48.992 224.999 49.616C225.839 50.24 226.931 50.552 228.275 50.552C229.523 50.552 230.507 50.276 231.227 49.724C231.947 49.172 232.307 48.476 232.307 47.636C232.307 46.772 231.923 46.136 231.155 45.728C230.387 45.296 229.199 44.876 227.591 44.468C226.127 44.084 224.927 43.7 223.991 43.316C223.079 42.908 222.287 42.32 221.615 41.552C220.967 40.76 220.643 39.728 220.643 38.456C220.643 37.448 220.943 36.524 221.543 35.684C222.143 34.844 222.995 34.184 224.099 33.704C225.203 33.2 226.463 32.948 227.879 32.948C230.063 32.948 231.827 33.5 233.171 34.604C234.515 35.708 235.235 37.22 235.331 39.14H232.055C231.983 38.108 231.563 37.28 230.795 36.656C230.051 36.032 229.043 35.72 227.771 35.72C226.595 35.72 225.659 35.972 224.963 36.476C224.267 36.98 223.919 37.64 223.919 38.456C223.919 39.104 224.123 39.644 224.531 40.076C224.963 40.484 225.491 40.82 226.115 41.084C226.763 41.324 227.651 41.6 228.779 41.912C230.195 42.296 231.347 42.68 232.235 43.064C233.123 43.424 233.879 43.976 234.503 44.72C235.151 45.464 235.487 46.436 235.511 47.636C235.511 48.716 235.211 49.688 234.611 50.552C234.011 51.416 233.159 52.1 232.055 52.604C230.975 53.084 229.727 53.324 228.311 53.324Z" fill="black"/>
<path d="M80.0957 0H64.7979C63.7462 0 62.8936 0.852617 62.8936 1.9043V15.2979H49.5C48.4483 15.2979 47.5957 16.1505 47.5957 17.2021V30.5957H34.2021C33.1505 30.5957 32.2979 31.4483 32.2979 32.5V45.8936H18.9043C17.8526 45.8936 17 46.7462 17 47.7979V63.0957C17 64.1474 17.8526 65 18.9043 65H80.0957C81.1474 65 82 64.1474 82 63.0957V1.9043C82 0.852617 81.1474 0 80.0957 0ZM78.1914 61.1914H20.8086V49.7021H34.2021C35.2538 49.7021 36.1064 48.8495 36.1064 47.7979V34.4043H49.5C50.5517 34.4043 51.4043 33.5517 51.4043 32.5V19.1064H64.7979C65.8495 19.1064 66.7021 18.2538 66.7021 17.2021V3.80859H78.1914V61.1914Z" fill="black"/>
</svg>
