<svg width="379" height="45" viewBox="0 0 379 45" fill="none" xmlns="http://www.w3.org/2000/svg">
<path d="M149.413 0.159475C144.544 0.281409 135.774 0.549665 129.91 0.769148C104.271 1.67146 103.128 1.69585 74.8049 1.37882C53.5129 1.13495 45.4881 1.11056 38.4322 1.35443C21.4633 1.89095 12.6186 2.86642 6.87945 4.84176C-2.66091 8.10961 -2.23855 13.6942 7.89808 18.6935C11.3267 20.3762 17.0658 22.2784 21.6372 23.2051C23.426 23.5709 25.0161 23.9123 25.19 23.9611C25.3888 24.0099 25.4881 24.5952 25.4881 25.717V27.3997H20.0968C15.3266 27.3997 14.4322 27.4728 12.6931 27.9362C8.71796 28.9848 7.87324 30.4724 8.9664 34.545C9.43845 36.3253 9.53783 38.008 9.2397 38.9834L9.04094 39.6663H13.7117C23.9478 39.6663 36.8173 40.8856 46.2335 42.739L49.4384 43.3731L92.9415 43.1048C116.842 42.9585 154.656 42.7146 176.917 42.5683C208.122 42.3488 224.246 42.3488 247.227 42.5683C263.625 42.739 278.78 42.9097 280.892 42.9829C283.003 43.0317 284.643 43.0317 284.494 42.9829C284.047 42.7634 252.867 41.8367 230.581 41.3734C213.587 41.0076 172.494 40.8369 158.035 41.0563C151.078 41.1783 145.339 41.2514 145.289 41.227C145.24 41.2027 145.339 40.9588 145.513 40.6905C145.761 40.3003 145.761 40.1052 145.538 39.837C145.19 39.4468 145.563 39.398 154.681 38.8127C171.128 37.7153 189.24 37.7885 222.134 39.0566C248.395 40.0565 256.718 40.2272 270.954 40.0565C278.258 39.9833 285.612 39.837 287.302 39.7638L290.333 39.5931V41.3246C290.333 42.9341 290.382 43.0805 290.904 43.178C291.202 43.2268 296.544 43.3975 302.755 43.5682C313.538 43.8121 323.475 44.1779 338.531 44.8119C344.643 45.0802 345.711 45.0802 348.742 44.69C350.606 44.4705 353.388 43.9584 354.954 43.5926C358.034 42.8122 362.134 41.4221 362.134 41.1539C362.134 40.6661 336.072 38.3006 320.27 37.3739C298.854 36.0814 281.289 35.4961 239.401 34.6426C228.817 34.4475 217.016 34.1792 213.19 34.0817L206.233 33.911L213.19 33.7159C221.587 33.472 253.115 33.6915 259.525 34.0329C262.059 34.1792 265.736 34.3987 267.724 34.545C276.37 35.1303 289.339 35.5937 309.339 36.0082C330.979 36.4716 342.084 36.8618 352.941 37.5934C358.01 37.9348 364.693 38.5445 366.606 38.8127C367.326 38.9347 367.972 38.6908 370.556 37.3008C375.351 34.7401 378.333 31.6918 378.929 28.7409C379.5 25.9608 376.593 22.8881 371.525 20.9127C369.637 20.1567 369.612 20.1567 364.643 20.1567H359.674L359.401 19.1569C359.103 18.1326 359.351 16.2792 359.923 15.2306C360.072 14.9623 360.146 14.7185 360.097 14.6697C360.022 14.5965 346.457 14.0112 320.767 12.9626L306.854 12.4017L319.401 12.5236C326.308 12.5968 338.382 12.7187 346.233 12.8163C362.084 13.0114 361.14 13.1089 361.14 11.4018C361.14 9.52405 359.699 8.35348 356.146 7.28045C352.916 6.30498 350.159 6.15866 338.034 6.40253C320.569 6.74394 314.68 6.67078 308.221 6.06111C295.972 4.91492 282.059 4.18332 257.538 3.45171C236.693 2.81765 230.084 2.59817 221.637 2.23236C213.513 1.86656 210.78 1.69585 200.395 1.01302C186.805 0.110701 166.184 -0.230716 149.413 0.159475ZM230.035 9.10947C229.712 9.15825 229.165 9.15825 228.792 9.10947C228.395 9.0607 228.668 9.01193 229.339 9.01193C230.035 9.01193 230.333 9.0607 230.035 9.10947ZM238.904 9.54844C244.171 9.86547 251.873 10.2557 272.569 11.2555C279.277 11.5726 279.351 11.5969 274.432 11.475C263.128 11.2311 234.258 9.76792 231.575 9.32896C230.333 9.13386 233.562 9.20702 238.904 9.54844ZM283.575 11.792C283.326 11.8408 282.879 11.8408 282.581 11.792C282.258 11.7433 282.457 11.6945 283.003 11.6945C283.55 11.6701 283.798 11.7189 283.575 11.792ZM285.289 11.7676C285.215 11.8408 284.991 11.8652 284.817 11.792C284.618 11.7189 284.693 11.6457 284.966 11.6457C285.239 11.6213 285.389 11.6945 285.289 11.7676Z" fill="#7978F8"/>
<path d="M285.438 43.0073C285.662 43.0561 286.01 43.0561 286.184 43.0073C286.333 42.9341 286.159 42.8854 285.736 42.8854C285.339 42.8854 285.19 42.9341 285.438 43.0073Z" fill="#7978F8"/>
</svg>
