<svg width="578" height="456" viewBox="0 0 578 456" fill="none" xmlns="http://www.w3.org/2000/svg">
<g clip-path="url(#clip0)">
<path d="M578 0H24.6318V365.463H578V0Z" fill="url(#paint0_linear)"/>
<path d="M571.775 43.1785H29.4738V354.41H571.775V43.1785Z" fill="white"/>
<path d="M571.775 7.59943H29.4738V43.1785H571.775V7.59943Z" fill="#B963FF"/>
<path d="M565.549 65.6314H37.0826V337.138H565.549V65.6314Z" fill="url(#paint1_linear)"/>
<path opacity="0.5" d="M107.291 70.4674H43.6538V121.245H107.291V70.4674Z" fill="#B963FF"/>
<path d="M171.62 70.4674H107.983V121.245H171.62V70.4674Z" fill="white"/>
<path opacity="0.2" d="M235.949 70.4674H172.312V121.245H235.949V70.4674Z" fill="#B963FF"/>
<path d="M300.278 70.4674H236.641V121.245H300.278V70.4674Z" fill="white"/>
<path d="M364.607 70.4674H300.97V121.245H364.607V70.4674Z" fill="white"/>
<path opacity="0.5" d="M428.936 70.4674H365.299V121.245H428.936V70.4674Z" fill="#B963FF"/>
<path d="M493.266 70.4674H429.628V121.245H493.266V70.4674Z" fill="white"/>
<path opacity="0.2" d="M557.595 70.4674H493.957V121.245H557.595V70.4674Z" fill="#B963FF"/>
<path opacity="0.2" d="M107.291 122.282H43.6538V173.06H107.291V122.282Z" fill="#B963FF"/>
<path opacity="0.2" d="M171.62 122.282H107.983V173.06H171.62V122.282Z" fill="#B963FF"/>
<path d="M235.949 122.282H172.312V173.06H235.949V122.282Z" fill="white"/>
<path opacity="0.5" d="M300.278 122.282H236.641V173.06H300.278V122.282Z" fill="#B963FF"/>
<path d="M364.607 122.282H300.97V173.06H364.607V122.282Z" fill="white"/>
<path opacity="0.2" d="M428.936 122.282H365.299V173.06H428.936V122.282Z" fill="#B963FF"/>
<path opacity="0.5" d="M493.266 122.282H429.628V173.06H493.266V122.282Z" fill="#B963FF"/>
<path d="M557.595 122.282H493.957V173.06H557.595V122.282Z" fill="white"/>
<path d="M107.291 173.405H43.6538V224.183H107.291V173.405Z" fill="white"/>
<path d="M171.62 173.405H107.983V224.183H171.62V173.405Z" fill="white"/>
<path opacity="0.2" d="M235.949 173.405H172.312V224.183H235.949V173.405Z" fill="#B963FF"/>
<path d="M300.278 173.405H236.641V224.183H300.278V173.405Z" fill="white"/>
<path opacity="0.2" d="M364.607 173.405H300.97V224.183H364.607V173.405Z" fill="#B963FF"/>
<path d="M428.936 173.405H365.299V224.183H428.936V173.405Z" fill="white"/>
<path d="M493.266 173.405H429.628V224.183H493.266V173.405Z" fill="white"/>
<path opacity="0.2" d="M557.595 173.405H493.957V224.183H557.595V173.405Z" fill="#B963FF"/>
<path d="M107.291 224.528H43.6538V275.306H107.291V224.528Z" fill="white"/>
<path opacity="0.5" d="M171.62 224.528H107.983V275.306H171.62V224.528Z" fill="#B963FF"/>
<path opacity="0.5" d="M235.949 224.528H172.312V275.306H235.949V224.528Z" fill="#B963FF"/>
<path d="M300.278 224.528H236.641V275.306H300.278V224.528Z" fill="white"/>
<path d="M364.607 224.528H300.97V275.306H364.607V224.528Z" fill="white"/>
<path opacity="0.5" d="M428.936 224.528H365.299V275.306H428.936V224.528Z" fill="#B963FF"/>
<path d="M493.266 224.528H429.628V275.306H493.266V224.528Z" fill="white"/>
<path opacity="0.5" d="M557.595 224.528H493.957V275.306H557.595V224.528Z" fill="#B963FF"/>
<path opacity="0.5" d="M107.291 276.343H43.6538V327.121H107.291V276.343Z" fill="#B963FF"/>
<path opacity="0.2" d="M171.62 276.343H107.983V327.121H171.62V276.343Z" fill="#B963FF"/>
<path d="M235.949 276.343H172.312V327.121H235.949V276.343Z" fill="white"/>
<path opacity="0.5" d="M300.278 276.343H236.641V327.121H300.278V276.343Z" fill="#B963FF"/>
<path opacity="0.2" d="M364.607 276.343H300.97V327.121H364.607V276.343Z" fill="#B963FF"/>
<path d="M428.936 276.343H365.299V327.121H428.936V276.343Z" fill="white"/>
<path opacity="0.2" d="M493.266 276.343H429.628V327.121H493.266V276.343Z" fill="#B963FF"/>
<path d="M557.595 276.343H493.957V327.121H557.595V276.343Z" fill="white"/>
<path d="M68.2096 178.241H48.8417V197.585H68.2096V178.241Z" fill="#69F0AE"/>
<path d="M260.505 75.9942H241.137V95.3382H260.505V75.9942Z" fill="#69F0AE"/>
<path d="M258.43 178.241H239.062V197.585H258.43V178.241Z" fill="#69F0AE"/>
<path d="M324.142 227.292H304.774V246.636H324.142V227.292Z" fill="#69F0AE"/>
<path d="M452.109 178.241H432.741V197.585H452.109V178.241Z" fill="#69F0AE"/>
<path d="M118.663 456C184.199 456 237.326 402.938 237.326 337.484C237.326 272.029 184.199 218.967 118.663 218.967C53.1272 218.967 0 272.029 0 337.484C0 402.938 53.1272 456 118.663 456Z" fill="url(#paint2_linear)"/>
<path d="M118.663 452.801C182.43 452.801 234.123 401.172 234.123 337.484C234.123 273.795 182.43 222.166 118.663 222.166C54.896 222.166 3.20264 273.795 3.20264 337.484C3.20264 401.172 54.896 452.801 118.663 452.801Z" fill="#B963FF"/>
<path d="M118.663 431.178C170.473 431.178 212.473 389.229 212.473 337.484C212.473 285.738 170.473 243.79 118.663 243.79C66.8532 243.79 24.8531 285.738 24.8531 337.484C24.8531 389.229 66.8532 431.178 118.663 431.178Z" fill="white"/>
<path d="M118.663 343.086C121.761 343.086 124.273 340.578 124.273 337.484C124.273 334.389 121.761 331.881 118.663 331.881C115.565 331.881 113.053 334.389 113.053 337.484C113.053 340.578 115.565 343.086 118.663 343.086Z" fill="url(#paint3_linear)"/>
<path d="M120.78 338.174L117.321 337.014L148.448 264.253L151.907 265.876L120.78 338.174Z" fill="url(#paint4_linear)"/>
<path d="M148.818 264.921L118.35 336.993L120.568 337.929L151.035 265.857L148.818 264.921Z" fill="#2196F3"/>
<path d="M138.072 376.172L118.013 338.865L120.78 337.484L141.531 374.099L138.072 376.172Z" fill="url(#paint5_linear)"/>
<path d="M120.512 337.733L118.396 338.881L138.44 375.721L140.555 374.574L120.512 337.733Z" fill="#2196F3"/>
<path d="M206.06 342.292C207.39 342.292 208.468 341.216 208.468 339.888C208.468 338.56 207.39 337.484 206.06 337.484C204.731 337.484 203.653 338.56 203.653 339.888C203.653 341.216 204.731 342.292 206.06 342.292Z" fill="#B963FF"/>
<path d="M46.0891 295.878C46.9524 294.384 46.4401 292.475 44.9447 291.612C43.4493 290.75 41.5371 291.262 40.6737 292.755C39.8104 294.249 40.3227 296.159 41.8181 297.021C43.3135 297.883 45.2257 297.371 46.0891 295.878Z" fill="url(#paint6_linear)"/>
<path d="M45.7448 385.907C47.2402 385.045 47.7526 383.135 46.8892 381.641C46.0258 380.148 44.1137 379.636 42.6183 380.499C41.1229 381.361 40.6105 383.271 41.4739 384.764C42.3373 386.258 44.2494 386.769 45.7448 385.907Z" fill="url(#paint7_linear)"/>
<path d="M31.2723 343.01C32.999 343.01 34.3988 341.612 34.3988 339.888C34.3988 338.163 32.999 336.765 31.2723 336.765C29.5455 336.765 28.1458 338.163 28.1458 339.888C28.1458 341.612 29.5455 343.01 31.2723 343.01Z" fill="url(#paint8_linear)"/>
<path d="M76.8511 264.99C78.3464 264.127 78.8588 262.218 77.9954 260.724C77.1321 259.23 75.2199 258.719 73.7245 259.581C72.2291 260.443 71.7168 262.353 72.5801 263.847C73.4435 265.34 75.3557 265.852 76.8511 264.99Z" fill="url(#paint9_linear)"/>
<path d="M120.148 253.783C121.644 252.92 122.156 251.011 121.293 249.517C120.429 248.023 118.517 247.512 117.022 248.374C115.526 249.236 115.014 251.146 115.877 252.64C116.741 254.133 118.653 254.645 120.148 253.783Z" fill="url(#paint10_linear)"/>
<path d="M163.445 264.993C164.94 264.131 165.453 262.221 164.589 260.727C163.726 259.234 161.814 258.722 160.318 259.584C158.823 260.447 158.31 262.357 159.174 263.85C160.037 265.344 161.949 265.855 163.445 264.993Z" fill="url(#paint11_linear)"/>
<path d="M195.515 297.027C197.011 296.164 197.523 294.254 196.659 292.761C195.796 291.267 193.884 290.756 192.389 291.618C190.893 292.48 190.381 294.39 191.244 295.884C192.108 297.377 194.02 297.889 195.515 297.027Z" fill="url(#paint12_linear)"/>
<path d="M194.716 385.914C196.212 385.052 196.724 383.142 195.861 381.648C194.998 380.155 193.085 379.643 191.59 380.505C190.095 381.368 189.582 383.278 190.446 384.771C191.309 386.265 193.221 386.776 194.716 385.914Z" fill="url(#paint13_linear)"/>
<path d="M161.841 417.143C163.336 416.281 163.848 414.371 162.985 412.877C162.122 411.384 160.209 410.872 158.714 411.734C157.219 412.597 156.706 414.506 157.57 416C158.433 417.493 160.345 418.005 161.841 417.143Z" fill="url(#paint14_linear)"/>
<path d="M120.145 426.757C121.64 425.895 122.153 423.985 121.289 422.492C120.426 420.998 118.514 420.486 117.018 421.349C115.523 422.211 115.011 424.121 115.874 425.614C116.737 427.108 118.65 427.619 120.145 426.757Z" fill="url(#paint15_linear)"/>
<path d="M78.4553 417.146C79.9507 416.284 80.4631 414.374 79.5997 412.881C78.7363 411.387 76.8241 410.875 75.3287 411.738C73.8333 412.6 73.321 414.51 74.1844 416.003C75.0477 417.497 76.9599 418.009 78.4553 417.146Z" fill="url(#paint16_linear)"/>
<path d="M118.663 253.399C119.992 253.399 121.07 252.323 121.07 250.995C121.07 249.667 119.992 248.591 118.663 248.591C117.333 248.591 116.256 249.667 116.256 250.995C116.256 252.323 117.333 253.399 118.663 253.399Z" fill="#69F0AE"/>
<path d="M164.045 263.782C164.71 262.632 164.315 261.162 163.164 260.498C162.013 259.834 160.54 260.228 159.876 261.378C159.211 262.528 159.605 263.998 160.757 264.662C161.908 265.326 163.38 264.932 164.045 263.782Z" fill="#69F0AE"/>
<path d="M194.856 296.322C196.008 295.658 196.402 294.188 195.738 293.038C195.073 291.888 193.601 291.494 192.449 292.158C191.298 292.822 190.903 294.292 191.568 295.442C192.233 296.592 193.705 296.986 194.856 296.322Z" fill="#69F0AE"/>
<path d="M195.236 384.406C195.901 383.257 195.507 381.786 194.355 381.122C193.204 380.458 191.732 380.852 191.067 382.002C190.402 383.152 190.797 384.623 191.948 385.286C193.099 385.95 194.572 385.556 195.236 384.406Z" fill="#69F0AE"/>
<path d="M161.481 416.356C162.632 415.692 163.027 414.222 162.362 413.072C161.697 411.922 160.225 411.528 159.074 412.192C157.922 412.856 157.528 414.326 158.193 415.476C158.857 416.626 160.329 417.02 161.481 416.356Z" fill="#69F0AE"/>
<path d="M76.5676 264.67C77.7189 264.006 78.1134 262.535 77.4487 261.385C76.784 260.236 75.3118 259.842 74.1604 260.505C73.0091 261.169 72.6147 262.64 73.2794 263.79C73.9441 264.94 75.4163 265.334 76.5676 264.67Z" fill="#69F0AE"/>
<path d="M45.7598 295.443C46.4245 294.294 46.0301 292.823 44.8788 292.159C43.7274 291.495 42.2553 291.889 41.5905 293.039C40.9258 294.189 41.3203 295.66 42.4716 296.323C43.6229 296.987 45.0951 296.593 45.7598 295.443Z" fill="#69F0AE"/>
<path d="M207.548 342.674C209.043 341.811 209.555 339.902 208.692 338.408C207.829 336.914 205.916 336.403 204.421 337.265C202.926 338.127 202.413 340.037 203.277 341.531C204.14 343.024 206.052 343.536 207.548 342.674Z" fill="#69F0AE"/>
<path d="M45.3851 385.285C46.5365 384.621 46.9309 383.151 46.2662 382.001C45.6015 380.851 44.1293 380.457 42.978 381.121C41.8266 381.785 41.4322 383.255 42.0969 384.405C42.7616 385.555 44.2338 385.949 45.3851 385.285Z" fill="#69F0AE"/>
<path d="M79.1327 415.479C79.7975 414.329 79.403 412.859 78.2517 412.195C77.1004 411.531 75.6282 411.925 74.9635 413.075C74.2987 414.225 74.6932 415.695 75.8445 416.359C76.9959 417.023 78.468 416.629 79.1327 415.479Z" fill="#69F0AE"/>
<path d="M31.2723 342.292C32.6017 342.292 33.6794 341.216 33.6794 339.888C33.6794 338.56 32.6017 337.484 31.2723 337.484C29.9428 337.484 28.8651 338.56 28.8651 339.888C28.8651 341.216 29.9428 342.292 31.2723 342.292Z" fill="#69F0AE"/>
<path d="M118.663 426.369C119.992 426.369 121.07 425.293 121.07 423.965C121.07 422.637 119.992 421.561 118.663 421.561C117.333 421.561 116.256 422.637 116.256 423.965C116.256 425.293 117.333 426.369 118.663 426.369Z" fill="#69F0AE"/>
<path opacity="0.2" d="M29.6675 346.292C29.6737 325.646 36.5067 305.579 49.105 289.21C61.7034 272.841 79.3617 261.086 99.3367 255.771C119.312 250.456 140.485 251.878 159.568 259.817C178.65 267.755 194.574 281.766 204.864 299.673C199.814 287.958 192.424 277.396 183.144 268.633C173.865 259.871 162.892 253.093 150.898 248.714C138.904 244.335 126.141 242.448 113.391 243.168C100.642 243.888 88.1731 247.199 76.7496 252.9C65.3261 258.601 55.1881 266.571 46.9565 276.322C38.7249 286.073 32.5729 297.4 28.8774 309.609C25.182 321.818 24.0208 334.651 25.465 347.324C26.9091 359.996 30.9283 372.241 37.2763 383.308C32.2407 371.616 29.6514 359.02 29.6675 346.292Z" fill="#B963FF"/>
<path d="M118.663 341.49C120.879 341.49 122.675 339.697 122.675 337.484C122.675 335.271 120.879 333.477 118.663 333.477C116.447 333.477 114.651 335.271 114.651 337.484C114.651 339.697 116.447 341.49 118.663 341.49Z" fill="#69F0AE"/>
</g>
<defs>
<linearGradient id="paint0_linear" x1="301.316" y1="365.463" x2="301.316" y2="0" gradientUnits="userSpaceOnUse">
<stop stop-color="#808080" stop-opacity="0.25"/>
<stop offset="0.54" stop-color="#808080" stop-opacity="0.12"/>
<stop offset="1" stop-color="#808080" stop-opacity="0.1"/>
</linearGradient>
<linearGradient id="paint1_linear" x1="230242" y1="132561" x2="230242" y2="25858.8" gradientUnits="userSpaceOnUse">
<stop stop-color="#808080" stop-opacity="0.25"/>
<stop offset="0.54" stop-color="#808080" stop-opacity="0.12"/>
<stop offset="1" stop-color="#808080" stop-opacity="0.1"/>
</linearGradient>
<linearGradient id="paint2_linear" x1="40713.2" y1="156673" x2="40713.2" y2="75346.6" gradientUnits="userSpaceOnUse">
<stop stop-color="#808080" stop-opacity="0.25"/>
<stop offset="0.54" stop-color="#808080" stop-opacity="0.12"/>
<stop offset="1" stop-color="#808080" stop-opacity="0.1"/>
</linearGradient>
<linearGradient id="paint3_linear" x1="2037.77" y1="5896.72" x2="2037.77" y2="5714.85" gradientUnits="userSpaceOnUse">
<stop stop-color="#808080" stop-opacity="0.25"/>
<stop offset="0.54" stop-color="#808080" stop-opacity="0.12"/>
<stop offset="1" stop-color="#808080" stop-opacity="0.1"/>
</linearGradient>
<linearGradient id="paint4_linear" x1="6848.01" y1="36448.9" x2="6848.01" y2="28539.3" gradientUnits="userSpaceOnUse">
<stop stop-color="#808080" stop-opacity="0.25"/>
<stop offset="0.54" stop-color="#808080" stop-opacity="0.12"/>
<stop offset="1" stop-color="#808080" stop-opacity="0.1"/>
</linearGradient>
<linearGradient id="paint5_linear" x1="4530.25" y1="21403.1" x2="4530.25" y2="19236.5" gradientUnits="userSpaceOnUse">
<stop stop-color="#808080" stop-opacity="0.25"/>
<stop offset="0.54" stop-color="#808080" stop-opacity="0.12"/>
<stop offset="1" stop-color="#808080" stop-opacity="0.1"/>
</linearGradient>
<linearGradient id="paint6_linear" x1="-2534.97" y1="5240.93" x2="-2486.1" y2="5212.68" gradientUnits="userSpaceOnUse">
<stop stop-color="#808080" stop-opacity="0.25"/>
<stop offset="0.54" stop-color="#808080" stop-opacity="0.12"/>
<stop offset="1" stop-color="#808080" stop-opacity="0.1"/>
</linearGradient>
<linearGradient id="paint7_linear" x1="1579.74" y1="4621.72" x2="1579.74" y2="4565.32" gradientUnits="userSpaceOnUse">
<stop stop-color="#808080" stop-opacity="0.25"/>
<stop offset="0.54" stop-color="#808080" stop-opacity="0.12"/>
<stop offset="1" stop-color="#808080" stop-opacity="0.1"/>
</linearGradient>
<linearGradient id="paint8_linear" x1="-489.353" y1="5345.32" x2="-461.141" y2="5296.4" gradientUnits="userSpaceOnUse">
<stop stop-color="#808080" stop-opacity="0.25"/>
<stop offset="0.54" stop-color="#808080" stop-opacity="0.12"/>
<stop offset="1" stop-color="#808080" stop-opacity="0.1"/>
</linearGradient>
<linearGradient id="paint9_linear" x1="-4271.6" y1="4035.26" x2="-4215.07" y2="4035.26" gradientUnits="userSpaceOnUse">
<stop stop-color="#808080" stop-opacity="0.25"/>
<stop offset="0.54" stop-color="#808080" stop-opacity="0.12"/>
<stop offset="1" stop-color="#808080" stop-opacity="0.1"/>
</linearGradient>
<linearGradient id="paint10_linear" x1="-3869.01" y1="3977.21" x2="-3812.48" y2="3977.21" gradientUnits="userSpaceOnUse">
<stop stop-color="#808080" stop-opacity="0.25"/>
<stop offset="0.54" stop-color="#808080" stop-opacity="0.12"/>
<stop offset="1" stop-color="#808080" stop-opacity="0.1"/>
</linearGradient>
<linearGradient id="paint11_linear" x1="-3488.77" y1="4121.76" x2="-3432.31" y2="4121.76" gradientUnits="userSpaceOnUse">
<stop stop-color="#808080" stop-opacity="0.25"/>
<stop offset="0.54" stop-color="#808080" stop-opacity="0.12"/>
<stop offset="1" stop-color="#808080" stop-opacity="0.1"/>
</linearGradient>
<linearGradient id="paint12_linear" x1="-3230.94" y1="4443.39" x2="-3174.41" y2="4443.39" gradientUnits="userSpaceOnUse">
<stop stop-color="#808080" stop-opacity="0.25"/>
<stop offset="0.54" stop-color="#808080" stop-opacity="0.12"/>
<stop offset="1" stop-color="#808080" stop-opacity="0.1"/>
</linearGradient>
<linearGradient id="paint13_linear" x1="-3327.2" y1="5246.1" x2="-3270.67" y2="5246.1" gradientUnits="userSpaceOnUse">
<stop stop-color="#808080" stop-opacity="0.25"/>
<stop offset="0.54" stop-color="#808080" stop-opacity="0.12"/>
<stop offset="1" stop-color="#808080" stop-opacity="0.1"/>
</linearGradient>
<linearGradient id="paint14_linear" x1="-3655.61" y1="5495.6" x2="-3599.15" y2="5495.6" gradientUnits="userSpaceOnUse">
<stop stop-color="#808080" stop-opacity="0.25"/>
<stop offset="0.54" stop-color="#808080" stop-opacity="0.12"/>
<stop offset="1" stop-color="#808080" stop-opacity="0.1"/>
</linearGradient>
<linearGradient id="paint15_linear" x1="-4042.19" y1="5540.83" x2="-3985.66" y2="5540.83" gradientUnits="userSpaceOnUse">
<stop stop-color="#808080" stop-opacity="0.25"/>
<stop offset="0.54" stop-color="#808080" stop-opacity="0.12"/>
<stop offset="1" stop-color="#808080" stop-opacity="0.1"/>
</linearGradient>
<linearGradient id="paint16_linear" x1="-4409.43" y1="5412.35" x2="-4352.97" y2="5412.35" gradientUnits="userSpaceOnUse">
<stop stop-color="#808080" stop-opacity="0.25"/>
<stop offset="0.54" stop-color="#808080" stop-opacity="0.12"/>
<stop offset="1" stop-color="#808080" stop-opacity="0.1"/>
</linearGradient>
<clipPath id="clip0">
<rect width="578" height="456" fill="white"/>
</clipPath>
</defs>
</svg>
