<svg width="505" height="84" viewBox="0 0 505 84" fill="none" xmlns="http://www.w3.org/2000/svg">
<path d="M149.413 17.1595C144.544 17.2814 135.774 17.5497 129.91 17.7691C104.271 18.6715 103.128 18.6959 74.8049 18.3788C53.5129 18.135 45.4881 18.1106 38.4322 18.3544C21.4633 18.8909 12.6186 19.8664 6.87945 21.8418C-2.66091 25.1096 -2.23855 30.6942 7.89808 35.6935C11.3267 37.3762 17.0658 39.2784 21.6372 40.2051C23.426 40.5709 25.0161 40.9123 25.19 40.9611C25.3888 41.0099 25.4881 41.5952 25.4881 42.717V44.3997H20.0968C15.3266 44.3997 14.4322 44.4728 12.6931 44.9362C8.71796 45.9848 7.87324 47.4724 8.9664 51.545C9.43845 53.3253 9.53783 55.008 9.2397 55.9834L9.04094 56.6663H13.7117C23.9478 56.6663 36.8173 57.8856 46.2335 59.739L49.4384 60.3731L92.9415 60.1048C116.842 59.9585 154.656 59.7146 176.917 59.5683C208.122 59.3488 224.246 59.3488 247.227 59.5683C263.625 59.739 278.78 59.9097 280.892 59.9829C283.003 60.0317 284.643 60.0317 284.494 59.9829C284.047 59.7634 252.867 58.8367 230.581 58.3734C213.587 58.0076 172.494 57.8369 158.035 58.0563C151.078 58.1783 145.339 58.2514 145.289 58.227C145.24 58.2027 145.339 57.9588 145.513 57.6905C145.761 57.3003 145.761 57.1052 145.538 56.837C145.19 56.4468 145.563 56.398 154.681 55.8127C171.128 54.7153 189.24 54.7885 222.134 56.0566C248.395 57.0565 256.718 57.2272 270.954 57.0565C278.258 56.9833 285.612 56.837 287.302 56.7638L290.333 56.5931V58.3246C290.333 59.9341 290.382 60.0805 290.904 60.178C291.202 60.2268 296.544 60.3975 302.755 60.5682C313.538 60.8121 323.475 61.1779 338.531 61.8119C344.643 62.0802 345.711 62.0802 348.742 61.69C350.606 61.4705 353.388 60.9584 354.954 60.5926C358.034 59.8122 362.134 58.4221 362.134 58.1539C362.134 57.6661 336.072 55.3006 320.27 54.3739C298.854 53.0814 281.289 52.4961 239.401 51.6426C228.817 51.4475 217.016 51.1792 213.19 51.0817L206.233 50.911L213.19 50.7159C221.587 50.472 253.115 50.6915 259.525 51.0329C262.059 51.1792 265.736 51.3987 267.724 51.545C276.37 52.1303 289.339 52.5937 309.339 53.0082C330.979 53.4716 342.084 53.8618 352.941 54.5934C358.01 54.9348 364.693 55.5445 366.606 55.8127C367.326 55.9347 367.972 55.6908 370.556 54.3008C375.351 51.7401 378.333 48.6918 378.929 45.7409C379.5 42.9608 376.593 39.8881 371.525 37.9127C369.637 37.1567 369.612 37.1567 364.643 37.1567H359.674L359.401 36.1569C359.103 35.1326 359.351 33.2792 359.923 32.2306C360.072 31.9623 360.146 31.7185 360.097 31.6697C360.022 31.5965 346.457 31.0112 320.767 29.9626L306.854 29.4017L319.401 29.5236C326.308 29.5968 338.382 29.7187 346.233 29.8163C362.084 30.0114 361.14 30.1089 361.14 28.4018C361.14 26.5241 359.699 25.3535 356.146 24.2805C352.916 23.305 350.159 23.1587 338.034 23.4025C320.569 23.7439 314.68 23.6708 308.221 23.0611C295.972 21.9149 282.059 21.1833 257.538 20.4517C236.693 19.8176 230.084 19.5982 221.637 19.2324C213.513 18.8666 210.78 18.6959 200.395 18.013C186.805 17.1107 166.184 16.7693 149.413 17.1595ZM230.035 26.1095C229.712 26.1582 229.165 26.1582 228.792 26.1095C228.395 26.0607 228.668 26.0119 229.339 26.0119C230.035 26.0119 230.333 26.0607 230.035 26.1095ZM238.904 26.5484C244.171 26.8655 251.873 27.2557 272.569 28.2555C279.277 28.5726 279.351 28.5969 274.432 28.475C263.128 28.2311 234.258 26.7679 231.575 26.329C230.333 26.1339 233.562 26.207 238.904 26.5484ZM283.575 28.792C283.326 28.8408 282.879 28.8408 282.581 28.792C282.258 28.7433 282.457 28.6945 283.003 28.6945C283.55 28.6701 283.798 28.7189 283.575 28.792ZM285.289 28.7676C285.215 28.8408 284.991 28.8652 284.817 28.792C284.618 28.7189 284.693 28.6457 284.966 28.6457C285.239 28.6213 285.389 28.6945 285.289 28.7676Z" fill="#F14444"/>
<path d="M285.438 60.0073C285.662 60.0561 286.01 60.0561 286.184 60.0073C286.333 59.9341 286.159 59.8854 285.736 59.8854C285.339 59.8854 285.19 59.9341 285.438 60.0073Z" fill="#F14444"/>
<path d="M131.604 40.42H120.66L118.644 46H115.188L124.26 21.052H128.04L137.076 46H133.62L131.604 40.42ZM130.668 37.756L126.132 25.084L121.596 37.756H130.668ZM144.306 29.908C144.954 28.78 145.914 27.844 147.186 27.1C148.482 26.332 149.982 25.948 151.686 25.948C153.438 25.948 155.022 26.368 156.438 27.208C157.878 28.048 159.006 29.236 159.822 30.772C160.638 32.284 161.046 34.048 161.046 36.064C161.046 38.056 160.638 39.832 159.822 41.392C159.006 42.952 157.878 44.164 156.438 45.028C155.022 45.892 153.438 46.324 151.686 46.324C150.006 46.324 148.518 45.952 147.222 45.208C145.95 44.44 144.978 43.492 144.306 42.364V55.36H141.03V26.272H144.306V29.908ZM157.698 36.064C157.698 34.576 157.398 33.28 156.798 32.176C156.198 31.072 155.382 30.232 154.35 29.656C153.342 29.08 152.226 28.792 151.002 28.792C149.802 28.792 148.686 29.092 147.654 29.692C146.646 30.268 145.83 31.12 145.206 32.248C144.606 33.352 144.306 34.636 144.306 36.1C144.306 37.588 144.606 38.896 145.206 40.024C145.83 41.128 146.646 41.98 147.654 42.58C148.686 43.156 149.802 43.444 151.002 43.444C152.226 43.444 153.342 43.156 154.35 42.58C155.382 41.98 156.198 41.128 156.798 40.024C157.398 38.896 157.698 37.576 157.698 36.064ZM173.962 46.324C172.114 46.324 170.434 45.904 168.922 45.064C167.434 44.224 166.258 43.036 165.394 41.5C164.554 39.94 164.134 38.14 164.134 36.1C164.134 34.084 164.566 32.308 165.43 30.772C166.318 29.212 167.518 28.024 169.03 27.208C170.542 26.368 172.234 25.948 174.106 25.948C175.978 25.948 177.67 26.368 179.182 27.208C180.694 28.024 181.882 29.2 182.746 30.736C183.634 32.272 184.078 34.06 184.078 36.1C184.078 38.14 183.622 39.94 182.71 41.5C181.822 43.036 180.61 44.224 179.074 45.064C177.538 45.904 175.834 46.324 173.962 46.324ZM173.962 43.444C175.138 43.444 176.242 43.168 177.274 42.616C178.306 42.064 179.134 41.236 179.758 40.132C180.406 39.028 180.73 37.684 180.73 36.1C180.73 34.516 180.418 33.172 179.794 32.068C179.17 30.964 178.354 30.148 177.346 29.62C176.338 29.068 175.246 28.792 174.07 28.792C172.87 28.792 171.766 29.068 170.758 29.62C169.774 30.148 168.982 30.964 168.382 32.068C167.782 33.172 167.482 34.516 167.482 36.1C167.482 37.708 167.77 39.064 168.346 40.168C168.946 41.272 169.738 42.1 170.722 42.652C171.706 43.18 172.786 43.444 173.962 43.444ZM190.077 23.068C189.453 23.068 188.925 22.852 188.493 22.42C188.061 21.988 187.845 21.46 187.845 20.836C187.845 20.212 188.061 19.684 188.493 19.252C188.925 18.82 189.453 18.604 190.077 18.604C190.677 18.604 191.181 18.82 191.589 19.252C192.021 19.684 192.237 20.212 192.237 20.836C192.237 21.46 192.021 21.988 191.589 22.42C191.181 22.852 190.677 23.068 190.077 23.068ZM191.661 26.272V46H188.385V26.272H191.661ZM196.021 36.064C196.021 34.048 196.429 32.284 197.245 30.772C198.061 29.236 199.177 28.048 200.593 27.208C202.033 26.368 203.629 25.948 205.381 25.948C207.109 25.948 208.609 26.32 209.881 27.064C211.153 27.808 212.101 28.744 212.725 29.872V26.272H216.037V46H212.725V42.328C212.077 43.48 211.105 44.44 209.809 45.208C208.537 45.952 207.049 46.324 205.345 46.324C203.593 46.324 202.009 45.892 200.593 45.028C199.177 44.164 198.061 42.952 197.245 41.392C196.429 39.832 196.021 38.056 196.021 36.064ZM212.725 36.1C212.725 34.612 212.425 33.316 211.825 32.212C211.225 31.108 210.409 30.268 209.377 29.692C208.369 29.092 207.253 28.792 206.029 28.792C204.805 28.792 203.689 29.08 202.681 29.656C201.673 30.232 200.869 31.072 200.269 32.176C199.669 33.28 199.369 34.576 199.369 36.064C199.369 37.576 199.669 38.896 200.269 40.024C200.869 41.128 201.673 41.98 202.681 42.58C203.689 43.156 204.805 43.444 206.029 43.444C207.253 43.444 208.369 43.156 209.377 42.58C210.409 41.98 211.225 41.128 211.825 40.024C212.425 38.896 212.725 37.588 212.725 36.1ZM220.349 36.064C220.349 34.048 220.757 32.284 221.573 30.772C222.389 29.236 223.505 28.048 224.921 27.208C226.361 26.368 227.969 25.948 229.745 25.948C231.281 25.948 232.709 26.308 234.029 27.028C235.349 27.724 236.357 28.648 237.053 29.8V19.36H240.365V46H237.053V42.292C236.405 43.468 235.445 44.44 234.173 45.208C232.901 45.952 231.413 46.324 229.709 46.324C227.957 46.324 226.361 45.892 224.921 45.028C223.505 44.164 222.389 42.952 221.573 41.392C220.757 39.832 220.349 38.056 220.349 36.064ZM237.053 36.1C237.053 34.612 236.753 33.316 236.153 32.212C235.553 31.108 234.737 30.268 233.705 29.692C232.697 29.092 231.581 28.792 230.357 28.792C229.133 28.792 228.017 29.08 227.009 29.656C226.001 30.232 225.197 31.072 224.597 32.176C223.997 33.28 223.697 34.576 223.697 36.064C223.697 37.576 223.997 38.896 224.597 40.024C225.197 41.128 226.001 41.98 227.009 42.58C228.017 43.156 229.133 43.444 230.357 43.444C231.581 43.444 232.697 43.156 233.705 42.58C234.737 41.98 235.553 41.128 236.153 40.024C236.753 38.896 237.053 37.588 237.053 36.1ZM254.505 46.324C252.657 46.324 250.977 45.904 249.465 45.064C247.977 44.224 246.801 43.036 245.937 41.5C245.097 39.94 244.677 38.14 244.677 36.1C244.677 34.084 245.109 32.308 245.973 30.772C246.861 29.212 248.061 28.024 249.573 27.208C251.085 26.368 252.777 25.948 254.649 25.948C256.521 25.948 258.213 26.368 259.725 27.208C261.237 28.024 262.425 29.2 263.289 30.736C264.177 32.272 264.621 34.06 264.621 36.1C264.621 38.14 264.165 39.94 263.253 41.5C262.365 43.036 261.153 44.224 259.617 45.064C258.081 45.904 256.377 46.324 254.505 46.324ZM254.505 43.444C255.681 43.444 256.785 43.168 257.817 42.616C258.849 42.064 259.677 41.236 260.301 40.132C260.949 39.028 261.273 37.684 261.273 36.1C261.273 34.516 260.961 33.172 260.337 32.068C259.713 30.964 258.897 30.148 257.889 29.62C256.881 29.068 255.789 28.792 254.613 28.792C253.413 28.792 252.309 29.068 251.301 29.62C250.317 30.148 249.525 30.964 248.925 32.068C248.325 33.172 248.025 34.516 248.025 36.1C248.025 37.708 248.313 39.064 248.889 40.168C249.489 41.272 250.281 42.1 251.265 42.652C252.249 43.18 253.329 43.444 254.505 43.444ZM272.204 29.476C272.78 28.348 273.596 27.472 274.652 26.848C275.732 26.224 277.04 25.912 278.576 25.912V29.296H277.712C274.04 29.296 272.204 31.288 272.204 35.272V46H268.928V26.272H272.204V29.476ZM300.358 35.38C300.358 36.004 300.322 36.664 300.25 37.36H284.482C284.602 39.304 285.262 40.828 286.462 41.932C287.686 43.012 289.162 43.552 290.89 43.552C292.306 43.552 293.482 43.228 294.418 42.58C295.378 41.908 296.05 41.02 296.434 39.916H299.962C299.434 41.812 298.378 43.36 296.794 44.56C295.21 45.736 293.242 46.324 290.89 46.324C289.018 46.324 287.338 45.904 285.85 45.064C284.386 44.224 283.234 43.036 282.394 41.5C281.554 39.94 281.134 38.14 281.134 36.1C281.134 34.06 281.542 32.272 282.358 30.736C283.174 29.2 284.314 28.024 285.778 27.208C287.266 26.368 288.97 25.948 290.89 25.948C292.762 25.948 294.418 26.356 295.858 27.172C297.298 27.988 298.402 29.116 299.17 30.556C299.962 31.972 300.358 33.58 300.358 35.38ZM296.974 34.696C296.974 33.448 296.698 32.38 296.146 31.492C295.594 30.58 294.838 29.896 293.878 29.44C292.942 28.96 291.898 28.72 290.746 28.72C289.09 28.72 287.674 29.248 286.498 30.304C285.346 31.36 284.686 32.824 284.518 34.696H296.974ZM311.666 46.324C310.154 46.324 308.798 46.072 307.598 45.568C306.398 45.04 305.45 44.32 304.754 43.408C304.058 42.472 303.674 41.404 303.602 40.204H306.986C307.082 41.188 307.538 41.992 308.354 42.616C309.194 43.24 310.286 43.552 311.63 43.552C312.878 43.552 313.862 43.276 314.582 42.724C315.302 42.172 315.662 41.476 315.662 40.636C315.662 39.772 315.278 39.136 314.51 38.728C313.742 38.296 312.554 37.876 310.946 37.468C309.482 37.084 308.282 36.7 307.346 36.316C306.434 35.908 305.642 35.32 304.97 34.552C304.322 33.76 303.998 32.728 303.998 31.456C303.998 30.448 304.298 29.524 304.898 28.684C305.498 27.844 306.35 27.184 307.454 26.704C308.558 26.2 309.818 25.948 311.234 25.948C313.418 25.948 315.182 26.5 316.526 27.604C317.87 28.708 318.59 30.22 318.686 32.14H315.41C315.338 31.108 314.918 30.28 314.15 29.656C313.406 29.032 312.398 28.72 311.126 28.72C309.95 28.72 309.014 28.972 308.318 29.476C307.622 29.98 307.274 30.64 307.274 31.456C307.274 32.104 307.478 32.644 307.886 33.076C308.318 33.484 308.846 33.82 309.47 34.084C310.118 34.324 311.006 34.6 312.134 34.912C313.55 35.296 314.702 35.68 315.59 36.064C316.478 36.424 317.234 36.976 317.858 37.72C318.506 38.464 318.842 39.436 318.866 40.636C318.866 41.716 318.566 42.688 317.966 43.552C317.366 44.416 316.514 45.1 315.41 45.604C314.33 46.084 313.082 46.324 311.666 46.324Z" fill="black"/>
<path d="M58.884 55.5101L58.699 56.4208L58.8773 55.5091C58.3774 55.4099 57.892 55.7376 57.7934 56.2411C57.6949 56.7451 58.0203 57.2336 58.5206 57.3329C58.5221 57.3333 58.536 57.3358 58.5375 57.3363C58.5961 57.3474 58.6543 57.3532 58.7119 57.3532C59.146 57.3532 59.5329 57.0434 59.617 56.5979C59.7131 56.0935 59.3849 55.6064 58.884 55.5101Z" fill="black"/>
<path d="M65.94 55.8088L66.0318 56.7335L65.9371 55.8093C65.43 55.8616 65.0613 56.3181 65.1137 56.8289C65.1623 57.3072 65.5631 57.6635 66.0303 57.6635C66.0621 57.6635 66.0943 57.6616 66.126 57.6587L66.1515 57.6558C66.6561 57.5962 67.0142 57.1378 66.958 56.6294C66.9013 56.1216 66.4447 55.7556 65.94 55.8088Z" fill="black"/>
<path d="M62.4072 55.926C62.4072 55.926 62.3942 55.9255 62.3937 55.9255C61.8852 55.9023 61.4603 56.3002 61.4372 56.8129C61.4146 57.3256 61.8145 57.7599 62.3236 57.7831C62.338 57.7841 62.3519 57.7841 62.3663 57.7841C62.8566 57.7841 63.2652 57.3953 63.2873 56.8967C63.3103 56.384 62.9167 55.9492 62.4072 55.926Z" fill="black"/>
<path d="M55.4752 54.5656L55.4637 54.5612C54.984 54.3879 54.4611 54.6406 54.289 55.1238C54.1164 55.6069 54.3712 56.1414 54.8509 56.3152C54.9542 56.3525 55.0595 56.3699 55.1628 56.3699C55.5411 56.3699 55.8963 56.1342 56.0314 55.7546C56.2039 55.2714 55.9549 54.7389 55.4752 54.5656Z" fill="black"/>
<path d="M69.4228 55.1581L69.6501 56.0591L69.4199 55.1591C68.9263 55.2869 68.6292 55.7938 68.7561 56.291C68.8633 56.7103 69.2382 56.9891 69.6492 56.9891C69.7256 56.9891 69.803 56.9794 69.8804 56.9591C69.8842 56.9581 69.9005 56.9538 69.9049 56.9528C70.3947 56.8182 70.6811 56.3113 70.5504 55.817C70.4196 55.3232 69.9145 55.0294 69.4228 55.1581Z" fill="black"/>
<path d="M72.759 53.9861L73.1247 54.8391L72.7561 53.987C72.2889 54.1923 72.075 54.7399 72.2783 55.2104C72.4297 55.5605 72.7691 55.7691 73.1252 55.7691C73.2478 55.7691 73.3732 55.7439 73.4929 55.6917C73.4968 55.6897 73.5117 55.6834 73.5155 55.6815C73.9784 55.4709 74.1827 54.9248 73.976 54.4576C73.7693 53.9899 73.2242 53.7803 72.759 53.9861Z" fill="black"/>
<path d="M51.9501 11.6129C52.0982 11.6129 52.2486 11.5771 52.3875 11.5025C52.8374 11.2609 53.0071 10.6979 52.7673 10.2447C52.5274 9.79206 51.9689 9.62019 51.519 9.86226L51.5079 9.86806C51.0585 10.1096 50.8937 10.6698 51.1335 11.1229C51.2989 11.4357 51.6199 11.6129 51.9501 11.6129Z" fill="black"/>
<path d="M41.2754 21.9951C41.4124 22.0672 41.559 22.1016 41.7036 22.1016C42.0358 22.1016 42.3568 21.9205 42.5217 21.6034L42.538 21.571C42.763 21.1101 42.5746 20.5529 42.117 20.3268C41.6628 20.1012 41.1139 20.2871 40.886 20.7417C40.6505 21.1958 40.8245 21.7569 41.2754 21.9951Z" fill="black"/>
<path d="M39.9762 25.492C40.0742 25.5254 40.1737 25.5414 40.2723 25.5414C40.6568 25.5414 41.0158 25.2969 41.1461 24.9096L41.1581 24.8728C41.3081 24.3823 41.0346 23.8619 40.5472 23.7113C40.0641 23.5613 39.5513 23.8314 39.397 24.3155C39.235 24.8011 39.4941 25.3279 39.9762 25.492Z" fill="black"/>
<path d="M43.0961 18.7432C43.26 18.8632 43.4498 18.9213 43.6382 18.9213C43.9233 18.9213 44.2049 18.7882 44.3852 18.5384L44.3972 18.5219C44.6933 18.1046 44.5967 17.5256 44.1833 17.2274C43.7695 16.9286 43.1927 17.0245 42.8956 17.4409L43.6392 17.9918L42.8928 17.4447C42.5928 17.8601 42.6842 18.4416 43.0961 18.7432Z" fill="black"/>
<path d="M48.8173 13.6206C49.011 13.6206 49.2061 13.5591 49.3729 13.4313C49.7843 13.1282 49.8733 12.5468 49.5724 12.1324C49.271 11.7179 48.6937 11.6284 48.2828 11.9314L48.2597 11.9484C47.854 12.2587 47.7733 12.8431 48.0814 13.2521C48.2631 13.4932 48.5385 13.6206 48.8173 13.6206Z" fill="black"/>
<path d="M39.1523 39.5889C39.2744 39.9883 39.6388 40.2445 40.0329 40.2445C40.1228 40.2445 40.2146 40.2309 40.3049 40.2028C40.7894 40.0532 41.0629 39.5362 40.9178 39.0472C40.7789 38.5592 40.2766 38.2726 39.7878 38.4067C39.296 38.5418 39.0062 39.053 39.1403 39.5483C39.1432 39.558 39.1494 39.5793 39.1523 39.5889Z" fill="black"/>
<path d="M46.0295 16.0703C46.2693 16.0703 46.5092 15.9768 46.6904 15.7909C47.0504 15.4278 47.0504 14.8391 46.6904 14.4765C46.3299 14.1134 45.7454 14.1134 45.3849 14.4765L45.3696 14.492C45.0129 14.8585 45.0201 15.4462 45.384 15.8055C45.5633 15.9827 45.7964 16.0703 46.0295 16.0703Z" fill="black"/>
<path d="M40.1723 35.5363C40.1074 35.0313 39.6493 34.6731 39.1475 34.7331C38.6419 34.7941 38.2804 35.2564 38.3405 35.7662L38.3458 35.8035C38.4131 36.2654 38.8067 36.5965 39.2571 36.5965C39.3013 36.5965 39.3465 36.5931 39.3922 36.5863C39.8945 36.5128 40.2429 36.0422 40.1723 35.5363Z" fill="black"/>
<path d="M39.0129 32.874C39.0226 32.874 39.0317 32.8745 39.0408 32.8745C39.5378 32.8745 39.9483 32.4761 39.9627 31.9721L39.9637 31.9324C39.9637 31.4187 39.5503 31.0029 39.0408 31.0029C38.5347 31.0029 38.1242 31.4124 38.118 31.9203C38.1045 32.4325 38.5049 32.859 39.0129 32.874Z" fill="black"/>
<path d="M39.2153 29.1462C39.2706 29.1559 39.3249 29.1607 39.3792 29.1607C39.8176 29.1607 40.2064 28.8446 40.2867 28.3948C40.2891 28.3813 40.291 28.3677 40.2929 28.3542C40.3674 27.8463 40.0189 27.3738 39.5143 27.2992C39.0158 27.2247 38.5491 27.5699 38.4688 28.0705C38.3814 28.5749 38.7149 29.0557 39.2153 29.1462Z" fill="black"/>
<path d="M82.7479 19.0366C82.9267 19.298 83.2141 19.4379 83.5073 19.4379C83.6875 19.4379 83.8702 19.3847 84.0298 19.2738C84.4494 18.9833 84.5556 18.4043 84.2672 17.9812L83.5001 18.4982L84.2643 17.9768C83.9778 17.5517 83.4039 17.4409 82.9824 17.7289C82.5604 18.017 82.4503 18.595 82.7363 19.0201L82.7479 19.0366Z" fill="black"/>
<path d="M87.4606 28.3905C86.954 28.4476 86.5897 28.908 86.6469 29.4183L86.6517 29.4585C86.7176 29.9218 87.1127 30.2563 87.5645 30.2563C87.6077 30.2563 87.6519 30.2534 87.6962 30.2471C88.1965 30.175 88.5455 29.7107 88.4806 29.2072C88.4224 28.6984 87.9639 28.3333 87.4606 28.3905Z" fill="black"/>
<path d="M85.9033 25.7675L85.9072 25.7796C86.0254 26.1848 86.3931 26.4472 86.7921 26.4472C86.8781 26.4472 86.9656 26.4351 87.0526 26.4089C87.5419 26.2642 87.8216 25.7476 87.6779 25.2548L87.6741 25.2426C87.5303 24.7498 87.0175 24.468 86.5282 24.6133C86.0394 24.758 85.7596 25.2746 85.9033 25.7675Z" fill="black"/>
<path d="M84.5998 22.2919C84.7608 22.6216 85.0901 22.8138 85.4323 22.8138C85.5683 22.8138 85.7067 22.7833 85.837 22.7184C86.2941 22.4918 86.484 21.938 86.2585 21.4771L85.4222 21.8697L86.2576 21.4751C86.0413 21.0104 85.4919 20.8104 85.0305 21.0283C84.569 21.2461 84.3701 21.7995 84.5863 22.2643L84.5998 22.2919Z" fill="black"/>
<path d="M80.4234 16.1337C80.6042 16.3196 80.843 16.4126 81.0824 16.4126C81.3155 16.4126 81.5486 16.3245 81.7284 16.1468C82.0899 15.7905 82.098 15.208 81.7495 14.8411C81.404 14.4659 80.8214 14.4431 80.4475 14.7907C80.073 15.1388 80.05 15.727 80.3956 16.1042L80.4234 16.1337Z" fill="black"/>
<path d="M87.7606 32.2718C87.2535 32.2587 86.8291 32.6591 86.8113 33.1698C86.7882 33.6786 87.1761 34.1119 87.6817 34.1405C87.6995 34.1415 87.7164 34.142 87.7341 34.142C88.2201 34.142 88.6272 33.759 88.6546 33.2637L88.656 33.2255C88.6704 32.7128 88.2696 32.2868 87.7606 32.2718Z" fill="black"/>
<path d="M74.522 11.5693L74.5441 11.5814C74.6816 11.655 74.8291 11.6899 74.9743 11.6899C75.3026 11.6899 75.6203 11.5117 75.7871 11.1994C76.0274 10.7487 75.8582 10.1852 75.4122 9.94117L74.9656 10.7545L75.4093 9.93923C74.9623 9.69232 74.4014 9.85741 74.1562 10.3077C73.9116 10.7574 74.075 11.3229 74.522 11.5693Z" fill="black"/>
<path d="M77.6433 13.608L77.6578 13.6191C77.8246 13.7464 78.0202 13.8079 78.2148 13.8079C78.4936 13.8079 78.769 13.6811 78.9507 13.44C79.2588 13.0309 79.179 12.448 78.7734 12.1377L78.7671 12.1333C78.3629 11.8206 77.7837 11.8971 77.4732 12.3042C77.1627 12.7114 77.2391 13.2952 77.6433 13.608Z" fill="black"/>
<path d="M95.4304 46.3441L91.0983 41.9729C90.7297 41.6011 90.2399 41.3963 89.7184 41.3963C89.1973 41.3963 88.7071 41.6011 88.3389 41.9729L88.2384 42.0741L87.9539 41.7874C87.6025 41.4326 87.3305 41.0196 87.1459 40.5699C87.1296 40.5103 87.1079 40.4522 87.0801 40.3975C86.9388 39.9976 86.8652 39.5721 86.8652 39.1349V37.8984C86.9493 37.943 87.0411 37.9754 87.1397 37.9923C87.1925 38.0015 87.2449 38.0059 87.2968 38.0059C87.7347 38.0059 88.1221 37.6912 88.2033 37.2439C88.3019 36.7413 87.9784 36.2528 87.479 36.1521C87.2593 36.1081 87.0421 36.1463 86.8594 36.2461C86.8027 34.9254 86.2668 33.6918 85.3343 32.7506L81.1315 28.5101C80.1885 27.5588 78.9345 27.035 77.6006 27.035C76.5682 27.035 75.5848 27.3501 74.7552 27.9335L74.3091 27.4818V16.8502C74.3091 15.5687 73.8472 14.3323 73.009 13.3693C72.4125 12.6848 72.0842 11.8056 72.0842 10.8935V10.1145H72.1477C73.2234 10.1145 74.0986 9.2329 74.0986 8.14893V1.96558C74.0986 0.881606 73.2234 0 72.1477 0H54.9091C53.8334 0 52.9581 0.881606 52.9581 1.96558V8.14893C52.9581 9.2329 53.8334 10.1145 54.9091 10.1145H55.0513V10.5221C55.0513 11.5243 54.6644 12.4664 53.9622 13.1747L52.1016 15.0522C51.1143 16.0485 50.5707 17.3726 50.5707 18.7815V24.7784C50.5707 25.5932 50.7649 26.3625 51.1066 27.0441C49.8829 27.1153 48.7423 27.629 47.8685 28.5101L43.6657 32.7506C42.6784 33.747 42.1348 35.0716 42.1348 36.4799V39.1349C42.1348 40.137 41.7483 41.0792 41.0461 41.7874L40.7649 42.0712C40.7635 42.0721 40.7625 42.0731 40.7616 42.0741L40.6616 41.9729C40.2929 41.6011 39.8031 41.3963 39.2816 41.3963C38.7606 41.3963 38.2703 41.6011 37.9022 41.9729L33.5696 46.3441C32.8101 47.1105 32.8101 48.3576 33.5696 49.124L35.0533 50.6205C35.4134 50.984 35.9978 50.9845 36.3583 50.6219C36.7188 50.2588 36.7198 49.6706 36.3593 49.307L34.876 47.8101C34.8342 47.7679 34.8342 47.6997 34.876 47.6576L39.2086 43.2863C39.249 43.2457 39.3148 43.2452 39.3552 43.2863L40.1084 44.0464H40.1088L51.5455 55.5862C51.5873 55.6283 51.5873 55.6966 51.5455 55.7387L47.2134 60.1099C47.1725 60.1511 47.1067 60.1511 47.0663 60.1099L38.9721 51.9431C38.6121 51.5795 38.0276 51.579 37.6671 51.9417C37.3062 52.3048 37.3057 52.893 37.6657 53.2566L45.7603 61.4234C46.1285 61.7952 46.6188 62 47.1403 62C47.6613 62 48.1511 61.7952 48.5198 61.4234L52.8519 57.0522C53.6113 56.2863 53.6113 55.0391 52.8519 54.2728L52.8048 54.2253L53.3513 53.6739C53.9896 53.0295 54.8375 52.6422 55.7387 52.5836C57.0071 52.5008 58.2006 51.9557 59.0989 51.0489L63.0787 47.0316C64.2265 46.728 65.12 45.7864 65.3628 44.607C65.7718 44.8031 66.2289 44.9135 66.7115 44.9135C68.4471 44.9135 69.8593 43.4897 69.8593 41.739V39.5319C70.2563 39.7144 70.697 39.817 71.1614 39.817C72.897 39.817 74.3087 38.3932 74.3087 36.6426V30.1174L77.1474 32.9908C77.3276 33.1733 77.5646 33.2643 77.8016 33.2643C78.0371 33.2643 78.2726 33.1742 78.4528 32.9937C78.8138 32.6315 78.8153 32.0433 78.4557 31.6792L76.089 29.2837C76.5471 29.0296 77.0633 28.894 77.6006 28.894C78.4408 28.894 79.231 29.2242 79.8251 29.824L84.0279 34.0641C84.6672 34.7094 85.0195 35.5673 85.0195 36.4799V39.1349C85.0195 40.6333 85.5977 42.0416 86.6475 43.1009L86.9339 43.3899L77.4992 52.9094L77.0479 52.4539C77.0431 52.4495 77.0388 52.4447 77.034 52.4403L76.9547 52.3599C75.9991 51.396 74.7297 50.8165 73.381 50.7284C72.5605 50.6747 71.7886 50.3222 71.2046 49.7335L68.1722 46.6956C67.8107 46.3335 67.2263 46.3349 66.8667 46.699C66.5077 47.063 66.5091 47.6518 66.8706 48.0134L69.9011 51.0489C70.7994 51.9557 71.9929 52.5008 73.2618 52.5836C74.1625 52.6422 75.0104 53.0295 75.6487 53.6734L75.6934 53.7184C75.7175 53.746 75.7429 53.7717 75.7698 53.7959L76.1952 54.2248L76.1481 54.2728C75.3887 55.0391 75.3887 56.2858 76.1481 57.0522L80.4802 61.4234C80.8489 61.7952 81.3387 62 81.8602 62C82.3812 62 82.8715 61.7952 83.2401 61.4234L95.4304 49.1235C96.1899 48.3571 96.1899 47.1105 95.4304 46.3441ZM87.4838 37.101L87.4665 37.0981L87.2983 37.0638L87.4838 37.101ZM57.7925 49.7355C57.2114 50.3222 56.4395 50.6747 55.6195 50.7284C54.2703 50.8165 53.0009 51.396 52.0453 52.3599L51.5008 52.9094L51.0105 52.4147C51.0043 52.4084 50.998 52.4016 50.9918 52.3958L42.0661 43.3899L42.3525 43.1009C43.4023 42.0416 43.9805 40.6333 43.9805 39.1349V36.4799C43.9805 35.5673 44.3323 34.7094 44.9721 34.0641L49.1749 29.824C49.769 29.2242 50.5592 28.894 51.3994 28.894C51.9382 28.894 52.4563 29.0305 52.9158 29.2867L50.5452 31.6783C50.1852 32.0414 50.1857 32.6301 50.5462 32.9927C50.7264 33.1738 50.9624 33.2643 51.1984 33.2643C51.4349 33.2643 51.6714 33.1733 51.8516 32.9917L54.6832 30.1344V41.739C54.6832 43.4897 56.0953 44.9135 57.831 44.9135C58.3203 44.9135 58.7836 44.8002 59.197 44.5988C59.3844 45.5201 59.9689 46.2967 60.761 46.7392L57.7925 49.7355ZM72.4634 36.6431C72.4634 37.3683 71.879 37.9584 71.1614 37.9584C70.4433 37.9584 69.8593 37.3683 69.8593 36.6431V26.2744C69.8593 25.7612 69.4464 25.3448 68.9364 25.3448C68.4264 25.3448 68.0136 25.7612 68.0136 26.2744V41.7395C68.0136 42.4648 67.4296 43.0544 66.7115 43.0544C66.0669 43.0544 65.532 42.579 65.4286 41.9569V26.2637C65.4286 25.7501 65.0157 25.3342 64.5058 25.3342C64.3419 25.3342 64.1876 25.3778 64.054 25.4533C63.7622 25.6097 63.5637 25.9185 63.5637 26.2744V41.739C63.5637 41.8572 63.5704 41.9729 63.5829 42.0876V43.9607C63.5829 44.686 62.9989 45.2761 62.2808 45.2761C61.5632 45.2761 60.9792 44.686 60.9792 43.9607V26.2526C60.9792 25.7394 60.5659 25.3231 60.0564 25.3231C59.5464 25.3231 59.133 25.7394 59.133 26.2526V41.739C59.133 42.4643 58.549 43.0544 57.8314 43.0544C57.1133 43.0544 56.5294 42.4643 56.5294 41.739V24.4482C56.5294 23.9346 56.116 23.5182 55.6065 23.5182C55.0965 23.5182 54.6836 23.9346 54.6836 24.4482V27.6464C54.6063 27.6716 54.5313 27.7069 54.4616 27.7534C53.2681 27.3017 52.4164 26.1388 52.4164 24.7784V18.7815C52.4164 17.8689 52.7687 17.011 53.408 16.3656L55.2686 14.4882C56.3188 13.4289 56.897 12.0205 56.897 10.5221V10.1145H58.7524C59.2623 10.1145 59.6752 9.69815 59.6752 9.18497C59.6752 8.6713 59.2623 8.25543 58.7524 8.25543H54.9091C54.8509 8.25543 54.8038 8.20751 54.8038 8.14893V1.96558C54.8038 1.907 54.8509 1.85907 54.9091 1.85907H72.1472C72.2058 1.85907 72.2529 1.907 72.2529 1.96558V8.14893C72.2529 8.20799 72.2058 8.25543 72.1472 8.25543H63.085C62.5755 8.25543 62.1621 8.6713 62.1621 9.18497C62.1621 9.69815 62.5755 10.1145 63.085 10.1145H70.2385V10.8935C70.2385 12.2568 70.7292 13.5712 71.6209 14.5956C72.164 15.2192 72.4634 16.02 72.4634 16.8502V36.6431ZM94.124 47.8101L81.9337 60.1099C81.9135 60.1308 81.889 60.1409 81.8602 60.1409C81.8318 60.1409 81.8073 60.1308 81.7866 60.1099L77.4545 55.7387C77.4127 55.6966 77.4127 55.6283 77.4545 55.5862L78.152 54.8823L89.6448 43.2863C89.6852 43.2452 89.751 43.2452 89.7914 43.2863L94.124 47.6576C94.1658 47.6997 94.1658 47.7679 94.124 47.8101Z" fill="black"/>
<path d="M57.8309 4.06574C57.2892 4.06574 56.8485 4.51066 56.8485 5.05725C56.8485 5.60432 57.2892 6.04875 57.8309 6.04875C58.3731 6.04875 58.8138 5.60432 58.8138 5.05725C58.8138 4.51066 58.3731 4.06574 57.8309 4.06574Z" fill="black"/>
<path d="M90.0201 46.438C89.4779 46.438 89.0372 46.8829 89.0372 47.4295C89.0372 47.976 89.4779 48.421 90.0201 48.421C90.5618 48.421 91.0026 47.976 91.0026 47.4295C91.0026 46.8829 90.5618 46.438 90.0201 46.438Z" fill="black"/>
<path d="M48.3789 55.9211C48.3789 55.3745 47.9382 54.9296 47.3965 54.9296C46.8543 54.9296 46.4135 55.3745 46.4135 55.9211C46.4135 56.4677 46.8543 56.9126 47.3965 56.9126C47.9382 56.9126 48.3789 56.4677 48.3789 55.9211Z" fill="black"/>
</svg>
