<svg width="512" height="106" viewBox="0 0 512 106" fill="none" xmlns="http://www.w3.org/2000/svg">
<path d="M149.413 31.1595C144.544 31.2814 135.774 31.5497 129.91 31.7691C104.271 32.6715 103.128 32.6959 74.8049 32.3788C53.5129 32.135 45.4881 32.1106 38.4322 32.3544C21.4633 32.8909 12.6186 33.8664 6.87945 35.8418C-2.66091 39.1096 -2.23855 44.6942 7.89808 49.6935C11.3267 51.3762 17.0658 53.2784 21.6372 54.2051C23.426 54.5709 25.0161 54.9123 25.19 54.9611C25.3888 55.0099 25.4881 55.5952 25.4881 56.717V58.3997H20.0968C15.3266 58.3997 14.4322 58.4728 12.6931 58.9362C8.71796 59.9848 7.87324 61.4724 8.9664 65.545C9.43845 67.3253 9.53783 69.008 9.2397 69.9834L9.04094 70.6663H13.7117C23.9478 70.6663 36.8173 71.8856 46.2335 73.739L49.4384 74.3731L92.9415 74.1048C116.842 73.9585 154.656 73.7146 176.917 73.5683C208.122 73.3488 224.246 73.3488 247.227 73.5683C263.625 73.739 278.78 73.9097 280.892 73.9829C283.003 74.0317 284.643 74.0317 284.494 73.9829C284.047 73.7634 252.867 72.8367 230.581 72.3734C213.587 72.0076 172.494 71.8369 158.035 72.0563C151.078 72.1783 145.339 72.2514 145.289 72.227C145.24 72.2027 145.339 71.9588 145.513 71.6905C145.761 71.3003 145.761 71.1052 145.538 70.837C145.19 70.4468 145.563 70.398 154.681 69.8127C171.128 68.7153 189.24 68.7885 222.134 70.0566C248.395 71.0565 256.718 71.2272 270.954 71.0565C278.258 70.9833 285.612 70.837 287.302 70.7638L290.333 70.5931V72.3246C290.333 73.9341 290.382 74.0805 290.904 74.178C291.202 74.2268 296.544 74.3975 302.755 74.5682C313.538 74.8121 323.475 75.1779 338.531 75.8119C344.643 76.0802 345.711 76.0802 348.742 75.69C350.606 75.4705 353.388 74.9584 354.954 74.5926C358.034 73.8122 362.134 72.4221 362.134 72.1539C362.134 71.6661 336.072 69.3006 320.27 68.3739C298.854 67.0814 281.289 66.4961 239.401 65.6426C228.817 65.4475 217.016 65.1792 213.19 65.0817L206.233 64.911L213.19 64.7159C221.587 64.472 253.115 64.6915 259.525 65.0329C262.059 65.1792 265.736 65.3987 267.724 65.545C276.37 66.1303 289.339 66.5937 309.339 67.0082C330.979 67.4716 342.084 67.8618 352.941 68.5934C358.01 68.9348 364.693 69.5445 366.606 69.8127C367.326 69.9347 367.972 69.6908 370.556 68.3008C375.351 65.7401 378.333 62.6918 378.929 59.7409C379.5 56.9608 376.593 53.8881 371.525 51.9127C369.637 51.1567 369.612 51.1567 364.643 51.1567H359.674L359.401 50.1569C359.103 49.1326 359.351 47.2792 359.923 46.2306C360.072 45.9623 360.146 45.7185 360.097 45.6697C360.022 45.5965 346.457 45.0112 320.767 43.9626L306.854 43.4017L319.401 43.5236C326.308 43.5968 338.382 43.7187 346.233 43.8163C362.084 44.0114 361.14 44.1089 361.14 42.4018C361.14 40.5241 359.699 39.3535 356.146 38.2805C352.916 37.305 350.159 37.1587 338.034 37.4025C320.569 37.7439 314.68 37.6708 308.221 37.0611C295.972 35.9149 282.059 35.1833 257.538 34.4517C236.693 33.8176 230.084 33.5982 221.637 33.2324C213.513 32.8666 210.78 32.6959 200.395 32.013C186.805 31.1107 166.184 30.7693 149.413 31.1595ZM230.035 40.1095C229.712 40.1582 229.165 40.1582 228.792 40.1095C228.395 40.0607 228.668 40.0119 229.339 40.0119C230.035 40.0119 230.333 40.0607 230.035 40.1095ZM238.904 40.5484C244.171 40.8655 251.873 41.2557 272.569 42.2555C279.277 42.5726 279.351 42.5969 274.432 42.475C263.128 42.2311 234.258 40.7679 231.575 40.329C230.333 40.1339 233.562 40.207 238.904 40.5484ZM283.575 42.792C283.326 42.8408 282.879 42.8408 282.581 42.792C282.258 42.7433 282.457 42.6945 283.003 42.6945C283.55 42.6701 283.798 42.7189 283.575 42.792ZM285.289 42.7676C285.215 42.8408 284.991 42.8652 284.817 42.792C284.618 42.7189 284.693 42.6457 284.966 42.6457C285.239 42.6213 285.389 42.6945 285.289 42.7676Z" fill="#7978F8"/>
<path d="M285.438 74.0073C285.662 74.0561 286.01 74.0561 286.184 74.0073C286.333 73.9341 286.159 73.8854 285.736 73.8854C285.339 73.8854 285.19 73.9341 285.438 74.0073Z" fill="#7978F8"/>
<path d="M131.584 36.908C134.32 36.908 136.684 37.424 138.676 38.456C140.692 39.464 142.228 40.916 143.284 42.812C144.364 44.708 144.904 46.94 144.904 49.508C144.904 52.076 144.364 54.308 143.284 56.204C142.228 58.076 140.692 59.516 138.676 60.524C136.684 61.508 134.32 62 131.584 62H123.772V36.908H131.584ZM131.584 59.3C134.824 59.3 137.296 58.448 139 56.744C140.704 55.016 141.556 52.604 141.556 49.508C141.556 46.388 140.692 43.952 138.964 42.2C137.26 40.448 134.8 39.572 131.584 39.572H127.048V59.3H131.584ZM148.001 52.064C148.001 50.048 148.409 48.284 149.225 46.772C150.041 45.236 151.157 44.048 152.573 43.208C154.013 42.368 155.609 41.948 157.361 41.948C159.089 41.948 160.589 42.32 161.861 43.064C163.133 43.808 164.081 44.744 164.705 45.872V42.272H168.017V62H164.705V58.328C164.057 59.48 163.085 60.44 161.789 61.208C160.517 61.952 159.029 62.324 157.325 62.324C155.573 62.324 153.989 61.892 152.573 61.028C151.157 60.164 150.041 58.952 149.225 57.392C148.409 55.832 148.001 54.056 148.001 52.064ZM164.705 52.1C164.705 50.612 164.405 49.316 163.805 48.212C163.205 47.108 162.389 46.268 161.357 45.692C160.349 45.092 159.233 44.792 158.009 44.792C156.785 44.792 155.669 45.08 154.661 45.656C153.653 46.232 152.849 47.072 152.249 48.176C151.649 49.28 151.349 50.576 151.349 52.064C151.349 53.576 151.649 54.896 152.249 56.024C152.849 57.128 153.653 57.98 154.661 58.58C155.669 59.156 156.785 59.444 158.009 59.444C159.233 59.444 160.349 59.156 161.357 58.58C162.389 57.98 163.205 57.128 163.805 56.024C164.405 54.896 164.705 53.588 164.705 52.1ZM177.549 44.972V56.6C177.549 57.56 177.753 58.244 178.161 58.652C178.569 59.036 179.277 59.228 180.285 59.228H182.697V62H179.745C177.921 62 176.553 61.58 175.641 60.74C174.729 59.9 174.273 58.52 174.273 56.6V44.972H171.717V42.272H174.273V37.304H177.549V42.272H182.697V44.972H177.549ZM185.443 52.064C185.443 50.048 185.851 48.284 186.667 46.772C187.483 45.236 188.599 44.048 190.015 43.208C191.455 42.368 193.051 41.948 194.803 41.948C196.531 41.948 198.031 42.32 199.303 43.064C200.575 43.808 201.523 44.744 202.147 45.872V42.272H205.459V62H202.147V58.328C201.499 59.48 200.527 60.44 199.231 61.208C197.959 61.952 196.471 62.324 194.767 62.324C193.015 62.324 191.431 61.892 190.015 61.028C188.599 60.164 187.483 58.952 186.667 57.392C185.851 55.832 185.443 54.056 185.443 52.064ZM202.147 52.1C202.147 50.612 201.847 49.316 201.247 48.212C200.647 47.108 199.831 46.268 198.799 45.692C197.791 45.092 196.675 44.792 195.451 44.792C194.227 44.792 193.111 45.08 192.103 45.656C191.095 46.232 190.291 47.072 189.691 48.176C189.091 49.28 188.791 50.576 188.791 52.064C188.791 53.576 189.091 54.896 189.691 56.024C190.291 57.128 191.095 57.98 192.103 58.58C193.111 59.156 194.227 59.444 195.451 59.444C196.675 59.444 197.791 59.156 198.799 58.58C199.831 57.98 200.647 57.128 201.247 56.024C201.847 54.896 202.147 53.588 202.147 52.1ZM217.979 62.324C216.467 62.324 215.111 62.072 213.911 61.568C212.711 61.04 211.763 60.32 211.067 59.408C210.371 58.472 209.987 57.404 209.915 56.204H213.299C213.395 57.188 213.851 57.992 214.667 58.616C215.507 59.24 216.599 59.552 217.943 59.552C219.191 59.552 220.175 59.276 220.895 58.724C221.615 58.172 221.975 57.476 221.975 56.636C221.975 55.772 221.591 55.136 220.823 54.728C220.055 54.296 218.867 53.876 217.259 53.468C215.795 53.084 214.595 52.7 213.659 52.316C212.747 51.908 211.955 51.32 211.283 50.552C210.635 49.76 210.311 48.728 210.311 47.456C210.311 46.448 210.611 45.524 211.211 44.684C211.811 43.844 212.663 43.184 213.767 42.704C214.871 42.2 216.131 41.948 217.547 41.948C219.731 41.948 221.495 42.5 222.839 43.604C224.183 44.708 224.903 46.22 224.999 48.14H221.723C221.651 47.108 221.231 46.28 220.463 45.656C219.719 45.032 218.711 44.72 217.439 44.72C216.263 44.72 215.327 44.972 214.631 45.476C213.935 45.98 213.587 46.64 213.587 47.456C213.587 48.104 213.791 48.644 214.199 49.076C214.631 49.484 215.159 49.82 215.783 50.084C216.431 50.324 217.319 50.6 218.447 50.912C219.863 51.296 221.015 51.68 221.903 52.064C222.791 52.424 223.547 52.976 224.171 53.72C224.819 54.464 225.155 55.436 225.179 56.636C225.179 57.716 224.879 58.688 224.279 59.552C223.679 60.416 222.827 61.1 221.723 61.604C220.643 62.084 219.395 62.324 217.979 62.324Z" fill="black"/>
<path d="M96.9453 5.32812H91.1731V3.63281C91.1731 1.62968 89.5435 0 87.5403 0C85.5372 0 83.9075 1.62968 83.9075 3.63281V5.32812H63.5638V3.63281C63.5638 1.62968 61.9341 0 59.9309 0C57.9278 0 56.2981 1.62968 56.2981 3.63281V5.37293C56.1952 5.34447 56.0873 5.32812 55.9753 5.32812H51.1504C47.8119 5.32812 45.0958 8.04426 45.0958 11.3828V32.0091C45.0958 32.6779 45.638 33.22 46.3067 33.22C46.9754 33.22 47.5176 32.6779 47.5176 32.0091V17.8008H91.1731C91.8418 17.8008 92.3841 17.2586 92.3841 16.5898C92.3841 15.921 91.8418 15.3789 91.1731 15.3789H47.5176V11.3828C47.5176 9.37968 49.1473 7.75 51.1504 7.75H55.9753C56.0873 7.75 56.1952 7.73353 56.2981 7.7052V9.26367C56.2981 11.2668 57.9278 12.8965 59.9309 12.8965C61.9341 12.8965 63.5638 11.2668 63.5638 9.26367V7.75H83.9075V9.26367C83.9075 11.2668 85.5372 12.8965 87.5403 12.8965C89.5435 12.8965 91.1731 11.2668 91.1731 9.26367V7.75H96.9453C98.9484 7.75 100.578 9.37968 100.578 11.3828V57.3977C100.578 58.5999 99.6 59.5781 98.3977 59.5781C97.1954 59.5781 96.2173 58.5999 96.2173 57.3977V54.2651C96.2173 53.5963 95.675 53.0542 95.0064 53.0542H80.9206C80.2519 53.0542 79.7097 53.5963 79.7097 54.2651C79.7097 54.9339 80.2519 55.4761 80.9206 55.4761H93.7954V57.3977C93.7954 58.1861 93.995 58.9287 94.3458 59.5781H45.6016C44.3997 59.5781 43.4219 58.6003 43.4219 57.3984V55.4761H70.5257C71.1944 55.4761 71.7366 54.9339 71.7366 54.2651C71.7366 53.5963 71.1944 53.0542 70.5257 53.0542H58.4265C60.5425 51.2319 61.8861 48.5363 61.8861 45.5312C61.8861 40.056 57.4317 35.6016 51.9564 35.6016C46.4812 35.6016 42.0268 40.056 42.0268 45.5312C42.0268 48.5363 43.3704 51.2319 45.4864 53.0542H42.2109C41.5423 53.0542 41 53.5963 41 54.2651V57.3984C41 59.9357 43.0643 62 45.6016 62H98.3977C100.935 62 103 59.9355 103 57.3977V11.3828C103 8.04426 100.284 5.32812 96.9453 5.32812ZM61.1419 9.26367C61.1419 9.93138 60.5987 10.4746 59.9309 10.4746C59.2632 10.4746 58.72 9.93138 58.72 9.26367V3.63281C58.72 2.9651 59.2632 2.42188 59.9309 2.42188C60.5987 2.42188 61.1419 2.9651 61.1419 3.63281V9.26367ZM88.7513 9.26367C88.7513 9.93138 88.208 10.4746 87.5403 10.4746C86.8726 10.4746 86.3294 9.93138 86.3294 9.26367V3.63281C86.3294 2.9651 86.8726 2.42188 87.5403 2.42188C88.208 2.42188 88.7513 2.9651 88.7513 3.63281V9.26367ZM44.4486 45.5312C44.4486 41.3914 47.8166 38.0234 51.9564 38.0234C56.0963 38.0234 59.4643 41.3914 59.4643 45.5312C59.4643 49.6711 56.0963 53.0391 51.9564 53.0391C47.8166 53.0391 44.4486 49.6711 44.4486 45.5312Z" fill="black"/>
<path d="M97.7093 15.7337C97.4842 15.5085 97.1718 15.3789 96.8533 15.3789C96.5347 15.3789 96.2224 15.5085 95.9972 15.7337C95.7719 15.9589 95.6423 16.2714 95.6423 16.5898C95.6423 16.9083 95.7718 17.2207 95.9972 17.446C96.2225 17.6712 96.5347 17.8008 96.8533 17.8008C97.1718 17.8008 97.4842 17.6712 97.7093 17.446C97.9345 17.2207 98.0642 16.9083 98.0642 16.5898C98.0642 16.2714 97.9346 15.9589 97.7093 15.7337Z" fill="black"/>
<path d="M77.1645 53.4084C76.9394 53.1832 76.627 53.0548 76.3085 53.0548C75.99 53.0548 75.6776 53.1832 75.4524 53.4084C75.2271 53.6348 75.0976 53.9461 75.0976 54.2645C75.0976 54.5842 75.227 54.8954 75.4524 55.1219C75.6776 55.3471 75.99 55.4755 76.3085 55.4755C76.627 55.4755 76.9394 55.3471 77.1645 55.1219C77.3898 54.8954 77.5195 54.583 77.5195 54.2645C77.5195 53.9461 77.3899 53.6348 77.1645 53.4084Z" fill="black"/>
<path d="M68.3969 36.8125C65.8596 36.8125 63.7953 38.8768 63.7953 41.4141C63.7953 43.9513 65.8596 46.0156 68.3969 46.0156C70.9341 46.0156 72.9984 43.9513 72.9984 41.4141C72.9984 38.8768 70.9341 36.8125 68.3969 36.8125ZM68.3969 43.5938C67.195 43.5938 66.2172 42.6159 66.2172 41.4141C66.2172 40.2122 67.195 39.2344 68.3969 39.2344C69.5987 39.2344 70.5765 40.2122 70.5765 41.4141C70.5765 42.6159 69.5987 43.5938 68.3969 43.5938Z" fill="black"/>
<path d="M79.6989 36.8125C77.1616 36.8125 75.0973 38.8768 75.0973 41.4141C75.0973 43.9513 77.1616 46.0156 79.6989 46.0156C82.2362 46.0156 84.3005 43.9513 84.3005 41.4141C84.3005 38.8768 82.2362 36.8125 79.6989 36.8125ZM79.6989 43.5938C78.497 43.5938 77.5192 42.6159 77.5192 41.4141C77.5192 40.2122 78.497 39.2344 79.6989 39.2344C80.9008 39.2344 81.8786 40.2122 81.8786 41.4141C81.8786 42.6159 80.9008 43.5938 79.6989 43.5938Z" fill="black"/>
<path d="M91.0011 36.8125C88.4638 36.8125 86.3995 38.8768 86.3995 41.4141C86.3995 43.9513 88.4638 46.0156 91.0011 46.0156C93.5383 46.0156 95.6026 43.9513 95.6026 41.4141C95.6026 38.8768 93.5383 36.8125 91.0011 36.8125ZM91.0011 43.5938C89.7992 43.5938 88.8214 42.6159 88.8214 41.4141C88.8214 40.2122 89.7992 39.2344 91.0011 39.2344C92.2029 39.2344 93.1807 40.2122 93.1807 41.4141C93.1807 42.6159 92.2029 43.5938 91.0011 43.5938Z" fill="black"/>
<path d="M57.0948 24.2188C54.5575 24.2188 52.4932 26.283 52.4932 28.8203C52.4932 31.3576 54.5575 33.4219 57.0948 33.4219C59.6321 33.4219 61.6964 31.3576 61.6964 28.8203C61.6964 26.283 59.6321 24.2188 57.0948 24.2188ZM57.0948 31C55.893 31 54.9151 30.0222 54.9151 28.8203C54.9151 27.6185 55.893 26.6406 57.0948 26.6406C58.2967 26.6406 59.2745 27.6185 59.2745 28.8203C59.2745 30.0222 58.2967 31 57.0948 31Z" fill="black"/>
<path d="M79.6989 24.2188C77.1616 24.2188 75.0973 26.283 75.0973 28.8203C75.0973 31.3576 77.1616 33.4219 79.6989 33.4219C82.2362 33.4219 84.3005 31.3576 84.3005 28.8203C84.3005 26.283 82.2362 24.2188 79.6989 24.2188ZM79.6989 31C78.497 31 77.5192 30.0222 77.5192 28.8203C77.5192 27.6185 78.497 26.6406 79.6989 26.6406C80.9008 26.6406 81.8786 27.6185 81.8786 28.8203C81.8786 30.0222 80.9008 31 79.6989 31Z" fill="black"/>
<path d="M91.0011 24.2188C88.4638 24.2188 86.3995 26.283 86.3995 28.8203C86.3995 31.3576 88.4638 33.4219 91.0011 33.4219C93.5383 33.4219 95.6026 31.3576 95.6026 28.8203C95.6026 26.283 93.5383 24.2188 91.0011 24.2188ZM91.0011 31C89.7992 31 88.8214 30.0222 88.8214 28.8203C88.8214 27.6185 89.7992 26.6406 91.0011 26.6406C92.2029 26.6406 93.1807 27.6185 93.1807 28.8203C93.1807 30.0222 92.2029 31 91.0011 31Z" fill="black"/>
<path d="M68.3969 24.2188C65.8596 24.2188 63.7953 26.283 63.7953 28.8203C63.7953 31.3576 65.8596 33.4219 68.3969 33.4219C70.9341 33.4219 72.9984 31.3576 72.9984 28.8203C72.9984 26.283 70.9341 24.2188 68.3969 24.2188ZM68.3969 31C67.195 31 66.2172 30.0222 66.2172 28.8203C66.2172 27.6185 67.195 26.6406 68.3969 26.6406C69.5987 26.6406 70.5765 27.6185 70.5765 28.8203C70.5765 30.0222 69.5987 31 68.3969 31Z" fill="black"/>
<path d="M56.2704 42.5801C55.7974 42.1072 55.0309 42.1072 54.5578 42.5801L50.6142 46.5237L49.2666 45.1761C48.7936 44.7032 48.0271 44.7032 47.554 45.1761C47.0811 45.649 47.0811 46.4157 47.554 46.8887L49.758 49.0925C49.9852 49.3195 50.2931 49.4472 50.6142 49.4472C50.9354 49.4472 51.2433 49.3195 51.4705 49.0925L56.2704 44.2926C56.7433 43.8197 56.7433 43.0529 56.2704 42.5801Z" fill="black"/>
</svg>
