<svg width="734" height="192" viewBox="0 0 734 192" fill="none" xmlns="http://www.w3.org/2000/svg">
<path d="M422.971 53V27.4062H430.195C432.422 27.4062 434.391 27.8984 436.102 28.8828C437.812 29.8672 439.131 31.2676 440.057 33.084C440.994 34.9004 441.469 36.9863 441.48 39.3418V40.9766C441.48 43.3906 441.012 45.5059 440.074 47.3223C439.148 49.1387 437.818 50.5332 436.084 51.5059C434.361 52.4785 432.352 52.9766 430.055 53H422.971ZM426.346 30.1836V50.2402H429.896C432.498 50.2402 434.52 49.4316 435.961 47.8145C437.414 46.1973 438.141 43.8945 438.141 40.9062V39.4121C438.141 36.5059 437.455 34.25 436.084 32.6445C434.725 31.0273 432.791 30.207 430.283 30.1836H426.346ZM453.979 53.3516C451.4 53.3516 449.303 52.5078 447.686 50.8203C446.068 49.1211 445.26 46.8535 445.26 44.0176V43.4199C445.26 41.5332 445.617 39.8516 446.332 38.375C447.059 36.8867 448.066 35.7266 449.355 34.8945C450.656 34.0508 452.062 33.6289 453.574 33.6289C456.047 33.6289 457.969 34.4434 459.34 36.0723C460.711 37.7012 461.396 40.0332 461.396 43.0684V44.4219H448.512C448.559 46.2969 449.104 47.8145 450.146 48.9746C451.201 50.123 452.537 50.6973 454.154 50.6973C455.303 50.6973 456.275 50.4629 457.072 49.9941C457.869 49.5254 458.566 48.9043 459.164 48.1309L461.15 49.6777C459.557 52.127 457.166 53.3516 453.979 53.3516ZM453.574 36.3008C452.262 36.3008 451.16 36.7812 450.27 37.7422C449.379 38.6914 448.828 40.0273 448.617 41.75H458.145V41.5039C458.051 39.8516 457.605 38.5742 456.809 37.6719C456.012 36.7578 454.934 36.3008 453.574 36.3008ZM476.25 47.9551C476.25 47.0762 475.916 46.3965 475.248 45.916C474.592 45.4238 473.438 45.002 471.785 44.6504C470.145 44.2988 468.838 43.877 467.865 43.3848C466.904 42.8926 466.189 42.3066 465.721 41.627C465.264 40.9473 465.035 40.1387 465.035 39.2012C465.035 37.6426 465.691 36.3242 467.004 35.2461C468.328 34.168 470.016 33.6289 472.066 33.6289C474.223 33.6289 475.969 34.1855 477.305 35.2988C478.652 36.4121 479.326 37.8359 479.326 39.5703H476.057C476.057 38.6797 475.676 37.9121 474.914 37.2676C474.164 36.623 473.215 36.3008 472.066 36.3008C470.883 36.3008 469.957 36.5586 469.289 37.0742C468.621 37.5898 468.287 38.2637 468.287 39.0957C468.287 39.8809 468.598 40.4727 469.219 40.8711C469.84 41.2695 470.959 41.6504 472.576 42.0137C474.205 42.377 475.523 42.8105 476.531 43.3145C477.539 43.8184 478.283 44.4277 478.764 45.1426C479.256 45.8457 479.502 46.707 479.502 47.7266C479.502 49.4258 478.822 50.791 477.463 51.8223C476.104 52.8418 474.34 53.3516 472.172 53.3516C470.648 53.3516 469.301 53.082 468.129 52.543C466.957 52.0039 466.037 51.2539 465.369 50.293C464.713 49.3203 464.385 48.2715 464.385 47.1465H467.637C467.695 48.2363 468.129 49.1035 468.938 49.748C469.758 50.3809 470.836 50.6973 472.172 50.6973C473.402 50.6973 474.387 50.4512 475.125 49.959C475.875 49.4551 476.25 48.7871 476.25 47.9551ZM495.48 53C495.293 52.625 495.141 51.957 495.023 50.9961C493.512 52.5664 491.707 53.3516 489.609 53.3516C487.734 53.3516 486.193 52.8242 484.986 51.7695C483.791 50.7031 483.193 49.3555 483.193 47.7266C483.193 45.7461 483.943 44.2109 485.443 43.1211C486.955 42.0195 489.076 41.4688 491.807 41.4688H494.971V39.9746C494.971 38.8379 494.631 37.9355 493.951 37.2676C493.271 36.5879 492.27 36.248 490.945 36.248C489.785 36.248 488.812 36.541 488.027 37.127C487.242 37.7129 486.85 38.4219 486.85 39.2539H483.58C483.58 38.3047 483.914 37.3906 484.582 36.5117C485.262 35.6211 486.176 34.918 487.324 34.4023C488.484 33.8867 489.756 33.6289 491.139 33.6289C493.33 33.6289 495.047 34.1797 496.289 35.2812C497.531 36.3711 498.176 37.877 498.223 39.7988V48.5527C498.223 50.2988 498.445 51.6875 498.891 52.7188V53H495.48ZM490.084 50.5215C491.104 50.5215 492.07 50.2578 492.984 49.7305C493.898 49.2031 494.561 48.5176 494.971 47.6738V43.7715H492.422C488.438 43.7715 486.445 44.9375 486.445 47.2695C486.445 48.2891 486.785 49.0859 487.465 49.6602C488.145 50.2344 489.018 50.5215 490.084 50.5215ZM504.41 53V36.4941H501.404V33.9805H504.41V32.3633C504.41 30.2422 505.014 28.5898 506.221 27.4062C507.439 26.2227 509.156 25.6309 511.371 25.6309C512.684 25.6309 514.342 25.9883 516.346 26.7031L515.801 29.4453C514.336 28.8594 512.941 28.5664 511.617 28.5664C510.223 28.5664 509.215 28.8828 508.594 29.5156C507.984 30.1367 507.68 31.0742 507.68 32.3281V33.9805H511.564V36.4941H507.68V53H504.41ZM517.963 53H514.693V33.9805H517.963V53ZM522.393 43.3145C522.393 41.4512 522.756 39.7754 523.482 38.2871C524.221 36.7988 525.24 35.6504 526.541 34.8418C527.854 34.0332 529.348 33.6289 531.023 33.6289C533.613 33.6289 535.705 34.5254 537.299 36.3184C538.904 38.1113 539.707 40.4961 539.707 43.4727V43.7012C539.707 45.5527 539.35 47.2168 538.635 48.6934C537.932 50.1582 536.918 51.3008 535.594 52.1211C534.281 52.9414 532.77 53.3516 531.059 53.3516C528.48 53.3516 526.389 52.4551 524.783 50.6621C523.189 48.8691 522.393 46.4961 522.393 43.543V43.3145ZM525.662 43.7012C525.662 45.8105 526.148 47.5039 527.121 48.7812C528.105 50.0586 529.418 50.6973 531.059 50.6973C532.711 50.6973 534.023 50.0527 534.996 48.7637C535.969 47.4629 536.455 45.6465 536.455 43.3145C536.455 41.2285 535.957 39.541 534.961 38.252C533.977 36.9512 532.664 36.3008 531.023 36.3008C529.418 36.3008 528.123 36.9395 527.139 38.2168C526.154 39.4941 525.662 41.3223 525.662 43.7012ZM422.971 95V69.4062H431.338C434.115 69.4062 436.201 69.9805 437.596 71.1289C439.002 72.2773 439.705 73.9766 439.705 76.2266C439.705 77.4219 439.365 78.4824 438.686 79.4082C438.006 80.3223 437.08 81.0312 435.908 81.5352C437.291 81.9219 438.381 82.6602 439.178 83.75C439.986 84.8281 440.391 86.1172 440.391 87.6172C440.391 89.9141 439.646 91.7188 438.158 93.0312C436.67 94.3438 434.566 95 431.848 95H422.971ZM426.346 83.0293V92.2402H431.918C433.488 92.2402 434.725 91.8359 435.627 91.0273C436.541 90.207 436.998 89.082 436.998 87.6523C436.998 84.5703 435.322 83.0293 431.971 83.0293H426.346ZM426.346 80.3223H431.443C432.92 80.3223 434.098 79.9531 434.977 79.2148C435.867 78.4766 436.312 77.4746 436.312 76.209C436.312 74.8027 435.902 73.7832 435.082 73.1504C434.262 72.5059 433.014 72.1836 431.338 72.1836H426.346V80.3223ZM454.084 78.8984C453.592 78.8164 453.059 78.7754 452.484 78.7754C450.352 78.7754 448.904 79.6836 448.143 81.5V95H444.891V75.9805H448.055L448.107 78.1777C449.174 76.4785 450.686 75.6289 452.643 75.6289C453.275 75.6289 453.756 75.7109 454.084 75.875V78.8984ZM468.129 95C467.941 94.625 467.789 93.957 467.672 92.9961C466.16 94.5664 464.355 95.3516 462.258 95.3516C460.383 95.3516 458.842 94.8242 457.635 93.7695C456.439 92.7031 455.842 91.3555 455.842 89.7266C455.842 87.7461 456.592 86.2109 458.092 85.1211C459.604 84.0195 461.725 83.4688 464.455 83.4688H467.619V81.9746C467.619 80.8379 467.279 79.9355 466.6 79.2676C465.92 78.5879 464.918 78.248 463.594 78.248C462.434 78.248 461.461 78.541 460.676 79.127C459.891 79.7129 459.498 80.4219 459.498 81.2539H456.229C456.229 80.3047 456.562 79.3906 457.23 78.5117C457.91 77.6211 458.824 76.918 459.973 76.4023C461.133 75.8867 462.404 75.6289 463.787 75.6289C465.979 75.6289 467.695 76.1797 468.938 77.2812C470.18 78.3711 470.824 79.877 470.871 81.7988V90.5527C470.871 92.2988 471.094 93.6875 471.539 94.7188V95H468.129ZM462.732 92.5215C463.752 92.5215 464.719 92.2578 465.633 91.7305C466.547 91.2031 467.209 90.5176 467.619 89.6738V85.7715H465.07C461.086 85.7715 459.094 86.9375 459.094 89.2695C459.094 90.2891 459.434 91.0859 460.113 91.6602C460.793 92.2344 461.666 92.5215 462.732 92.5215ZM487.043 89.9551C487.043 89.0762 486.709 88.3965 486.041 87.916C485.385 87.4238 484.23 87.002 482.578 86.6504C480.938 86.2988 479.631 85.877 478.658 85.3848C477.697 84.8926 476.982 84.3066 476.514 83.627C476.057 82.9473 475.828 82.1387 475.828 81.2012C475.828 79.6426 476.484 78.3242 477.797 77.2461C479.121 76.168 480.809 75.6289 482.859 75.6289C485.016 75.6289 486.762 76.1855 488.098 77.2988C489.445 78.4121 490.119 79.8359 490.119 81.5703H486.85C486.85 80.6797 486.469 79.9121 485.707 79.2676C484.957 78.623 484.008 78.3008 482.859 78.3008C481.676 78.3008 480.75 78.5586 480.082 79.0742C479.414 79.5898 479.08 80.2637 479.08 81.0957C479.08 81.8809 479.391 82.4727 480.012 82.8711C480.633 83.2695 481.752 83.6504 483.369 84.0137C484.998 84.377 486.316 84.8105 487.324 85.3145C488.332 85.8184 489.076 86.4277 489.557 87.1426C490.049 87.8457 490.295 88.707 490.295 89.7266C490.295 91.4258 489.615 92.791 488.256 93.8223C486.896 94.8418 485.133 95.3516 482.965 95.3516C481.441 95.3516 480.094 95.082 478.922 94.543C477.75 94.0039 476.83 93.2539 476.162 92.293C475.506 91.3203 475.178 90.2715 475.178 89.1465H478.43C478.488 90.2363 478.922 91.1035 479.73 91.748C480.551 92.3809 481.629 92.6973 482.965 92.6973C484.195 92.6973 485.18 92.4512 485.918 91.959C486.668 91.4551 487.043 90.7871 487.043 89.9551ZM498.064 95H494.812V75.9805H498.064V95ZM494.549 70.9355C494.549 70.4082 494.707 69.9629 495.023 69.5996C495.352 69.2363 495.832 69.0547 496.465 69.0547C497.098 69.0547 497.578 69.2363 497.906 69.5996C498.234 69.9629 498.398 70.4082 498.398 70.9355C498.398 71.4629 498.234 71.9023 497.906 72.2539C497.578 72.6055 497.098 72.7812 496.465 72.7812C495.832 72.7812 495.352 72.6055 495.023 72.2539C494.707 71.9023 494.549 71.4629 494.549 70.9355ZM506.818 95H503.566V68H506.818V95ZM519.932 95.3516C517.354 95.3516 515.256 94.5078 513.639 92.8203C512.021 91.1211 511.213 88.8535 511.213 86.0176V85.4199C511.213 83.5332 511.57 81.8516 512.285 80.375C513.012 78.8867 514.02 77.7266 515.309 76.8945C516.609 76.0508 518.016 75.6289 519.527 75.6289C522 75.6289 523.922 76.4434 525.293 78.0723C526.664 79.7012 527.35 82.0332 527.35 85.0684V86.4219H514.465C514.512 88.2969 515.057 89.8145 516.1 90.9746C517.154 92.123 518.49 92.6973 520.107 92.6973C521.256 92.6973 522.229 92.4629 523.025 91.9941C523.822 91.5254 524.52 90.9043 525.117 90.1309L527.104 91.6777C525.51 94.127 523.119 95.3516 519.932 95.3516ZM519.527 78.3008C518.215 78.3008 517.113 78.7812 516.223 79.7422C515.332 80.6914 514.781 82.0273 514.57 83.75H524.098V83.5039C524.004 81.8516 523.559 80.5742 522.762 79.6719C521.965 78.7578 520.887 78.3008 519.527 78.3008ZM534.662 95H531.41V75.9805H534.662V95ZM531.146 70.9355C531.146 70.4082 531.305 69.9629 531.621 69.5996C531.949 69.2363 532.43 69.0547 533.062 69.0547C533.695 69.0547 534.176 69.2363 534.504 69.5996C534.832 69.9629 534.996 70.4082 534.996 70.9355C534.996 71.4629 534.832 71.9023 534.504 72.2539C534.176 72.6055 533.695 72.7812 533.062 72.7812C532.43 72.7812 531.949 72.6055 531.621 72.2539C531.305 71.9023 531.146 71.4629 531.146 70.9355ZM549.076 78.8984C548.584 78.8164 548.051 78.7754 547.477 78.7754C545.344 78.7754 543.896 79.6836 543.135 81.5V95H539.883V75.9805H543.047L543.1 78.1777C544.166 76.4785 545.678 75.6289 547.635 75.6289C548.268 75.6289 548.748 75.7109 549.076 75.875V78.8984ZM550.869 85.3145C550.869 83.4512 551.232 81.7754 551.959 80.2871C552.697 78.7988 553.717 77.6504 555.018 76.8418C556.33 76.0332 557.824 75.6289 559.5 75.6289C562.09 75.6289 564.182 76.5254 565.775 78.3184C567.381 80.1113 568.184 82.4961 568.184 85.4727V85.7012C568.184 87.5527 567.826 89.2168 567.111 90.6934C566.408 92.1582 565.395 93.3008 564.07 94.1211C562.758 94.9414 561.246 95.3516 559.535 95.3516C556.957 95.3516 554.865 94.4551 553.26 92.6621C551.666 90.8691 550.869 88.4961 550.869 85.543V85.3145ZM554.139 85.7012C554.139 87.8105 554.625 89.5039 555.598 90.7812C556.582 92.0586 557.895 92.6973 559.535 92.6973C561.188 92.6973 562.5 92.0527 563.473 90.7637C564.445 89.4629 564.932 87.6465 564.932 85.3145C564.932 83.2285 564.434 81.541 563.438 80.252C562.453 78.9512 561.141 78.3008 559.5 78.3008C557.895 78.3008 556.6 78.9395 555.615 80.2168C554.631 81.4941 554.139 83.3223 554.139 85.7012ZM421.67 127.332C421.67 124.414 422.361 122.07 423.744 120.301C425.127 118.52 426.938 117.629 429.176 117.629C431.402 117.629 433.166 118.391 434.467 119.914V110H437.719V137H434.73L434.572 134.961C433.271 136.555 431.461 137.352 429.141 137.352C426.938 137.352 425.139 136.449 423.744 134.645C422.361 132.84 421.67 130.484 421.67 127.578V127.332ZM424.922 127.701C424.922 129.857 425.367 131.545 426.258 132.764C427.148 133.982 428.379 134.592 429.949 134.592C432.012 134.592 433.518 133.666 434.467 131.814V123.078C433.494 121.285 432 120.389 429.984 120.389C428.391 120.389 427.148 121.004 426.258 122.234C425.367 123.465 424.922 125.287 424.922 127.701ZM450.674 137.352C448.096 137.352 445.998 136.508 444.381 134.82C442.764 133.121 441.955 130.854 441.955 128.018V127.42C441.955 125.533 442.312 123.852 443.027 122.375C443.754 120.887 444.762 119.727 446.051 118.895C447.352 118.051 448.758 117.629 450.27 117.629C452.742 117.629 454.664 118.443 456.035 120.072C457.406 121.701 458.092 124.033 458.092 127.068V128.422H445.207C445.254 130.297 445.799 131.814 446.842 132.975C447.896 134.123 449.232 134.697 450.85 134.697C451.998 134.697 452.971 134.463 453.768 133.994C454.564 133.525 455.262 132.904 455.859 132.131L457.846 133.678C456.252 136.127 453.861 137.352 450.674 137.352ZM450.27 120.301C448.957 120.301 447.855 120.781 446.965 121.742C446.074 122.691 445.523 124.027 445.312 125.75H454.84V125.504C454.746 123.852 454.301 122.574 453.504 121.672C452.707 120.758 451.629 120.301 450.27 120.301ZM475.67 111.406L484.037 132.289L492.404 111.406H496.781V137H493.406V127.033L493.723 116.275L485.32 137H482.736L474.352 116.328L474.686 127.033V137H471.311V111.406H475.67ZM513.973 137C513.785 136.625 513.633 135.957 513.516 134.996C512.004 136.566 510.199 137.352 508.102 137.352C506.227 137.352 504.686 136.824 503.479 135.77C502.283 134.703 501.686 133.355 501.686 131.727C501.686 129.746 502.436 128.211 503.936 127.121C505.447 126.02 507.568 125.469 510.299 125.469H513.463V123.975C513.463 122.838 513.123 121.936 512.443 121.268C511.764 120.588 510.762 120.248 509.438 120.248C508.277 120.248 507.305 120.541 506.52 121.127C505.734 121.713 505.342 122.422 505.342 123.254H502.072C502.072 122.305 502.406 121.391 503.074 120.512C503.754 119.621 504.668 118.918 505.816 118.402C506.977 117.887 508.248 117.629 509.631 117.629C511.822 117.629 513.539 118.18 514.781 119.281C516.023 120.371 516.668 121.877 516.715 123.799V132.553C516.715 134.299 516.938 135.688 517.383 136.719V137H513.973ZM508.576 134.521C509.596 134.521 510.562 134.258 511.477 133.73C512.391 133.203 513.053 132.518 513.463 131.674V127.771H510.914C506.93 127.771 504.938 128.938 504.938 131.27C504.938 132.289 505.277 133.086 505.957 133.66C506.637 134.234 507.51 134.521 508.576 134.521ZM526.225 113.375V117.98H529.775V120.494H526.225V132.289C526.225 133.051 526.383 133.625 526.699 134.012C527.016 134.387 527.555 134.574 528.316 134.574C528.691 134.574 529.207 134.504 529.863 134.363V137C529.008 137.234 528.176 137.352 527.367 137.352C525.914 137.352 524.818 136.912 524.08 136.033C523.342 135.154 522.973 133.906 522.973 132.289V120.494H519.51V117.98H522.973V113.375H526.225ZM541.482 137.352C538.904 137.352 536.807 136.508 535.189 134.82C533.572 133.121 532.764 130.854 532.764 128.018V127.42C532.764 125.533 533.121 123.852 533.836 122.375C534.562 120.887 535.57 119.727 536.859 118.895C538.16 118.051 539.566 117.629 541.078 117.629C543.551 117.629 545.473 118.443 546.844 120.072C548.215 121.701 548.9 124.033 548.9 127.068V128.422H536.016C536.062 130.297 536.607 131.814 537.65 132.975C538.705 134.123 540.041 134.697 541.658 134.697C542.807 134.697 543.779 134.463 544.576 133.994C545.373 133.525 546.07 132.904 546.668 132.131L548.654 133.678C547.061 136.127 544.67 137.352 541.482 137.352ZM541.078 120.301C539.766 120.301 538.664 120.781 537.773 121.742C536.883 122.691 536.332 124.027 536.121 125.75H545.648V125.504C545.555 123.852 545.109 122.574 544.312 121.672C543.516 120.758 542.438 120.301 541.078 120.301ZM555.738 117.98L555.826 120.09C557.221 118.449 559.102 117.629 561.469 117.629C564.129 117.629 565.939 118.648 566.9 120.688C567.533 119.773 568.354 119.035 569.361 118.473C570.381 117.91 571.582 117.629 572.965 117.629C577.137 117.629 579.258 119.838 579.328 124.256V137H576.076V124.449C576.076 123.09 575.766 122.076 575.145 121.408C574.523 120.729 573.48 120.389 572.016 120.389C570.809 120.389 569.807 120.752 569.01 121.479C568.213 122.193 567.75 123.16 567.621 124.379V137H564.352V124.537C564.352 121.771 562.998 120.389 560.291 120.389C558.158 120.389 556.699 121.297 555.914 123.113V137H552.662V117.98H555.738ZM595.992 137C595.805 136.625 595.652 135.957 595.535 134.996C594.023 136.566 592.219 137.352 590.121 137.352C588.246 137.352 586.705 136.824 585.498 135.77C584.303 134.703 583.705 133.355 583.705 131.727C583.705 129.746 584.455 128.211 585.955 127.121C587.467 126.02 589.588 125.469 592.318 125.469H595.482V123.975C595.482 122.838 595.143 121.936 594.463 121.268C593.783 120.588 592.781 120.248 591.457 120.248C590.297 120.248 589.324 120.541 588.539 121.127C587.754 121.713 587.361 122.422 587.361 123.254H584.092C584.092 122.305 584.426 121.391 585.094 120.512C585.773 119.621 586.688 118.918 587.836 118.402C588.996 117.887 590.268 117.629 591.65 117.629C593.842 117.629 595.559 118.18 596.801 119.281C598.043 120.371 598.688 121.877 598.734 123.799V132.553C598.734 134.299 598.957 135.688 599.402 136.719V137H595.992ZM590.596 134.521C591.615 134.521 592.582 134.258 593.496 133.73C594.41 133.203 595.072 132.518 595.482 131.674V127.771H592.934C588.949 127.771 586.957 128.938 586.957 131.27C586.957 132.289 587.297 133.086 587.977 133.66C588.656 134.234 589.529 134.521 590.596 134.521ZM608.244 113.375V117.98H611.795V120.494H608.244V132.289C608.244 133.051 608.402 133.625 608.719 134.012C609.035 134.387 609.574 134.574 610.336 134.574C610.711 134.574 611.227 134.504 611.883 134.363V137C611.027 137.234 610.195 137.352 609.387 137.352C607.934 137.352 606.838 136.912 606.1 136.033C605.361 135.154 604.992 133.906 604.992 132.289V120.494H601.529V117.98H604.992V113.375H608.244ZM619.143 137H615.891V117.98H619.143V137ZM615.627 112.936C615.627 112.408 615.785 111.963 616.102 111.6C616.43 111.236 616.91 111.055 617.543 111.055C618.176 111.055 618.656 111.236 618.984 111.6C619.312 111.963 619.477 112.408 619.477 112.936C619.477 113.463 619.312 113.902 618.984 114.254C618.656 114.605 618.176 114.781 617.543 114.781C616.91 114.781 616.43 114.605 616.102 114.254C615.785 113.902 615.627 113.463 615.627 112.936ZM631.992 134.697C633.152 134.697 634.166 134.346 635.033 133.643C635.9 132.939 636.381 132.061 636.475 131.006H639.551C639.492 132.096 639.117 133.133 638.426 134.117C637.734 135.102 636.809 135.887 635.648 136.473C634.5 137.059 633.281 137.352 631.992 137.352C629.402 137.352 627.34 136.49 625.805 134.768C624.281 133.033 623.52 130.666 623.52 127.666V127.121C623.52 125.27 623.859 123.623 624.539 122.182C625.219 120.74 626.191 119.621 627.457 118.824C628.734 118.027 630.24 117.629 631.975 117.629C634.107 117.629 635.877 118.268 637.283 119.545C638.701 120.822 639.457 122.48 639.551 124.52H636.475C636.381 123.289 635.912 122.281 635.068 121.496C634.236 120.699 633.205 120.301 631.975 120.301C630.322 120.301 629.039 120.898 628.125 122.094C627.223 123.277 626.771 124.994 626.771 127.244V127.859C626.771 130.051 627.223 131.738 628.125 132.922C629.027 134.105 630.316 134.697 631.992 134.697ZM654.949 137C654.762 136.625 654.609 135.957 654.492 134.996C652.98 136.566 651.176 137.352 649.078 137.352C647.203 137.352 645.662 136.824 644.455 135.77C643.26 134.703 642.662 133.355 642.662 131.727C642.662 129.746 643.412 128.211 644.912 127.121C646.424 126.02 648.545 125.469 651.275 125.469H654.439V123.975C654.439 122.838 654.1 121.936 653.42 121.268C652.74 120.588 651.738 120.248 650.414 120.248C649.254 120.248 648.281 120.541 647.496 121.127C646.711 121.713 646.318 122.422 646.318 123.254H643.049C643.049 122.305 643.383 121.391 644.051 120.512C644.73 119.621 645.645 118.918 646.793 118.402C647.953 117.887 649.225 117.629 650.607 117.629C652.799 117.629 654.516 118.18 655.758 119.281C657 120.371 657.645 121.877 657.691 123.799V132.553C657.691 134.299 657.914 135.688 658.359 136.719V137H654.949ZM649.553 134.521C650.572 134.521 651.539 134.258 652.453 133.73C653.367 133.203 654.029 132.518 654.439 131.674V127.771H651.891C647.906 127.771 645.914 128.938 645.914 131.27C645.914 132.289 646.254 133.086 646.934 133.66C647.613 134.234 648.486 134.521 649.553 134.521Z" fill="white"/>
<path d="M333.374 77.2102L273.592 149.976L273.592 0.000341949L333.374 77.2102Z" fill="#0092FF"/>
<path d="M333.374 77.2103L392.552 149.976L392.552 0.000365696L333.374 77.2103Z" fill="#0092FF"/>
<path d="M121.227 73.0087C121.227 114.854 90.2974 151.533 66.386 151.533C42.4747 151.533 44.0161 114.854 44.0161 73.0087C44.0161 31.1639 41.7532 0 65.6645 0C89.5758 0 121.227 31.1639 121.227 73.0087Z" fill="#02CC54"/>
<rect width="66.3861" height="151.533" fill="#01F965"/>
<rect x="138.545" width="66.3861" height="151.533" fill="#FDB601"/>
<circle cx="205.653" cy="107.517" r="44.0169" fill="#FFD83A"/>
<circle cx="208.539" cy="110.403" r="36.801" fill="#FFD93A"/>
<path d="M251.113 106.795C251.113 131.503 231.083 151.534 206.374 151.534V62.0566C231.083 62.0566 251.113 82.0867 251.113 106.795Z" fill="#FDB601"/>
<circle cx="204.209" cy="32.4715" r="32.4715" fill="#FFD83A"/>
<path d="M238.846 32.4715C238.846 50.4049 224.308 64.9429 206.374 64.9429V0C224.308 0 238.846 14.538 238.846 32.4715Z" fill="#FDB601"/>
<path d="M273.482 149.369L333.374 76.4885L393.265 149.369H273.482Z" fill="#005EB2"/>
</svg>
