<svg width="526" height="104" viewBox="0 0 526 104" fill="none" xmlns="http://www.w3.org/2000/svg">
<path d="M149.413 31.1595C144.544 31.2814 135.774 31.5497 129.91 31.7691C104.271 32.6715 103.128 32.6959 74.8049 32.3788C53.5129 32.135 45.4881 32.1106 38.4322 32.3544C21.4633 32.8909 12.6186 33.8664 6.87945 35.8418C-2.66091 39.1096 -2.23855 44.6942 7.89808 49.6935C11.3267 51.3762 17.0658 53.2784 21.6372 54.2051C23.426 54.5709 25.0161 54.9123 25.19 54.9611C25.3888 55.0099 25.4881 55.5952 25.4881 56.717V58.3997H20.0968C15.3266 58.3997 14.4322 58.4728 12.6931 58.9362C8.71796 59.9848 7.87324 61.4724 8.9664 65.545C9.43845 67.3253 9.53783 69.008 9.2397 69.9834L9.04094 70.6663H13.7117C23.9478 70.6663 36.8173 71.8856 46.2335 73.739L49.4384 74.3731L92.9415 74.1048C116.842 73.9585 154.656 73.7146 176.917 73.5683C208.122 73.3488 224.246 73.3488 247.227 73.5683C263.625 73.739 278.78 73.9097 280.892 73.9829C283.003 74.0317 284.643 74.0317 284.494 73.9829C284.047 73.7634 252.867 72.8367 230.581 72.3734C213.587 72.0076 172.494 71.8369 158.035 72.0563C151.078 72.1783 145.339 72.2514 145.289 72.227C145.24 72.2027 145.339 71.9588 145.513 71.6905C145.761 71.3003 145.761 71.1052 145.538 70.837C145.19 70.4468 145.563 70.398 154.681 69.8127C171.128 68.7153 189.24 68.7885 222.134 70.0566C248.395 71.0565 256.718 71.2272 270.954 71.0565C278.258 70.9833 285.612 70.837 287.302 70.7638L290.333 70.5931V72.3246C290.333 73.9341 290.382 74.0805 290.904 74.178C291.202 74.2268 296.544 74.3975 302.755 74.5682C313.538 74.8121 323.475 75.1779 338.531 75.8119C344.643 76.0802 345.711 76.0802 348.742 75.69C350.606 75.4705 353.388 74.9584 354.954 74.5926C358.034 73.8122 362.134 72.4221 362.134 72.1539C362.134 71.6661 336.072 69.3006 320.27 68.3739C298.854 67.0814 281.289 66.4961 239.401 65.6426C228.817 65.4475 217.016 65.1792 213.19 65.0817L206.233 64.911L213.19 64.7159C221.587 64.472 253.115 64.6915 259.525 65.0329C262.059 65.1792 265.736 65.3987 267.724 65.545C276.37 66.1303 289.339 66.5937 309.339 67.0082C330.979 67.4716 342.084 67.8618 352.941 68.5934C358.01 68.9348 364.693 69.5445 366.606 69.8127C367.326 69.9347 367.972 69.6908 370.556 68.3008C375.351 65.7401 378.333 62.6918 378.929 59.7409C379.5 56.9608 376.593 53.8881 371.525 51.9127C369.637 51.1567 369.612 51.1567 364.643 51.1567H359.674L359.401 50.1569C359.103 49.1326 359.351 47.2792 359.923 46.2306C360.072 45.9623 360.146 45.7185 360.097 45.6697C360.022 45.5965 346.457 45.0112 320.767 43.9626L306.854 43.4017L319.401 43.5236C326.308 43.5968 338.382 43.7187 346.233 43.8163C362.084 44.0114 361.14 44.1089 361.14 42.4018C361.14 40.5241 359.699 39.3535 356.146 38.2805C352.916 37.305 350.159 37.1587 338.034 37.4025C320.569 37.7439 314.68 37.6708 308.221 37.0611C295.972 35.9149 282.059 35.1833 257.538 34.4517C236.693 33.8176 230.084 33.5982 221.637 33.2324C213.513 32.8666 210.78 32.6959 200.395 32.013C186.805 31.1107 166.184 30.7693 149.413 31.1595ZM230.035 40.1095C229.712 40.1582 229.165 40.1582 228.792 40.1095C228.395 40.0607 228.668 40.0119 229.339 40.0119C230.035 40.0119 230.333 40.0607 230.035 40.1095ZM238.904 40.5484C244.171 40.8655 251.873 41.2557 272.569 42.2555C279.277 42.5726 279.351 42.5969 274.432 42.475C263.128 42.2311 234.258 40.7679 231.575 40.329C230.333 40.1339 233.562 40.207 238.904 40.5484ZM283.575 42.792C283.326 42.8408 282.879 42.8408 282.581 42.792C282.258 42.7433 282.457 42.6945 283.003 42.6945C283.55 42.6701 283.798 42.7189 283.575 42.792ZM285.289 42.7676C285.215 42.8408 284.991 42.8652 284.817 42.792C284.618 42.7189 284.693 42.6457 284.966 42.6457C285.239 42.6213 285.389 42.6945 285.289 42.7676Z" fill="#FFD93A"/>
<path d="M285.438 74.0073C285.662 74.0561 286.01 74.0561 286.184 74.0073C286.333 73.9341 286.159 73.8854 285.736 73.8854C285.339 73.8854 285.19 73.9341 285.438 74.0073Z" fill="#FFD93A"/>
<path d="M157.5 60H154.224L141.048 40.02V60H137.772V34.872H141.048L154.224 54.816V34.872H157.5V60ZM161.861 50.064C161.861 48.048 162.269 46.284 163.085 44.772C163.901 43.236 165.017 42.048 166.433 41.208C167.873 40.368 169.469 39.948 171.221 39.948C172.949 39.948 174.449 40.32 175.721 41.064C176.993 41.808 177.941 42.744 178.565 43.872V40.272H181.877V60H178.565V56.328C177.917 57.48 176.945 58.44 175.649 59.208C174.377 59.952 172.889 60.324 171.185 60.324C169.433 60.324 167.849 59.892 166.433 59.028C165.017 58.164 163.901 56.952 163.085 55.392C162.269 53.832 161.861 52.056 161.861 50.064ZM178.565 50.1C178.565 48.612 178.265 47.316 177.665 46.212C177.065 45.108 176.249 44.268 175.217 43.692C174.209 43.092 173.093 42.792 171.869 42.792C170.645 42.792 169.529 43.08 168.521 43.656C167.513 44.232 166.709 45.072 166.109 46.176C165.509 47.28 165.209 48.576 165.209 50.064C165.209 51.576 165.509 52.896 166.109 54.024C166.709 55.128 167.513 55.98 168.521 56.58C169.529 57.156 170.645 57.444 171.869 57.444C173.093 57.444 174.209 57.156 175.217 56.58C176.249 55.98 177.065 55.128 177.665 54.024C178.265 52.896 178.565 51.588 178.565 50.1ZM167.225 38.148C167.393 36.924 167.789 35.988 168.413 35.34C169.061 34.692 169.865 34.368 170.825 34.368C171.281 34.368 171.665 34.452 171.977 34.62C172.313 34.764 172.709 34.98 173.165 35.268C173.501 35.508 173.801 35.7 174.065 35.844C174.329 35.964 174.617 36.024 174.929 36.024C175.337 36.024 175.685 35.892 175.973 35.628C176.261 35.364 176.441 34.98 176.513 34.476H178.385C178.241 35.676 177.845 36.6 177.197 37.248C176.549 37.896 175.745 38.22 174.785 38.22C174.329 38.22 173.921 38.148 173.561 38.004C173.225 37.836 172.841 37.596 172.409 37.284C172.025 37.044 171.713 36.864 171.473 36.744C171.257 36.624 170.993 36.564 170.681 36.564C170.273 36.564 169.925 36.696 169.637 36.96C169.373 37.224 169.205 37.62 169.133 38.148H167.225ZM196.017 60.324C194.169 60.324 192.489 59.904 190.977 59.064C189.489 58.224 188.313 57.036 187.449 55.5C186.609 53.94 186.189 52.14 186.189 50.1C186.189 48.084 186.621 46.308 187.485 44.772C188.373 43.212 189.573 42.024 191.085 41.208C192.597 40.368 194.289 39.948 196.161 39.948C198.033 39.948 199.725 40.368 201.237 41.208C202.749 42.024 203.937 43.2 204.801 44.736C205.689 46.272 206.133 48.06 206.133 50.1C206.133 52.14 205.677 53.94 204.765 55.5C203.877 57.036 202.665 58.224 201.129 59.064C199.593 59.904 197.889 60.324 196.017 60.324ZM196.017 57.444C197.193 57.444 198.297 57.168 199.329 56.616C200.361 56.064 201.189 55.236 201.813 54.132C202.461 53.028 202.785 51.684 202.785 50.1C202.785 48.516 202.473 47.172 201.849 46.068C201.225 44.964 200.409 44.148 199.401 43.62C198.393 43.068 197.301 42.792 196.125 42.792C194.925 42.792 193.821 43.068 192.813 43.62C191.829 44.148 191.037 44.964 190.437 46.068C189.837 47.172 189.537 48.516 189.537 50.1C189.537 51.708 189.825 53.064 190.401 54.168C191.001 55.272 191.793 56.1 192.777 56.652C193.761 57.18 194.841 57.444 196.017 57.444ZM236.814 42.252C236.814 44.34 236.094 46.08 234.654 47.472C233.238 48.84 231.066 49.524 228.138 49.524H223.314V60H220.038V34.908H228.138C230.97 34.908 233.118 35.592 234.582 36.96C236.07 38.328 236.814 40.092 236.814 42.252ZM228.138 46.824C229.962 46.824 231.306 46.428 232.17 45.636C233.034 44.844 233.466 43.716 233.466 42.252C233.466 39.156 231.69 37.608 228.138 37.608H223.314V46.824H228.138ZM258.885 49.38C258.885 50.004 258.849 50.664 258.777 51.36H243.009C243.129 53.304 243.789 54.828 244.989 55.932C246.213 57.012 247.689 57.552 249.417 57.552C250.833 57.552 252.009 57.228 252.945 56.58C253.905 55.908 254.577 55.02 254.961 53.916H258.489C257.961 55.812 256.905 57.36 255.321 58.56C253.737 59.736 251.769 60.324 249.417 60.324C247.545 60.324 245.865 59.904 244.377 59.064C242.913 58.224 241.761 57.036 240.921 55.5C240.081 53.94 239.661 52.14 239.661 50.1C239.661 48.06 240.069 46.272 240.885 44.736C241.701 43.2 242.841 42.024 244.305 41.208C245.793 40.368 247.497 39.948 249.417 39.948C251.289 39.948 252.945 40.356 254.385 41.172C255.825 41.988 256.929 43.116 257.697 44.556C258.489 45.972 258.885 47.58 258.885 49.38ZM255.501 48.696C255.501 47.448 255.225 46.38 254.673 45.492C254.121 44.58 253.365 43.896 252.405 43.44C251.469 42.96 250.425 42.72 249.273 42.72C247.617 42.72 246.201 43.248 245.025 44.304C243.873 45.36 243.213 46.824 243.045 48.696H255.501ZM266.486 43.476C267.062 42.348 267.878 41.472 268.934 40.848C270.014 40.224 271.322 39.912 272.858 39.912V43.296H271.994C268.322 43.296 266.486 45.288 266.486 49.272V60H263.21V40.272H266.486V43.476ZM275.415 50.1C275.415 48.06 275.823 46.284 276.639 44.772C277.455 43.236 278.583 42.048 280.023 41.208C281.487 40.368 283.155 39.948 285.027 39.948C287.451 39.948 289.443 40.536 291.003 41.712C292.587 42.888 293.631 44.52 294.135 46.608H290.607C290.271 45.408 289.611 44.46 288.627 43.764C287.667 43.068 286.467 42.72 285.027 42.72C283.155 42.72 281.643 43.368 280.491 44.664C279.339 45.936 278.763 47.748 278.763 50.1C278.763 52.476 279.339 54.312 280.491 55.608C281.643 56.904 283.155 57.552 285.027 57.552C286.467 57.552 287.667 57.216 288.627 56.544C289.587 55.872 290.247 54.912 290.607 53.664H294.135C293.607 55.68 292.551 57.3 290.967 58.524C289.383 59.724 287.403 60.324 285.027 60.324C283.155 60.324 281.487 59.904 280.023 59.064C278.583 58.224 277.455 57.036 276.639 55.5C275.823 53.964 275.415 52.164 275.415 50.1ZM297.282 50.064C297.282 48.048 297.69 46.284 298.506 44.772C299.322 43.236 300.438 42.048 301.854 41.208C303.294 40.368 304.89 39.948 306.642 39.948C308.37 39.948 309.87 40.32 311.142 41.064C312.414 41.808 313.362 42.744 313.986 43.872V40.272H317.298V60H313.986V56.328C313.338 57.48 312.366 58.44 311.07 59.208C309.798 59.952 308.31 60.324 306.606 60.324C304.854 60.324 303.27 59.892 301.854 59.028C300.438 58.164 299.322 56.952 298.506 55.392C297.69 53.832 297.282 52.056 297.282 50.064ZM313.986 50.1C313.986 48.612 313.686 47.316 313.086 46.212C312.486 45.108 311.67 44.268 310.638 43.692C309.63 43.092 308.514 42.792 307.29 42.792C306.066 42.792 304.95 43.08 303.942 43.656C302.934 44.232 302.13 45.072 301.53 46.176C300.93 47.28 300.63 48.576 300.63 50.064C300.63 51.576 300.93 52.896 301.53 54.024C302.13 55.128 302.934 55.98 303.942 56.58C304.95 57.156 306.066 57.444 307.29 57.444C308.514 57.444 309.63 57.156 310.638 56.58C311.67 55.98 312.486 55.128 313.086 54.024C313.686 52.896 313.986 51.588 313.986 50.1ZM327.083 34.908L326.687 52.908H323.951L323.555 34.908H327.083ZM325.463 60.216C324.839 60.216 324.311 60 323.879 59.568C323.447 59.136 323.231 58.608 323.231 57.984C323.231 57.36 323.447 56.832 323.879 56.4C324.311 55.968 324.839 55.752 325.463 55.752C326.063 55.752 326.567 55.968 326.975 56.4C327.407 56.832 327.623 57.36 327.623 57.984C327.623 58.608 327.407 59.136 326.975 59.568C326.567 60 326.063 60.216 325.463 60.216Z" fill="black"/>
<path d="M125.907 23.5429C125.683 22.8535 125.087 22.3512 124.37 22.247L104.219 19.319L95.2077 1.06136C94.8869 0.411419 94.225 0 93.5001 0C92.7753 0 92.1132 0.411546 91.7924 1.06136L82.7803 19.3192L62.6304 22.247C61.9132 22.3512 61.3172 22.8536 61.0933 23.5429C60.8692 24.2322 61.0561 24.9889 61.5751 25.4948L76.1554 39.7066L72.7139 59.7739C72.5914 60.4883 72.8852 61.2103 73.4716 61.6362C74.0579 62.0621 74.8351 62.1183 75.4771 61.7812L93.4999 52.3067L111.522 61.7813C111.801 61.9278 112.105 62 112.408 62C112.803 62 113.196 61.8774 113.528 61.6363C114.114 61.2103 114.408 60.4884 114.285 59.7739L110.843 39.7066L125.425 25.4949C125.944 24.9889 126.131 24.2322 125.907 23.5429ZM107.468 37.6782C107.019 38.1156 106.814 38.746 106.92 39.3637L109.879 56.6149L94.3863 48.47C93.8315 48.1784 93.1687 48.1784 92.6139 48.47L77.12 56.615L80.0785 39.3636C80.1844 38.7459 79.9796 38.1157 79.5309 37.6783L66.9967 25.4609L84.3188 22.9438C84.9391 22.8536 85.4751 22.4642 85.7526 21.9022L93.4999 6.20632L101.247 21.9021C101.525 22.464 102.061 22.8536 102.681 22.9438L120.003 25.4608L107.468 37.6782Z" fill="black"/>
</svg>
