<svg width="556" height="78" viewBox="0 0 556 78" fill="none" xmlns="http://www.w3.org/2000/svg">
<path d="M219.192 33.1595C212.049 33.2814 199.183 33.5497 190.581 33.7691C152.967 34.6715 151.29 34.6959 109.74 34.3788C78.5045 34.135 66.7319 34.1106 56.3808 34.3544C31.487 34.8909 18.5117 35.8664 10.0923 37.8418C-3.90361 41.1096 -3.284 46.6942 11.5866 51.6935C16.6164 53.3762 25.0358 55.2784 31.7422 56.2051C34.3664 56.5709 36.6991 56.9123 36.9542 56.9611C37.2458 57.0099 37.3916 57.5952 37.3916 58.717V60.3997H29.4824C22.4845 60.3997 21.1724 60.4728 18.621 60.9362C12.7894 61.9848 11.5502 63.4724 13.1539 67.545C13.8464 69.3253 13.9922 71.008 13.5548 71.9834L13.2632 72.6663H20.1154C35.1318 72.6663 54.0117 73.8856 67.8253 75.739L72.5271 76.3731L136.347 76.1048C171.41 75.9585 226.883 75.7146 259.54 75.5683C305.318 75.3488 328.973 75.3488 362.687 75.5683C386.742 75.739 408.975 75.9097 412.073 75.9829C415.171 76.0317 417.577 76.0317 417.358 75.9829C416.702 75.7634 370.96 74.8367 338.267 74.3734C313.337 74.0076 253.052 73.8369 231.84 74.0563C221.634 74.1783 213.215 74.2514 213.142 74.227C213.069 74.2027 213.215 73.9588 213.47 73.6905C213.835 73.3003 213.835 73.1052 213.507 72.837C212.996 72.4468 213.543 72.398 226.919 71.8127C251.048 70.7153 277.618 70.7885 325.875 72.0566C364.4 73.0565 376.61 73.2272 397.494 73.0565C408.21 72.9833 418.998 72.837 421.477 72.7638L425.923 72.5931V74.3246C425.923 75.9341 425.996 76.0805 426.762 76.178C427.199 76.2268 435.035 76.3975 444.147 76.5682C459.965 76.8121 474.544 77.1779 496.632 77.8119C505.598 78.0802 507.165 78.0802 511.612 77.69C514.345 77.4705 518.427 76.9584 520.724 76.5926C525.243 75.8122 531.257 74.4221 531.257 74.1539C531.257 73.6661 493.023 71.3006 469.843 70.3739C438.425 69.0814 412.656 68.4961 351.206 67.6426C335.679 67.4475 318.366 67.1792 312.753 67.0817L302.548 66.911L312.753 66.7159C325.073 66.472 371.325 66.6915 380.728 67.0329C384.446 67.1792 389.84 67.3987 392.756 67.545C405.44 68.1303 424.465 68.5937 453.806 69.0082C485.552 69.4716 501.844 69.8618 517.771 70.5934C525.207 70.9348 535.011 71.5445 537.818 71.8127C538.875 71.9347 539.822 71.6908 543.613 70.3008C550.647 67.7401 555.021 64.6918 555.896 61.7409C556.734 58.9608 552.47 55.8881 545.034 53.9127C542.264 53.1567 542.228 53.1567 534.938 53.1567H527.649L527.248 52.1569C526.81 51.1326 527.175 49.2792 528.013 48.2306C528.232 47.9623 528.341 47.7185 528.268 47.6697C528.159 47.5965 508.259 47.0112 470.572 45.9626L450.161 45.4017L468.567 45.5236C478.699 45.5968 496.413 45.7187 507.931 45.8163C531.184 46.0114 529.799 46.1089 529.799 44.4018C529.799 42.5241 527.685 41.3535 522.473 40.2805C517.735 39.305 513.689 39.1587 495.903 39.4025C470.28 39.7439 461.642 39.6708 452.166 39.0611C434.197 37.9149 413.786 37.1833 377.812 36.4517C347.233 35.8176 337.538 35.5982 325.146 35.2324C313.227 34.8666 309.218 34.6959 293.983 34.013C274.046 33.1107 243.795 32.7693 219.192 33.1595ZM337.465 42.1095C336.991 42.1582 336.189 42.1582 335.643 42.1095C335.059 42.0607 335.46 42.0119 336.444 42.0119C337.465 42.0119 337.902 42.0607 337.465 42.1095ZM350.477 42.5484C358.204 42.8655 369.502 43.2557 399.863 44.2555C409.704 44.5726 409.813 44.5969 402.597 44.475C386.013 44.2311 343.661 42.7679 339.725 42.329C337.902 42.1339 342.641 42.207 350.477 42.5484ZM416.01 44.792C415.645 44.8408 414.989 44.8408 414.552 44.792C414.078 44.7433 414.369 44.6945 415.171 44.6945C415.973 44.6701 416.338 44.7189 416.01 44.792ZM418.524 44.7676C418.415 44.8408 418.087 44.8652 417.832 44.792C417.54 44.7189 417.65 44.6457 418.051 44.6457C418.452 44.6213 418.67 44.6945 418.524 44.7676Z" fill="#02CC54"/>
<path d="M418.743 76.0073C419.071 76.0561 419.581 76.0561 419.837 76.0073C420.055 75.9341 419.8 75.8854 419.181 75.8854C418.597 75.8854 418.379 75.9341 418.743 76.0073Z" fill="#02CC54"/>
<path d="M115.976 40.908V56.784C115.976 59.016 116.516 60.672 117.596 61.752C118.7 62.832 120.224 63.372 122.168 63.372C124.088 63.372 125.588 62.832 126.668 61.752C127.772 60.672 128.324 59.016 128.324 56.784V40.908H131.6V56.748C131.6 58.836 131.18 60.6 130.34 62.04C129.5 63.456 128.36 64.512 126.92 65.208C125.504 65.904 123.908 66.252 122.132 66.252C120.356 66.252 118.748 65.904 117.308 65.208C115.892 64.512 114.764 63.456 113.924 62.04C113.108 60.6 112.7 58.836 112.7 56.748V40.908H115.976ZM160.789 45.912C162.325 45.912 163.693 46.236 164.893 46.884C166.093 47.508 167.041 48.456 167.737 49.728C168.433 51 168.781 52.548 168.781 54.372V66H165.541V54.84C165.541 52.872 165.049 51.372 164.065 50.34C163.105 49.284 161.797 48.756 160.141 48.756C158.437 48.756 157.081 49.308 156.073 50.412C155.065 51.492 154.561 53.064 154.561 55.128V66H151.321V54.84C151.321 52.872 150.829 51.372 149.845 50.34C148.885 49.284 147.577 48.756 145.921 48.756C144.217 48.756 142.861 49.308 141.853 50.412C140.845 51.492 140.341 53.064 140.341 55.128V66H137.065V46.272H140.341V49.116C140.989 48.084 141.853 47.292 142.933 46.74C144.037 46.188 145.249 45.912 146.569 45.912C148.225 45.912 149.689 46.284 150.961 47.028C152.233 47.772 153.181 48.864 153.805 50.304C154.357 48.912 155.269 47.832 156.541 47.064C157.813 46.296 159.229 45.912 160.789 45.912ZM192.356 66.324C190.508 66.324 188.828 65.904 187.316 65.064C185.828 64.224 184.652 63.036 183.788 61.5C182.948 59.94 182.528 58.14 182.528 56.1C182.528 54.084 182.96 52.308 183.824 50.772C184.712 49.212 185.912 48.024 187.424 47.208C188.936 46.368 190.628 45.948 192.5 45.948C194.372 45.948 196.064 46.368 197.576 47.208C199.088 48.024 200.276 49.2 201.14 50.736C202.028 52.272 202.472 54.06 202.472 56.1C202.472 58.14 202.016 59.94 201.104 61.5C200.216 63.036 199.004 64.224 197.468 65.064C195.932 65.904 194.228 66.324 192.356 66.324ZM192.356 63.444C193.532 63.444 194.636 63.168 195.668 62.616C196.7 62.064 197.528 61.236 198.152 60.132C198.8 59.028 199.124 57.684 199.124 56.1C199.124 54.516 198.812 53.172 198.188 52.068C197.564 50.964 196.748 50.148 195.74 49.62C194.732 49.068 193.64 48.792 192.464 48.792C191.264 48.792 190.16 49.068 189.152 49.62C188.168 50.148 187.376 50.964 186.776 52.068C186.176 53.172 185.876 54.516 185.876 56.1C185.876 57.708 186.164 59.064 186.74 60.168C187.34 61.272 188.132 62.1 189.116 62.652C190.1 63.18 191.18 63.444 192.356 63.444ZM214.808 48.972H210.668V66H207.392V48.972H204.836V46.272H207.392V44.868C207.392 42.66 207.956 41.052 209.084 40.044C210.236 39.012 212.072 38.496 214.592 38.496V41.232C213.152 41.232 212.132 41.52 211.532 42.096C210.956 42.648 210.668 43.572 210.668 44.868V46.272H214.808V48.972ZM236.627 55.38C236.627 56.004 236.591 56.664 236.519 57.36H220.751C220.871 59.304 221.531 60.828 222.731 61.932C223.955 63.012 225.431 63.552 227.159 63.552C228.575 63.552 229.751 63.228 230.687 62.58C231.647 61.908 232.319 61.02 232.703 59.916H236.231C235.703 61.812 234.647 63.36 233.063 64.56C231.479 65.736 229.511 66.324 227.159 66.324C225.287 66.324 223.607 65.904 222.119 65.064C220.655 64.224 219.503 63.036 218.663 61.5C217.823 59.94 217.403 58.14 217.403 56.1C217.403 54.06 217.811 52.272 218.627 50.736C219.443 49.2 220.583 48.024 222.047 47.208C223.535 46.368 225.239 45.948 227.159 45.948C229.031 45.948 230.687 46.356 232.127 47.172C233.567 47.988 234.671 49.116 235.439 50.556C236.231 51.972 236.627 53.58 236.627 55.38ZM233.243 54.696C233.243 53.448 232.967 52.38 232.415 51.492C231.863 50.58 231.107 49.896 230.147 49.44C229.211 48.96 228.167 48.72 227.015 48.72C225.359 48.72 223.943 49.248 222.767 50.304C221.615 51.36 220.955 52.824 220.787 54.696H233.243ZM244.228 49.476C244.804 48.348 245.62 47.472 246.676 46.848C247.756 46.224 249.064 45.912 250.6 45.912V49.296H249.736C246.064 49.296 244.228 51.288 244.228 55.272V66H240.952V46.272H244.228V49.476ZM272.381 55.38C272.381 56.004 272.345 56.664 272.273 57.36H256.505C256.625 59.304 257.285 60.828 258.485 61.932C259.709 63.012 261.185 63.552 262.913 63.552C264.329 63.552 265.505 63.228 266.441 62.58C267.401 61.908 268.073 61.02 268.457 59.916H271.985C271.457 61.812 270.401 63.36 268.817 64.56C267.233 65.736 265.265 66.324 262.913 66.324C261.041 66.324 259.361 65.904 257.873 65.064C256.409 64.224 255.257 63.036 254.417 61.5C253.577 59.94 253.157 58.14 253.157 56.1C253.157 54.06 253.565 52.272 254.381 50.736C255.197 49.2 256.337 48.024 257.801 47.208C259.289 46.368 260.993 45.948 262.913 45.948C264.785 45.948 266.441 46.356 267.881 47.172C269.321 47.988 270.425 49.116 271.193 50.556C271.985 51.972 272.381 53.58 272.381 55.38ZM268.997 54.696C268.997 53.448 268.721 52.38 268.169 51.492C267.617 50.58 266.861 49.896 265.901 49.44C264.965 48.96 263.921 48.72 262.769 48.72C261.113 48.72 259.697 49.248 258.521 50.304C257.369 51.36 256.709 52.824 256.541 54.696H268.997ZM275.482 56.1C275.482 54.06 275.89 52.284 276.706 50.772C277.522 49.236 278.65 48.048 280.09 47.208C281.554 46.368 283.222 45.948 285.094 45.948C287.518 45.948 289.51 46.536 291.07 47.712C292.654 48.888 293.698 50.52 294.202 52.608H290.674C290.338 51.408 289.678 50.46 288.694 49.764C287.734 49.068 286.534 48.72 285.094 48.72C283.222 48.72 281.71 49.368 280.558 50.664C279.406 51.936 278.83 53.748 278.83 56.1C278.83 58.476 279.406 60.312 280.558 61.608C281.71 62.904 283.222 63.552 285.094 63.552C286.534 63.552 287.734 63.216 288.694 62.544C289.654 61.872 290.314 60.912 290.674 59.664H294.202C293.674 61.68 292.618 63.3 291.034 64.524C289.45 65.724 287.47 66.324 285.094 66.324C283.222 66.324 281.554 65.904 280.09 65.064C278.65 64.224 277.522 63.036 276.706 61.5C275.89 59.964 275.482 58.164 275.482 56.1ZM300.265 43.068C299.641 43.068 299.113 42.852 298.681 42.42C298.249 41.988 298.033 41.46 298.033 40.836C298.033 40.212 298.249 39.684 298.681 39.252C299.113 38.82 299.641 38.604 300.265 38.604C300.865 38.604 301.369 38.82 301.777 39.252C302.209 39.684 302.425 40.212 302.425 40.836C302.425 41.46 302.209 41.988 301.777 42.42C301.369 42.852 300.865 43.068 300.265 43.068ZM301.849 46.272V66H298.573V46.272H301.849ZM331.156 45.912C332.692 45.912 334.06 46.236 335.26 46.884C336.46 47.508 337.408 48.456 338.104 49.728C338.8 51 339.148 52.548 339.148 54.372V66H335.908V54.84C335.908 52.872 335.416 51.372 334.432 50.34C333.472 49.284 332.164 48.756 330.508 48.756C328.804 48.756 327.448 49.308 326.44 50.412C325.432 51.492 324.928 53.064 324.928 55.128V66H321.688V54.84C321.688 52.872 321.196 51.372 320.212 50.34C319.252 49.284 317.944 48.756 316.288 48.756C314.584 48.756 313.228 49.308 312.22 50.412C311.212 51.492 310.708 53.064 310.708 55.128V66H307.432V46.272H310.708V49.116C311.356 48.084 312.22 47.292 313.3 46.74C314.404 46.188 315.616 45.912 316.936 45.912C318.592 45.912 320.056 46.284 321.328 47.028C322.6 47.772 323.548 48.864 324.172 50.304C324.724 48.912 325.636 47.832 326.908 47.064C328.18 46.296 329.596 45.912 331.156 45.912ZM362.522 55.38C362.522 56.004 362.486 56.664 362.414 57.36H346.646C346.766 59.304 347.426 60.828 348.626 61.932C349.85 63.012 351.326 63.552 353.054 63.552C354.47 63.552 355.646 63.228 356.582 62.58C357.542 61.908 358.214 61.02 358.598 59.916H362.126C361.598 61.812 360.542 63.36 358.958 64.56C357.374 65.736 355.406 66.324 353.054 66.324C351.182 66.324 349.502 65.904 348.014 65.064C346.55 64.224 345.398 63.036 344.558 61.5C343.718 59.94 343.298 58.14 343.298 56.1C343.298 54.06 343.706 52.272 344.522 50.736C345.338 49.2 346.478 48.024 347.942 47.208C349.43 46.368 351.134 45.948 353.054 45.948C354.926 45.948 356.582 46.356 358.022 47.172C359.462 47.988 360.566 49.116 361.334 50.556C362.126 51.972 362.522 53.58 362.522 55.38ZM359.138 54.696C359.138 53.448 358.862 52.38 358.31 51.492C357.758 50.58 357.002 49.896 356.042 49.44C355.106 48.96 354.062 48.72 352.91 48.72C351.254 48.72 349.838 49.248 348.662 50.304C347.51 51.36 346.85 52.824 346.682 54.696H359.138ZM376.458 45.912C378.858 45.912 380.802 46.644 382.29 48.108C383.778 49.548 384.522 51.636 384.522 54.372V66H381.282V54.84C381.282 52.872 380.79 51.372 379.806 50.34C378.822 49.284 377.478 48.756 375.774 48.756C374.046 48.756 372.666 49.296 371.634 50.376C370.626 51.456 370.122 53.028 370.122 55.092V66H366.846V46.272H370.122V49.08C370.77 48.072 371.646 47.292 372.75 46.74C373.878 46.188 375.114 45.912 376.458 45.912ZM393.87 48.972V60.6C393.87 61.56 394.074 62.244 394.482 62.652C394.89 63.036 395.598 63.228 396.606 63.228H399.018V66H396.066C394.242 66 392.874 65.58 391.962 64.74C391.05 63.9 390.594 62.52 390.594 60.6V48.972H388.038V46.272H390.594V41.304H393.87V46.272H399.018V48.972H393.87ZM411.591 66.324C409.743 66.324 408.063 65.904 406.551 65.064C405.063 64.224 403.887 63.036 403.023 61.5C402.183 59.94 401.763 58.14 401.763 56.1C401.763 54.084 402.195 52.308 403.059 50.772C403.947 49.212 405.147 48.024 406.659 47.208C408.171 46.368 409.863 45.948 411.735 45.948C413.607 45.948 415.299 46.368 416.811 47.208C418.323 48.024 419.511 49.2 420.375 50.736C421.263 52.272 421.707 54.06 421.707 56.1C421.707 58.14 421.251 59.94 420.339 61.5C419.451 63.036 418.239 64.224 416.703 65.064C415.167 65.904 413.463 66.324 411.591 66.324ZM411.591 63.444C412.767 63.444 413.871 63.168 414.903 62.616C415.935 62.064 416.763 61.236 417.387 60.132C418.035 59.028 418.359 57.684 418.359 56.1C418.359 54.516 418.047 53.172 417.423 52.068C416.799 50.964 415.983 50.148 414.975 49.62C413.967 49.068 412.875 48.792 411.699 48.792C410.499 48.792 409.395 49.068 408.387 49.62C407.403 50.148 406.611 50.964 406.011 52.068C405.411 53.172 405.111 54.516 405.111 56.1C405.111 57.708 405.399 59.064 405.975 60.168C406.575 61.272 407.367 62.1 408.351 62.652C409.335 63.18 410.415 63.444 411.591 63.444ZM434.388 56.064C434.388 54.048 434.796 52.284 435.612 50.772C436.428 49.236 437.544 48.048 438.96 47.208C440.4 46.368 442.008 45.948 443.784 45.948C445.32 45.948 446.748 46.308 448.068 47.028C449.388 47.724 450.396 48.648 451.092 49.8V39.36H454.404V66H451.092V62.292C450.444 63.468 449.484 64.44 448.212 65.208C446.94 65.952 445.452 66.324 443.748 66.324C441.996 66.324 440.4 65.892 438.96 65.028C437.544 64.164 436.428 62.952 435.612 61.392C434.796 59.832 434.388 58.056 434.388 56.064ZM451.092 56.1C451.092 54.612 450.792 53.316 450.192 52.212C449.592 51.108 448.776 50.268 447.744 49.692C446.736 49.092 445.62 48.792 444.396 48.792C443.172 48.792 442.056 49.08 441.048 49.656C440.04 50.232 439.236 51.072 438.636 52.176C438.036 53.28 437.736 54.576 437.736 56.064C437.736 57.576 438.036 58.896 438.636 60.024C439.236 61.128 440.04 61.98 441.048 62.58C442.056 63.156 443.172 63.444 444.396 63.444C445.62 63.444 446.736 63.156 447.744 62.58C448.776 61.98 449.592 61.128 450.192 60.024C450.792 58.896 451.092 57.588 451.092 56.1ZM477.94 55.38C477.94 56.004 477.904 56.664 477.832 57.36H462.064C462.184 59.304 462.844 60.828 464.044 61.932C465.268 63.012 466.744 63.552 468.472 63.552C469.888 63.552 471.064 63.228 472 62.58C472.96 61.908 473.632 61.02 474.016 59.916H477.544C477.016 61.812 475.96 63.36 474.376 64.56C472.792 65.736 470.824 66.324 468.472 66.324C466.6 66.324 464.92 65.904 463.432 65.064C461.968 64.224 460.816 63.036 459.976 61.5C459.136 59.94 458.716 58.14 458.716 56.1C458.716 54.06 459.124 52.272 459.94 50.736C460.756 49.2 461.896 48.024 463.36 47.208C464.848 46.368 466.552 45.948 468.472 45.948C470.344 45.948 472 46.356 473.44 47.172C474.88 47.988 475.984 49.116 476.752 50.556C477.544 51.972 477.94 53.58 477.94 55.38ZM474.556 54.696C474.556 53.448 474.28 52.38 473.728 51.492C473.176 50.58 472.42 49.896 471.46 49.44C470.524 48.96 469.48 48.72 468.328 48.72C466.672 48.72 465.256 49.248 464.08 50.304C462.928 51.36 462.268 52.824 462.1 54.696H474.556ZM483.308 66.216C482.684 66.216 482.156 66 481.724 65.568C481.292 65.136 481.076 64.608 481.076 63.984C481.076 63.36 481.292 62.832 481.724 62.4C482.156 61.968 482.684 61.752 483.308 61.752C483.908 61.752 484.412 61.968 484.82 62.4C485.252 62.832 485.468 63.36 485.468 63.984C485.468 64.608 485.252 65.136 484.82 65.568C484.412 66 483.908 66.216 483.308 66.216ZM483.308 50.808C482.684 50.808 482.156 50.592 481.724 50.16C481.292 49.728 481.076 49.2 481.076 48.576C481.076 47.952 481.292 47.424 481.724 46.992C482.156 46.56 482.684 46.344 483.308 46.344C483.908 46.344 484.412 46.56 484.82 46.992C485.252 47.424 485.468 47.952 485.468 48.576C485.468 49.2 485.252 49.728 484.82 50.16C484.412 50.592 483.908 50.808 483.308 50.808Z" fill="black"/>
<path d="M47.8635 9.9115C48.7138 9.9115 49.4031 9.22458 49.4031 8.37725V1.53426C49.4031 0.686919 48.7138 0 47.8635 0C47.0132 0 46.3238 0.686919 46.3238 1.53426V8.37725C46.324 9.22458 47.0133 9.9115 47.8635 9.9115Z" fill="black"/>
<path d="M85.4978 52.7088L82.778 50.006C81.8104 49.0431 80.5209 48.5126 79.1468 48.5126C78.2682 48.5126 77.4248 48.7304 76.6774 49.1386L71.552 44.0372L71.8017 43.7887C73.881 41.7126 73.8802 38.3389 71.8015 36.2698C71.0587 35.5282 70.1318 35.0336 69.1214 34.8255C69.2605 34.347 69.3338 33.8458 69.3338 33.3329C69.3338 31.9077 68.7782 30.5713 67.7726 29.5733C67.0296 28.8317 66.1028 28.3372 65.0925 28.1291C65.2316 27.6506 65.3048 27.1495 65.3048 26.6364C65.3048 25.2111 64.7493 23.8749 63.742 22.8754C62.9812 22.1182 62.0461 21.6389 61.0642 21.435C61.5894 19.6301 61.1406 17.5995 59.7158 16.1773C58.5298 15.0004 56.9204 14.4946 55.3695 14.6585L45.213 12.7428C43.6641 12.45 41.7297 12.2564 40.5087 13.3662C40.4316 13.4363 40.3531 13.5169 40.2757 13.6066C38.3825 12.9189 36.1743 13.3284 34.6582 14.8375C33.6524 15.8386 33.0984 17.1744 33.0984 18.5988C33.0984 19.1119 33.1713 19.6129 33.3103 20.0916C32.301 20.2995 31.3753 20.7934 30.6349 21.5326C29.6272 22.5328 29.0715 23.867 29.0704 25.2897C29.0699 25.804 29.1432 26.3068 29.2829 26.7867C28.2731 26.9941 27.3468 27.4871 26.6042 28.2263C25.5964 29.2295 25.0415 30.566 25.0415 31.9897C25.0415 33.0801 25.3681 34.119 25.9735 34.9965C25.2092 35.2547 24.509 35.6845 23.9227 36.2681C21.842 38.3389 21.8413 41.7127 23.9241 43.7919L24.1728 44.0387L19.0468 49.1375C17.1418 48.2437 14.7947 48.5786 13.2226 50.1431L10.5011 52.8475C9.53308 53.811 9.00015 55.0961 9 56.4662C9 57.8363 9.53308 59.1217 10.5011 60.0853L13.8976 63.4658C14.4992 64.0646 15.4741 64.064 16.0749 63.4646C16.6758 62.8651 16.6752 61.8936 16.0736 61.2949L12.6772 57.9144C12.2916 57.5306 12.0793 57.0163 12.0793 56.4663C12.0793 55.9165 12.2916 55.4024 12.6762 55.0195L15.3979 52.3149C16.0779 51.6381 17.1187 51.5372 17.9091 52.0081C17.9647 52.0915 18.0291 52.1707 18.1028 52.2443C18.2347 52.376 18.3853 52.477 18.5452 52.5509L34.153 68.0813C34.2271 68.2424 34.3289 68.3939 34.4618 68.5265C34.5911 68.6555 34.7386 68.7553 34.8952 68.8287C35.2252 69.2006 35.4076 69.6756 35.4076 70.1823C35.4076 70.7323 35.1953 71.2464 34.8097 71.6302L32.0908 74.3364C31.2874 75.1335 29.9806 75.1333 29.1797 74.3389L25.7832 70.9539C25.1819 70.3548 24.2072 70.3548 23.6059 70.9539C23.0047 71.5531 23.0047 72.5245 23.6059 73.1236L27.0049 76.511C28.0053 77.5038 29.3191 78 30.6336 78C31.9483 78 33.2637 77.5031 34.2653 76.5093L36.9859 73.8014C37.954 72.8378 38.487 71.5527 38.487 70.1823C38.487 69.2044 38.2142 68.2705 37.7067 67.4653L43.4757 61.7234C43.4819 61.7172 43.488 61.7109 43.4942 61.7047C44.1548 61.0242 45.9944 61.1515 47.7734 61.2746C49.0374 61.3622 50.4467 61.4595 51.8235 61.3014L58.141 67.5894C57.7317 68.333 57.5133 69.1724 57.5133 70.0466C57.5133 71.4154 58.0464 72.6998 59.0144 73.6634L61.7351 76.3713C62.7025 77.3343 63.9921 77.8647 65.3661 77.8647C66.74 77.8647 68.0296 77.3344 68.9971 76.3713L85.4989 59.9471C86.4669 58.9837 87 57.6985 87 56.3283C86.9998 54.9583 86.4668 53.6731 85.4978 52.7088ZM44.6398 15.7577L51.3185 17.0174L47.3209 20.9996C46.7025 20.7034 45.855 20.151 44.9252 19.2647C43.6525 18.0514 42.7421 16.6506 42.6592 15.7769C42.6591 15.7764 42.6591 15.776 42.6591 15.7755C42.6591 15.7754 42.6589 15.7752 42.6589 15.7751C42.653 15.7123 42.6514 15.6622 42.6522 15.6239C42.8535 15.5752 43.3883 15.5211 44.6398 15.7577ZM36.8341 17.0086C37.6141 16.2321 38.8258 16.1425 39.7072 16.7373C40.2066 18.8241 41.993 20.7154 42.7967 21.4817C43.3923 22.0497 45.3034 23.7524 47.2324 24.2204C47.4934 24.5932 47.6354 25.0376 47.6354 25.5065C47.6354 26.1106 47.4022 26.6753 46.9774 27.0982C46.5538 27.5211 45.9861 27.7539 45.3789 27.7539C44.7715 27.7539 44.2039 27.5211 43.7783 27.0962L43.7781 27.0961L36.834 20.1886C36.4107 19.7674 36.1775 19.2027 36.1775 18.5988C36.1777 17.9947 36.4108 17.43 36.8341 17.0086ZM32.811 23.7037C33.2346 23.2809 33.8016 23.048 34.408 23.048C35.015 23.048 35.5839 23.2814 36.0103 23.7058L41.6013 29.2662C42.4817 30.1449 42.4817 31.5748 41.6044 32.4505C41.1784 32.8733 40.6088 33.106 40.0005 33.106C39.3922 33.106 38.8226 32.8733 38.3985 32.4523L34.1568 28.2263C34.1502 28.2198 34.143 28.2137 34.1363 28.207L32.8093 26.8852C32.3836 26.4614 32.1492 25.8956 32.1496 25.292C32.1503 24.6904 32.3839 24.1275 32.811 23.7037ZM28.7802 30.3974C29.2042 29.9755 29.7724 29.7432 30.3805 29.7432C30.9837 29.7432 31.547 29.9722 31.9691 30.3867L36.2237 34.6245C36.6479 35.0455 36.8817 35.6097 36.8817 36.2129C36.8817 36.8161 36.6479 37.3802 36.222 37.803C35.7982 38.2246 35.2306 38.457 34.6235 38.457C34.0155 38.457 33.4461 38.224 33.0217 37.803L31.4793 36.2678C31.479 36.2673 31.4785 36.267 31.4782 36.2667L28.7804 33.5815C28.3551 33.1581 28.1209 32.5926 28.1209 31.9894C28.1209 31.3862 28.3551 30.8206 28.7802 30.3974ZM26.0988 38.439C26.5245 38.0152 27.0935 37.7818 27.7009 37.7818C28.3081 37.7818 28.877 38.015 29.3026 38.4385L30.8471 39.9758C31.2715 40.3969 31.5051 40.961 31.5051 41.5643C31.5051 42.1676 31.2714 42.7316 30.8439 43.156C30.4203 43.5788 29.8527 43.8117 29.2454 43.8117C28.638 43.8117 28.0704 43.5789 27.6437 43.153L27.4503 42.961C27.4477 42.9584 27.4458 42.9557 27.4433 42.9533C27.4404 42.9505 27.4373 42.9481 27.4344 42.9453L26.1003 41.621C25.2199 40.7418 25.2191 39.3145 26.0988 38.439ZM57.4744 55.876C56.8735 55.2764 55.8986 55.2759 55.2972 55.8746L53.9274 57.2379C52.6258 58.535 50.2673 58.3717 47.9865 58.214C45.5098 58.0425 42.9486 57.8654 41.2913 59.561L35.6203 65.2054L21.4389 51.0942L26.4576 46.1021C27.2871 46.6087 28.2442 46.8804 29.2457 46.8804C30.6765 46.8804 32.0182 46.3277 33.0203 45.3272C34.0291 44.326 34.5848 42.9898 34.5848 41.5645C34.5848 41.5512 34.5839 41.5381 34.5839 41.5249C34.5972 41.525 34.6105 41.5258 34.6238 41.5258C36.0526 41.5258 37.3932 40.9748 38.3967 39.976C39.4055 38.9748 39.9612 37.6384 39.9612 36.2132C39.9612 36.2 39.9603 36.1869 39.9603 36.1736C39.9738 36.1736 39.9872 36.1746 40.0008 36.1746C41.4292 36.1746 42.7705 35.6241 43.7807 34.6216C44.8295 33.5748 45.3482 32.1967 45.3382 30.8215C45.352 30.8216 45.3658 30.8224 45.3795 30.8224C46.8103 30.8222 48.1518 30.2697 49.1554 29.2677C50.1612 28.2667 50.7153 26.9309 50.7153 25.5065C50.7153 24.5103 50.4434 23.558 49.9367 22.7331L54.3354 18.3515C54.6632 18.0263 55.0674 17.8221 55.491 17.7379C55.5369 17.733 55.5821 17.7257 55.6269 17.7169C56.3066 17.6235 57.0204 17.8325 57.5402 18.3483C58.4206 19.2272 58.4206 20.6571 57.5434 21.5328L56.2037 22.8623C56.1993 22.8667 56.1945 22.8707 56.1901 22.8751L54.6471 24.4101C54.0454 25.0088 54.0448 25.9803 54.6457 26.5798C55.2469 27.1794 56.2216 27.1799 56.823 26.5811L58.168 25.2426C58.1683 25.2423 58.1687 25.242 58.169 25.2417L58.3723 25.0399C59.2552 24.1682 60.6855 24.17 61.5674 25.0476C61.9918 25.4687 62.2256 26.0329 62.2256 26.6361C62.2256 27.2393 61.9918 27.8034 61.5641 28.2278L60.2168 29.5732C60.2166 29.5733 60.2164 29.5735 60.2163 29.5738L58.6735 31.105C58.071 31.7029 58.069 32.6744 58.669 33.2747C59.2691 33.8751 60.2438 33.8769 60.8463 33.2791L62.3962 31.7409C62.8198 31.318 63.3874 31.0852 63.9947 31.0852C64.6021 31.0852 65.1698 31.318 65.5965 31.7439C66.0209 32.1652 66.2545 32.7293 66.2545 33.3326C66.2545 33.9357 66.0209 34.4998 65.5941 34.9234L62.908 37.6011C62.3069 38.2004 62.3071 39.1718 62.9083 39.7708C63.209 40.0703 63.6028 40.2199 63.9968 40.2199C64.3909 40.2199 64.785 40.07 65.0856 39.7703L66.402 38.458C66.4095 38.4509 66.4176 38.4446 66.4251 38.4372C66.8487 38.0143 67.4164 37.7815 68.0236 37.7815C68.631 37.7815 69.1986 38.0143 69.6238 38.4387C70.5033 39.3142 70.5025 40.7417 69.6238 41.6189L68.2853 42.9511C68.2849 42.9516 68.2843 42.952 68.2838 42.9525C68.2833 42.9529 68.2829 42.9536 68.2824 42.954L66.158 45.0684C65.5565 45.6673 65.5559 46.6388 66.1567 47.2382C66.4574 47.5382 66.8518 47.6883 67.2461 47.6883C67.6397 47.6883 68.0335 47.5387 68.3341 47.2396L69.3732 46.2053L74.3535 51.1625L60.1733 65.2759L55.0926 60.219C55.4468 59.992 55.7858 59.7251 56.1039 59.4081L57.4729 58.0455C58.0748 57.447 58.0754 56.4755 57.4744 55.876ZM83.3227 57.776L66.8209 74.2002C66.4349 74.5844 65.9182 74.7961 65.366 74.7961C64.8138 74.7961 64.2971 74.5844 63.9109 74.2001L61.1901 71.4922C60.8046 71.1086 60.5922 70.5952 60.5922 70.0466C60.5922 69.4981 60.8046 68.9847 61.1901 68.601L77.6919 52.1768C78.0781 51.7924 78.5946 51.5808 79.147 51.5808C79.6992 51.5808 80.2159 51.7924 80.603 52.1777L83.3228 54.8804C83.7084 55.2642 83.9207 55.7782 83.9207 56.3281C83.9206 56.8783 83.7082 57.3924 83.3227 57.776Z" fill="black"/>
<path d="M27.4193 8.6181C27.7199 8.917 28.1134 9.0663 28.5069 9.0663C28.9013 9.0663 29.2959 8.91609 29.5966 8.61582C30.1972 8.01604 30.1963 7.04469 29.5945 6.44613L23.9841 0.866533C23.3824 0.267973 22.4075 0.268735 21.8069 0.868666C21.2062 1.46844 21.2071 2.43979 21.809 3.03835L27.4193 8.6181Z" fill="black"/>
<path d="M67.2201 9.0663C67.6137 9.0663 68.0075 8.9167 68.3081 8.61765L73.9141 3.03789C74.5157 2.43918 74.5163 1.46768 73.9154 0.868209C73.3145 0.268735 72.3398 0.268126 71.7381 0.86699L66.132 6.44674C65.5305 7.04546 65.5299 8.01695 66.1308 8.61643C66.4315 8.91639 66.8258 9.0663 67.2201 9.0663Z" fill="black"/>
<path d="M18.4669 65.9961C17.8709 66.6003 17.8791 67.5717 18.4856 68.1657L18.49 68.17C18.7892 68.4631 19.1777 68.6091 19.566 68.6091C19.9645 68.6091 20.3631 68.4553 20.665 68.1493C21.2611 67.5451 21.2505 66.5715 20.6442 65.9775C20.0381 65.3835 19.0633 65.3919 18.4669 65.9961Z" fill="black"/>
<path d="M61.2401 53.6658C61.4743 53.6658 61.7119 53.6126 61.9349 53.5006C62.6941 53.119 62.9991 52.1964 62.6163 51.4399C62.2334 50.6833 61.3074 50.3793 60.5483 50.7609L60.5398 50.7651C59.7806 51.1468 59.4799 52.0672 59.8627 52.8238C60.133 53.3582 60.6766 53.6658 61.2401 53.6658Z" fill="black"/>
</svg>
