<svg width="379" height="65" viewBox="0 0 379 65" fill="none" xmlns="http://www.w3.org/2000/svg">
<path d="M149.413 20.1595C144.544 20.2814 135.774 20.5497 129.91 20.7691C104.271 21.6715 103.128 21.6959 74.8049 21.3788C53.5129 21.135 45.4881 21.1106 38.4322 21.3544C21.4633 21.8909 12.6186 22.8664 6.87945 24.8418C-2.66091 28.1096 -2.23855 33.6942 7.89808 38.6935C11.3267 40.3762 17.0658 42.2784 21.6372 43.2051C23.426 43.5709 25.0161 43.9123 25.19 43.9611C25.3888 44.0099 25.4881 44.5952 25.4881 45.717V47.3997H20.0968C15.3266 47.3997 14.4322 47.4728 12.6931 47.9362C8.71796 48.9848 7.87324 50.4724 8.9664 54.545C9.43845 56.3253 9.53783 58.008 9.2397 58.9834L9.04094 59.6663H13.7117C23.9478 59.6663 36.8173 60.8856 46.2335 62.739L49.4384 63.3731L92.9415 63.1048C116.842 62.9585 154.656 62.7146 176.917 62.5683C208.122 62.3488 224.246 62.3488 247.227 62.5683C263.625 62.739 278.78 62.9097 280.892 62.9829C283.003 63.0317 284.643 63.0317 284.494 62.9829C284.047 62.7634 252.867 61.8367 230.581 61.3734C213.587 61.0076 172.494 60.8369 158.035 61.0563C151.078 61.1783 145.339 61.2514 145.289 61.227C145.24 61.2027 145.339 60.9588 145.513 60.6905C145.761 60.3003 145.761 60.1052 145.538 59.837C145.19 59.4468 145.563 59.398 154.681 58.8127C171.128 57.7153 189.24 57.7885 222.134 59.0566C248.395 60.0565 256.718 60.2272 270.954 60.0565C278.258 59.9833 285.612 59.837 287.302 59.7638L290.333 59.5931V61.3246C290.333 62.9341 290.382 63.0805 290.904 63.178C291.202 63.2268 296.544 63.3975 302.755 63.5682C313.538 63.8121 323.475 64.1779 338.531 64.8119C344.643 65.0802 345.711 65.0802 348.742 64.69C350.606 64.4705 353.388 63.9584 354.954 63.5926C358.034 62.8122 362.134 61.4221 362.134 61.1539C362.134 60.6661 336.072 58.3006 320.27 57.3739C298.854 56.0814 281.289 55.4961 239.401 54.6426C228.817 54.4475 217.016 54.1792 213.19 54.0817L206.233 53.911L213.19 53.7159C221.587 53.472 253.115 53.6915 259.525 54.0329C262.059 54.1792 265.736 54.3987 267.724 54.545C276.37 55.1303 289.339 55.5937 309.339 56.0082C330.979 56.4716 342.084 56.8618 352.941 57.5934C358.01 57.9348 364.693 58.5445 366.606 58.8127C367.326 58.9347 367.972 58.6908 370.556 57.3008C375.351 54.7401 378.333 51.6918 378.929 48.7409C379.5 45.9608 376.593 42.8881 371.525 40.9127C369.637 40.1567 369.612 40.1567 364.643 40.1567H359.674L359.401 39.1569C359.103 38.1326 359.351 36.2792 359.923 35.2306C360.072 34.9623 360.146 34.7185 360.097 34.6697C360.022 34.5965 346.457 34.0112 320.767 32.9626L306.854 32.4017L319.401 32.5236C326.308 32.5968 338.382 32.7187 346.233 32.8163C362.084 33.0114 361.14 33.1089 361.14 31.4018C361.14 29.5241 359.699 28.3535 356.146 27.2805C352.916 26.305 350.159 26.1587 338.034 26.4025C320.569 26.7439 314.68 26.6708 308.221 26.0611C295.972 24.9149 282.059 24.1833 257.538 23.4517C236.693 22.8176 230.084 22.5982 221.637 22.2324C213.513 21.8666 210.78 21.6959 200.395 21.013C186.805 20.1107 166.184 19.7693 149.413 20.1595ZM230.035 29.1095C229.712 29.1582 229.165 29.1582 228.792 29.1095C228.395 29.0607 228.668 29.0119 229.339 29.0119C230.035 29.0119 230.333 29.0607 230.035 29.1095ZM238.904 29.5484C244.171 29.8655 251.873 30.2557 272.569 31.2555C279.277 31.5726 279.351 31.5969 274.432 31.475C263.128 31.2311 234.258 29.7679 231.575 29.329C230.333 29.1339 233.562 29.207 238.904 29.5484ZM283.575 31.792C283.326 31.8408 282.879 31.8408 282.581 31.792C282.258 31.7433 282.457 31.6945 283.003 31.6945C283.55 31.6701 283.798 31.7189 283.575 31.792ZM285.289 31.7676C285.215 31.8408 284.991 31.8652 284.817 31.792C284.618 31.7189 284.693 31.6457 284.966 31.6457C285.239 31.6213 285.389 31.6945 285.289 31.7676Z" fill="#FFD93A"/>
<path d="M285.438 63.0073C285.662 63.0561 286.01 63.0561 286.184 63.0073C286.333 62.9341 286.159 62.8854 285.736 62.8854C285.339 62.8854 285.19 62.9341 285.438 63.0073Z" fill="#FFD93A"/>
<path d="M126.548 35.252C126.548 37.34 125.828 39.08 124.388 40.472C122.972 41.84 120.8 42.524 117.872 42.524H113.048V53H109.772V27.908H117.872C120.704 27.908 122.852 28.592 124.316 29.96C125.804 31.328 126.548 33.092 126.548 35.252ZM117.872 39.824C119.696 39.824 121.04 39.428 121.904 38.636C122.768 37.844 123.2 36.716 123.2 35.252C123.2 32.156 121.424 30.608 117.872 30.608H113.048V39.824H117.872ZM129.396 43.064C129.396 41.048 129.804 39.284 130.62 37.772C131.436 36.236 132.552 35.048 133.968 34.208C135.408 33.368 137.004 32.948 138.756 32.948C140.484 32.948 141.984 33.32 143.256 34.064C144.528 34.808 145.476 35.744 146.1 36.872V33.272H149.412V53H146.1V49.328C145.452 50.48 144.48 51.44 143.184 52.208C141.912 52.952 140.424 53.324 138.72 53.324C136.968 53.324 135.384 52.892 133.968 52.028C132.552 51.164 131.436 49.952 130.62 48.392C129.804 46.832 129.396 45.056 129.396 43.064ZM146.1 43.1C146.1 41.612 145.8 40.316 145.2 39.212C144.6 38.108 143.784 37.268 142.752 36.692C141.744 36.092 140.628 35.792 139.404 35.792C138.18 35.792 137.064 36.08 136.056 36.656C135.048 37.232 134.244 38.072 133.644 39.176C133.044 40.28 132.744 41.576 132.744 43.064C132.744 44.576 133.044 45.896 133.644 47.024C134.244 48.128 135.048 48.98 136.056 49.58C137.064 50.156 138.18 50.444 139.404 50.444C140.628 50.444 141.744 50.156 142.752 49.58C143.784 48.98 144.6 48.128 145.2 47.024C145.8 45.896 146.1 44.588 146.1 43.1ZM158.224 36.476C158.8 35.348 159.616 34.472 160.672 33.848C161.752 33.224 163.06 32.912 164.596 32.912V36.296H163.732C160.06 36.296 158.224 38.288 158.224 42.272V53H154.948V33.272H158.224V36.476ZM172.373 35.972V47.6C172.373 48.56 172.577 49.244 172.985 49.652C173.393 50.036 174.101 50.228 175.109 50.228H177.521V53H174.569C172.745 53 171.377 52.58 170.465 51.74C169.553 50.9 169.097 49.52 169.097 47.6V35.972H166.541V33.272H169.097V28.304H172.373V33.272H177.521V35.972H172.373ZM183.183 30.068C182.559 30.068 182.031 29.852 181.599 29.42C181.167 28.988 180.951 28.46 180.951 27.836C180.951 27.212 181.167 26.684 181.599 26.252C182.031 25.82 182.559 25.604 183.183 25.604C183.783 25.604 184.287 25.82 184.695 26.252C185.127 26.684 185.343 27.212 185.343 27.836C185.343 28.46 185.127 28.988 184.695 29.42C184.287 29.852 183.783 30.068 183.183 30.068ZM184.767 33.272V53H181.491V33.272H184.767ZM189.126 43.1C189.126 41.06 189.534 39.284 190.35 37.772C191.166 36.236 192.294 35.048 193.734 34.208C195.198 33.368 196.866 32.948 198.738 32.948C201.162 32.948 203.154 33.536 204.714 34.712C206.298 35.888 207.342 37.52 207.846 39.608H204.318C203.982 38.408 203.322 37.46 202.338 36.764C201.378 36.068 200.178 35.72 198.738 35.72C196.866 35.72 195.354 36.368 194.202 37.664C193.05 38.936 192.474 40.748 192.474 43.1C192.474 45.476 193.05 47.312 194.202 48.608C195.354 49.904 196.866 50.552 198.738 50.552C200.178 50.552 201.378 50.216 202.338 49.544C203.298 48.872 203.958 47.912 204.318 46.664H207.846C207.318 48.68 206.262 50.3 204.678 51.524C203.094 52.724 201.114 53.324 198.738 53.324C196.866 53.324 195.198 52.904 193.734 52.064C192.294 51.224 191.166 50.036 190.35 48.5C189.534 46.964 189.126 45.164 189.126 43.1ZM213.909 30.068C213.285 30.068 212.757 29.852 212.325 29.42C211.893 28.988 211.677 28.46 211.677 27.836C211.677 27.212 211.893 26.684 212.325 26.252C212.757 25.82 213.285 25.604 213.909 25.604C214.509 25.604 215.013 25.82 215.421 26.252C215.853 26.684 216.069 27.212 216.069 27.836C216.069 28.46 215.853 28.988 215.421 29.42C215.013 29.852 214.509 30.068 213.909 30.068ZM215.493 33.272V53H212.217V33.272H215.493ZM224.353 36.908C225.001 35.78 225.961 34.844 227.233 34.1C228.529 33.332 230.029 32.948 231.733 32.948C233.485 32.948 235.069 33.368 236.485 34.208C237.925 35.048 239.053 36.236 239.869 37.772C240.685 39.284 241.093 41.048 241.093 43.064C241.093 45.056 240.685 46.832 239.869 48.392C239.053 49.952 237.925 51.164 236.485 52.028C235.069 52.892 233.485 53.324 231.733 53.324C230.053 53.324 228.565 52.952 227.269 52.208C225.997 51.44 225.025 50.492 224.353 49.364V62.36H221.077V33.272H224.353V36.908ZM237.745 43.064C237.745 41.576 237.445 40.28 236.845 39.176C236.245 38.072 235.429 37.232 234.397 36.656C233.389 36.08 232.273 35.792 231.049 35.792C229.849 35.792 228.733 36.092 227.701 36.692C226.693 37.268 225.877 38.12 225.253 39.248C224.653 40.352 224.353 41.636 224.353 43.1C224.353 44.588 224.653 45.896 225.253 47.024C225.877 48.128 226.693 48.98 227.701 49.58C228.733 50.156 229.849 50.444 231.049 50.444C232.273 50.444 233.389 50.156 234.397 49.58C235.429 48.98 236.245 48.128 236.845 47.024C237.445 45.896 237.745 44.576 237.745 43.064ZM263.405 42.38C263.405 43.004 263.369 43.664 263.297 44.36H247.529C247.649 46.304 248.309 47.828 249.509 48.932C250.733 50.012 252.209 50.552 253.937 50.552C255.353 50.552 256.529 50.228 257.465 49.58C258.425 48.908 259.097 48.02 259.481 46.916H263.009C262.481 48.812 261.425 50.36 259.841 51.56C258.257 52.736 256.289 53.324 253.937 53.324C252.065 53.324 250.385 52.904 248.897 52.064C247.433 51.224 246.281 50.036 245.441 48.5C244.601 46.94 244.181 45.14 244.181 43.1C244.181 41.06 244.589 39.272 245.405 37.736C246.221 36.2 247.361 35.024 248.825 34.208C250.313 33.368 252.017 32.948 253.937 32.948C255.809 32.948 257.465 33.356 258.905 34.172C260.345 34.988 261.449 36.116 262.217 37.556C263.009 38.972 263.405 40.58 263.405 42.38ZM260.021 41.696C260.021 40.448 259.745 39.38 259.193 38.492C258.641 37.58 257.885 36.896 256.925 36.44C255.989 35.96 254.945 35.72 253.793 35.72C252.137 35.72 250.721 36.248 249.545 37.304C248.393 38.36 247.733 39.824 247.565 41.696H260.021ZM271.977 27.908L271.581 45.908H268.845L268.449 27.908H271.977ZM270.357 53.216C269.733 53.216 269.205 53 268.773 52.568C268.341 52.136 268.125 51.608 268.125 50.984C268.125 50.36 268.341 49.832 268.773 49.4C269.205 48.968 269.733 48.752 270.357 48.752C270.957 48.752 271.461 48.968 271.869 49.4C272.301 49.832 272.517 50.36 272.517 50.984C272.517 51.608 272.301 52.136 271.869 52.568C271.461 53 270.957 53.216 270.357 53.216Z" fill="black"/>
<path d="M62 19.043C57.0838 19.043 52.2935 20.7581 48.5115 23.8723C48.1045 24.2074 48.0475 24.8075 48.3843 25.2128C48.7209 25.6179 49.324 25.6747 49.7313 25.3395C53.1708 22.5071 57.5279 20.9473 62 20.9473C72.6202 20.9473 81.2602 29.5468 81.2602 40.1172C81.2602 50.6876 72.6202 59.2871 62 59.2871C51.3798 59.2871 42.7398 50.6876 42.7398 40.1172C42.7398 35.6661 44.307 31.3294 47.1527 27.9058C47.4895 27.5006 47.4325 26.9004 47.0254 26.5652C46.6184 26.23 46.0152 26.2868 45.6786 26.6918C42.5497 30.4562 40.8265 35.224 40.8265 40.1172C40.8265 51.7375 50.325 61.1914 62 61.1914C73.675 61.1914 83.1735 51.7375 83.1735 40.1172C83.1735 28.4969 73.675 19.043 62 19.043Z" fill="black"/>
<path d="M62 57.3828C71.5651 57.3828 79.3469 49.6374 79.3469 40.1172C79.3469 30.597 71.5651 22.8516 62 22.8516C52.4349 22.8516 44.6531 30.597 44.6531 40.1172C44.6531 49.6374 52.4349 57.3828 62 57.3828ZM62 24.7559C70.5102 24.7559 77.4337 31.6469 77.4337 40.1172C77.4337 48.5875 70.5102 55.4785 62 55.4785C53.4898 55.4785 46.5663 48.5875 46.5663 40.1172C46.5663 31.6469 53.4898 24.7559 62 24.7559Z" fill="black"/>
<path d="M49.8491 37.0839L55.1904 42.3201L53.9615 49.6812C53.902 50.037 54.0496 50.3956 54.3429 50.6076C54.6358 50.8195 55.024 50.8485 55.3459 50.6824L62 47.2443L68.654 50.6825C68.7929 50.7542 68.944 50.7896 69.0946 50.7896C69.2931 50.7896 69.4906 50.7283 69.657 50.6077C69.9503 50.3957 70.0978 50.0372 70.0384 49.6813L68.8094 42.3202L74.1508 37.084C74.4089 36.8309 74.5013 36.4543 74.3893 36.1114C74.2773 35.7684 73.9802 35.5178 73.6219 35.4641L66.2083 34.3526L62.8555 27.6784C62.6934 27.356 62.3622 27.1521 61.9999 27.1521C61.6375 27.1521 61.3062 27.3559 61.1443 27.6784L57.7915 34.3526L50.3778 35.4641C50.0195 35.5178 49.7224 35.7683 49.6105 36.1114C49.4986 36.4542 49.5909 36.8307 49.8491 37.0839ZM58.5676 36.1621C58.8754 36.116 59.1415 35.9235 59.2807 35.6464L62 30.2334L64.7193 35.6465C64.8585 35.9237 65.1246 36.116 65.4324 36.1622L71.4453 37.0637L67.1131 41.3104C66.8913 41.5279 66.7897 41.8392 66.8407 42.1449L67.8374 48.1151L62.4407 45.3266C62.3024 45.2551 62.1511 45.2194 61.9999 45.2194C61.8486 45.2194 61.6973 45.2551 61.5591 45.3266L56.1624 48.1151L57.1591 42.1449C57.2101 41.8392 57.1085 41.5279 56.8866 41.3104L52.5545 37.0637L58.5676 36.1621Z" fill="black"/>
<path d="M72.523 17.5494V13.3301H73.4796C75.062 13.3301 76.3495 12.0486 76.3495 10.4736C76.3495 9.93789 76.2003 9.43643 75.9415 9.00745L82.4216 7.5951C82.8606 7.49937 83.1735 7.11242 83.1735 6.66504V0.952148C83.1735 0.426182 82.7453 0 82.2168 0H41.7832C41.2547 0 40.8265 0.426182 40.8265 0.952148V6.66504C40.8265 7.11242 41.1394 7.49937 41.5786 7.5951L48.0587 9.00745C47.7997 9.43643 47.6505 9.93789 47.6505 10.4736C47.6505 12.0486 48.938 13.3301 50.5204 13.3301H51.477V17.5494C42.9355 21.5108 37 30.1363 37 40.1172C37 53.8376 48.2149 65 62 65C75.7851 65 87 53.8376 87 40.1172C87 30.1363 81.0645 21.5108 72.523 17.5494ZM70.6097 16.7553C69.9834 16.5259 69.3449 16.3219 68.6964 16.1421V13.3301H70.6097V16.7553ZM66.7832 13.3301V15.6932C65.2343 15.3933 63.6356 15.2344 62 15.2344C60.3644 15.2344 58.7657 15.3933 57.2168 15.6932V13.3301H66.7832ZM51.477 1.9043H72.523V7.61719H51.477V1.9043ZM81.2602 5.89888L74.4362 7.38613V1.9043H81.2602V5.89888ZM42.7398 1.9043H49.5638V7.38613L42.7398 5.89888V1.9043ZM49.5638 10.4736C49.5638 9.94855 49.9929 9.52148 50.5204 9.52148H73.4796C74.0071 9.52148 74.4362 9.94855 74.4362 10.4736C74.4362 10.9987 74.0071 11.4258 73.4796 11.4258H50.5204C49.9929 11.4258 49.5638 10.9987 49.5638 10.4736ZM53.3903 13.3301H55.3036V16.1422C54.6551 16.3219 54.0166 16.526 53.3903 16.7554V13.3301ZM62 63.0957C49.2699 63.0957 38.9133 52.7876 38.9133 40.1172C38.9133 27.4468 49.2699 17.1387 62 17.1387C74.7301 17.1387 85.0867 27.4468 85.0867 40.1172C85.0867 52.7876 74.7301 63.0957 62 63.0957Z" fill="black"/>
</svg>
