<?xml version="1.0"?>
<svg xmlns="http://www.w3.org/2000/svg" xmlns:xlink="http://www.w3.org/1999/xlink" xmlns:svgjs="http://svgjs.com/svgjs" version="1.1" width="512" height="512" x="0" y="0" viewBox="0 0 512 512" style="enable-background:new 0 0 512 512" xml:space="preserve" class=""><g><path xmlns="http://www.w3.org/2000/svg" d="m263.402344 397.503906h112.746094c18.90625 0 34.730468-14.332031 36.59375-33.140625l13.507812-136.203125c6.246094-62.957031-43.207031-117.558594-106.476562-117.558594-63.265626 0-112.71875 54.601563-106.472657 117.558594l13.507813 136.203125c1.867187 18.808594 17.691406 33.140625 36.59375 33.140625zm0 0" fill="#627687" data-original="#627687" style=""/><path xmlns="http://www.w3.org/2000/svg" d="m425.90625 447.648438v56.851562h-212.261719v-56.851562c0-30.144532 16.445313-56.433594 40.855469-70.390626 11.835938-6.785156 25.554688-10.660156 40.179688-10.660156h50.1875c14.921874 0 28.90625 4.042969 40.917968 11.082032 24 14.066406 40.121094 40.121093 40.121094 69.96875zm0 0" fill="#523ad0" data-original="#3a82d0" style="" class=""/><path xmlns="http://www.w3.org/2000/svg" d="m425.90625 447.648438v56.851562h-17.167969v-56.851562c0-29.847657-16.121093-55.902344-40.121093-69.96875-12.011719-7.039063-25.996094-11.082032-40.917969-11.082032h17.167969c14.921874 0 28.90625 4.042969 40.917968 11.082032 24 14.066406 40.121094 40.121093 40.121094 69.96875zm0 0" fill="#1a0dce" data-original="#0d73ce" style="" class=""/><path xmlns="http://www.w3.org/2000/svg" d="m390.816406 451.871094v52.628906h-142.078125v-52.628906s39.121094-11.921875 71.039063 11.65625c31.921875-23.578125 71.039062-11.65625 71.039062-11.65625zm0 0" fill="#ebeef2" data-original="#ebeef2" style=""/><g xmlns="http://www.w3.org/2000/svg" fill="#f8c298"><path d="m319.777344 397.503906c-10.332032 0-18.710938-8.375-18.710938-18.707031v-52.480469h37.417969v52.480469c0 10.332031-8.375 18.707031-18.707031 18.707031zm0 0" fill="#f8c298" data-original="#f8c298" style=""/><path d="m429.792969 263.097656c0 13.914063-11.277344 25.191406-25.1875 25.191406-13.914063 0-25.191407-11.277343-25.191407-25.191406 0-13.910156 11.277344-25.1875 25.191407-25.1875 13.910156 0 25.1875 11.277344 25.1875 25.1875zm0 0" fill="#f8c298" data-original="#f8c298" style=""/><path d="m260.136719 263.097656c0 13.914063-11.277344 25.191406-25.1875 25.191406-13.914063 0-25.191407-11.277343-25.191407-25.191406 0-13.910156 11.277344-25.1875 25.191407-25.1875 13.910156 0 25.1875 11.277344 25.1875 25.1875zm0 0" fill="#f8c298" data-original="#f8c298" style=""/></g><path xmlns="http://www.w3.org/2000/svg" d="m240.410156 191.90625 12 96.085938c4.246094 33.976562 33.125 59.472656 67.367188 59.472656 34.238281 0 63.117187-25.5 67.363281-59.472656l12-96.085938zm0 0" fill="#ffd6c0" data-original="#ffd6c0" style=""/><path xmlns="http://www.w3.org/2000/svg" d="m228.15625 182.664062v27.714844s51.949219 18.488282 89.367188-15.769531c0 0 14.367187 45.675781 76.1875 55.089844 4.71875.722656 9.121093-2.574219 9.75-7.308594l7.933593-59.726563zm0 0" fill="#627687" data-original="#627687" style=""/><path xmlns="http://www.w3.org/2000/svg" d="m370.371094 287.117188c0 3.757812-3.046875 6.808593-6.808594 6.808593-3.757812 0-6.804688-3.050781-6.804688-6.808593 0-3.761719 3.046876-6.808594 6.804688-6.808594 3.761719 0 6.808594 3.046875 6.808594 6.808594zm0 0" fill="#ed7a98" data-original="#ed7a98" style=""/><path xmlns="http://www.w3.org/2000/svg" d="m282.796875 287.117188c0 3.757812-3.046875 6.808593-6.808594 6.808593-3.757812 0-6.808593-3.050781-6.808593-6.808593 0-3.761719 3.050781-6.808594 6.808593-6.808594 3.761719 0 6.808594 3.046875 6.808594 6.808594zm0 0" fill="#ed7a98" data-original="#ed7a98" style=""/><path xmlns="http://www.w3.org/2000/svg" d="m257.050781 504.5h-249.550781v-90.992188c0-32.679687 26.488281-59.167968 59.167969-59.167968h131.214843c32.679688 0 59.167969 26.488281 59.167969 59.167968zm0 0" fill="#9d5feb" data-original="#5f9eeb" style="" class=""/><path xmlns="http://www.w3.org/2000/svg" d="m89.671875 354.339844h88.046875v150.160156h-88.046875zm0 0" fill="#ebeef2" data-original="#ebeef2" style=""/><path xmlns="http://www.w3.org/2000/svg" d="m257.050781 413.507812v90.992188h-20.164062v-90.992188c0-32.671874-26.496094-59.167968-59.167969-59.167968h20.171875c32.671875 0 59.160156 26.496094 59.160156 59.167968zm0 0" fill="#523ad0" data-original="#3a82d0" style="" class=""/><path xmlns="http://www.w3.org/2000/svg" d="m133.695312 387.65625c-11.140624 0-20.167968-9.03125-20.167968-20.167969v-56.574219h40.335937v56.574219c0 11.136719-9.03125 20.167969-20.167969 20.167969zm0 0" fill="#e39f6e" data-original="#e39f6e" style="" class=""/><path xmlns="http://www.w3.org/2000/svg" d="m26.996094 232.019531h213.394531l5.628906-27.453125c14.574219-71.101562-39.746093-137.6875-112.324219-137.6875-72.582031 0-126.902343 66.585938-112.324218 137.6875zm0 0" fill="#455e6d" data-original="#455e6d" style="" class=""/><path xmlns="http://www.w3.org/2000/svg" d="m252.292969 242.765625c0 14.996094-12.15625 27.152344-27.152344 27.152344-15 0-27.15625-12.15625-27.15625-27.152344s12.15625-27.15625 27.15625-27.15625c14.996094 0 27.152344 12.160156 27.152344 27.15625zm0 0" fill="#e39f6e" data-original="#e39f6e" style="" class=""/><path xmlns="http://www.w3.org/2000/svg" d="m69.402344 242.765625c0 14.996094-12.15625 27.152344-27.152344 27.152344s-27.15625-12.15625-27.15625-27.152344 12.160156-27.15625 27.15625-27.15625 27.152344 12.160156 27.152344 27.15625zm0 0" fill="#e39f6e" data-original="#e39f6e" style="" class=""/><path xmlns="http://www.w3.org/2000/svg" d="m133.695312 333.710938c-36.914062 0-68.046874-27.488282-72.621093-64.113282l-13.507813-108.140625h172.253906l-13.507812 108.140625c-4.574219 36.625-35.707031 64.113282-72.617188 64.113282zm0 0" fill="#f8c298" data-original="#f8c298" style=""/><path xmlns="http://www.w3.org/2000/svg" d="m32.261719 168.929688s18.214843 18.066406 67.253906 19.378906c3.105469.082031 5.679687-2.410156 5.679687-5.519532v-7.277343s17.820313 11.695312 55.589844 12.789062c3.113282.089844 5.699219-2.398437 5.699219-5.515625v-4.128906s14.691406 8.96875 58.730469 9.683594c3.085937.046875 5.621094-2.433594 5.621094-5.519532v-30.597656h-198.574219zm0 0" fill="#455e6d" data-original="#455e6d" style="" class=""/><path xmlns="http://www.w3.org/2000/svg" d="m461.640625 7.5h-152.078125c-6.863281 0-12.429688 5.566406-12.429688 12.429688v99.515624c0 6.867188 5.566407 12.433594 12.429688 12.433594h26.734375l11.363281 14.691406c4.976563 6.433594 14.691406 6.433594 19.664063 0l11.367187-14.691406h82.949219c6.863281 0 12.429687-5.566406 12.429687-12.433594v-99.515624c0-6.863282-5.566406-12.429688-12.429687-12.429688zm0 0" fill="#eb5777" data-original="#eb5777" style="" class=""/><path xmlns="http://www.w3.org/2000/svg" d="m290.292969 257.457031c-.109375-4.140625-3.554688-7.402343-7.699219-7.292969-4.144531.113282-7.40625 3.5625-7.292969 7.703126l.109375 3.996093c.109375 4.070313 3.445313 7.292969 7.492188 7.292969.070312 0 .140625 0 .207031-.003906 4.144531-.113282 7.40625-3.5625 7.292969-7.703125zm0 0" fill="#000000" data-original="#000000" style=""/><path xmlns="http://www.w3.org/2000/svg" d="m356.652344 250.164062c-.070313 0-.140625 0-.207032.003907-4.140624.109375-7.40625 3.558593-7.296874 7.699219l.109374 3.992187c.109376 4.074219 3.445313 7.296875 7.492188 7.296875.070312 0 .140625 0 .207031-.003906 4.140625-.109375 7.40625-3.558594 7.296875-7.699219l-.109375-3.992187c-.109375-4.070313-3.445312-7.296876-7.492187-7.296876zm0 0" fill="#000000" data-original="#000000" style=""/><path xmlns="http://www.w3.org/2000/svg" d="m346.621094 279.492188c-3.351563-2.429688-8.042969-1.679688-10.472656 1.675781-3.796876 5.242187-9.917969 8.375-16.371094 8.375-6.457032 0-12.578125-3.132813-16.375-8.375-2.429688-3.355469-7.117188-4.105469-10.472656-1.675781-3.355469 2.429687-4.105469 7.117187-1.675782 10.472656 6.609375 9.128906 17.269532 14.578125 28.519532 14.578125s21.914062-5.449219 28.523437-14.578125c2.429687-3.355469 1.679687-8.042969-1.675781-10.472656zm0 0" fill="#000000" data-original="#000000" style=""/><path xmlns="http://www.w3.org/2000/svg" d="m19.078125 377.554688c-3.589844-2.066407-8.175781-.828126-10.238281 2.761718-5.78125 10.054688-8.839844 21.535156-8.839844 33.191406v90.992188c0 4.140625 3.355469 7.5 7.5 7.5s7.5-3.359375 7.5-7.5v-90.992188c0-9.039062 2.367188-17.929687 6.84375-25.710937 2.0625-3.59375.824219-8.175781-2.765625-10.242187zm0 0" fill="#000000" data-original="#000000" style=""/><path xmlns="http://www.w3.org/2000/svg" d="m93.625 229.410156c-4.140625.113282-7.40625 3.558594-7.292969 7.699219l.117188 4.304687c.109375 4.070313 3.445312 7.296876 7.492187 7.296876.070313 0 .140625 0 .210938-.003907 4.140625-.113281 7.40625-3.5625 7.292968-7.699219l-.117187-4.304687c-.113281-4.140625-3.570313-7.402344-7.703125-7.292969zm0 0" fill="#000000" data-original="#000000" style=""/><path xmlns="http://www.w3.org/2000/svg" d="m173.554688 248.710938c.070312 0 .140624 0 .210937-.003907 4.140625-.113281 7.40625-3.5625 7.289063-7.703125l-.117188-4.304687c-.113281-4.140625-3.539062-7.398438-7.703125-7.289063-4.140625.113282-7.40625 3.5625-7.289063 7.703125l.117188 4.300781c.109375 4.070313 3.445312 7.296876 7.492188 7.296876zm0 0" fill="#000000" data-original="#000000" style=""/><path xmlns="http://www.w3.org/2000/svg" d="m163.96875 271.382812c2.429688-3.355468 1.679688-8.042968-1.679688-10.476562-3.351562-2.425781-8.042968-1.675781-10.472656 1.679688-4.203125 5.804687-10.976562 9.269531-18.121094 9.269531-7.144531 0-13.921874-3.464844-18.125-9.269531-2.429687-3.355469-7.117187-4.105469-10.472656-1.679688-3.355468 2.433594-4.105468 7.121094-1.675781 10.476562 7.015625 9.6875 18.332031 15.472657 30.269531 15.472657 11.941406 0 23.257813-5.785157 30.277344-15.472657zm0 0" fill="#000000" data-original="#000000" style=""/><path xmlns="http://www.w3.org/2000/svg" d="m55.695312 423.921875c-4.140624 0-7.5 3.355469-7.5 7.5v73.078125c0 4.140625 3.359376 7.5 7.5 7.5 4.144532 0 7.5-3.359375 7.5-7.5v-73.078125c0-4.144531-3.355468-7.5-7.5-7.5zm0 0" fill="#000000" data-original="#000000" style=""/><path xmlns="http://www.w3.org/2000/svg" d="m208.855469 423.921875c-4.144531 0-7.5 3.355469-7.5 7.5v73.078125c0 4.140625 3.355469 7.5 7.5 7.5 4.140625 0 7.5-3.359375 7.5-7.5v-73.078125c0-4.144531-3.359375-7.5-7.5-7.5zm0 0" fill="#000000" data-original="#000000" style=""/><path xmlns="http://www.w3.org/2000/svg" d="m461.640625 0h-152.078125c-10.988281 0-19.929688 8.941406-19.929688 19.929688v31.738281c0 4.144531 3.355469 7.5 7.5 7.5 4.140626 0 7.5-3.355469 7.5-7.5v-31.738281c0-2.71875 2.210938-4.929688 4.929688-4.929688h152.078125c2.71875 0 4.929687 2.210938 4.929687 4.929688v99.519531c0 2.714843-2.210937 4.929687-4.929687 4.929687h-82.949219c-2.320312 0-4.511718 1.074219-5.933594 2.910156l-11.363281 14.691407c-1.289062 1.664062-2.996093 1.914062-3.902343 1.914062-.902344 0-2.609376-.25-3.898438-1.914062l-11.363281-14.691407c-1.421875-1.835937-3.613281-2.910156-5.933594-2.910156h-26.734375c-2.71875 0-4.929688-2.210937-4.929688-4.929687v-35.117188c0-4.144531-3.355468-7.5-7.5-7.5-4.144531 0-7.5 3.355469-7.5 7.5v22.773438c-16.515624 4.488281-31.75 12.640625-44.707031 23.867187-4.308593-9.441406-9.847656-18.40625-16.574219-26.652344-23.296874-28.558593-57.800781-44.9375-94.65625-44.9375-36.855468 0-71.359374 16.378907-94.660156 44.9375-23.296875 28.558594-32.414062 65.644532-25.011718 101.75l2.71875 13.265626c-5.675782 6.171874-9.148438 14.402343-9.148438 23.429687 0 19.105469 15.546875 34.652344 34.652344 34.652344 4.207031 0 8.285156-.765625 12.128906-2.203125 5.273438 28.523437 25.398438 51.449218 51.648438 61.074218v10.550782h-39.355469c-11.097657 0-22.089844 2.785156-31.78125 8.050781-3.640625 1.976563-4.988281 6.53125-3.011719 10.171875 1.359375 2.5 3.9375 3.921875 6.597656 3.921875 1.210938 0 2.4375-.292969 3.574219-.914063 7.503906-4.074218 16.015625-6.230468 24.621094-6.230468h15.503906v142.660156c0 4.140625 3.355469 7.5 7.5 7.5 4.140625 0 7.5-3.359375 7.5-7.5v-142.660156h8.855469v5.648437c0 15.253907 12.410156 27.664063 27.667968 27.664063 15.253907 0 27.664063-12.410156 27.664063-27.664063v-5.648437h8.859375v142.660156c0 4.140625 3.355469 7.5 7.5 7.5 4.140625 0 7.5-3.359375 7.5-7.5v-142.660156h12.667969c28.488281 0 51.667969 23.179687 51.667969 51.667968v90.992188c0 4.140625 3.355468 7.5 7.5 7.5 4.140624 0 7.5-3.359375 7.5-7.5v-47.789062c13.117187-1.160157 33.242187-.097657 50.765624 12.847656 1.324219.976562 2.890626 1.46875 4.457032 1.46875s3.132812-.492188 4.457031-1.46875c21.871094-16.152344 48.054687-13.714844 59.082031-11.699219v46.640625c0 4.140625 3.355469 7.5 7.5 7.5 4.140625 0 7.5-3.359375 7.5-7.5v-66.394531c0-4.144531-3.359375-7.5-7.5-7.5-4.144531 0-7.5 3.355469-7.5 7.5v4.5c-4.222656-.667969-9.601562-1.238281-15.726562-1.273438v-63.621093c29.460937 9.59375 50.820312 37.308593 50.820312 69.929687v56.859375c0 4.140625 3.355469 7.5 7.5 7.5 4.140625 0 7.5-3.359375 7.5-7.5v-56.859375c0-22.730469-8.613281-43.488281-22.746094-59.179687 5.351563-6.652344 8.683594-14.71875 9.542969-23.359376l2.085938-21.03125c.40625-4.121093-2.601563-7.792968-6.722657-8.203124-4.132812-.410157-7.796874 2.601562-8.203124 6.722656l-2.085938 21.03125c-.527344 5.324218-2.480469 10.316406-5.609375 14.527344-14.8125-11.707032-33.441406-18.78125-53.6875-19.035157v-8.875c24.160156-9 42.699219-30.078125 47.78125-56.304687 3.464844 1.214844 7.132813 1.855468 10.835937 1.855468 2.578126 0 5.085938-.308593 7.492188-.875l-1.488281 15.015626c-.410157 4.121093 2.601562 7.796874 6.722656 8.203124.25.027344.5.039063.75.039063 3.808594 0 7.070313-2.890625 7.453125-6.761719l2.539062-25.585937c5.703126-5.886719 9.222657-13.898438 9.222657-22.722657 0-6.511718-1.921875-12.578124-5.214844-17.679687l1.636719-16.519531c3.300781-33.269532-7.878906-65.613282-30.308594-89.523438h58.230469c10.992187 0 19.933593-8.9375 19.933593-19.929687v-99.519531c0-10.988282-8.941406-19.929688-19.929687-19.929688zm-216.847656 242.765625c0 10.835937-8.816407 19.652344-19.652344 19.652344-3.582031 0-7.003906-.957031-10.027344-2.757813l4.464844-35.75c1.789063-.527344 3.648437-.796875 5.5625-.796875 10.835937-.003906 19.652344 8.816407 19.652344 19.652344zm-19.070313 34.636719c6.273438-.101563 12.148438-1.878906 17.195313-4.90625l.746093 5.988281c-2.640624 1.503906-5.609374 2.304687-8.714843 2.304687-3.3125 0-6.449219-.9375-9.148438-2.566406zm-175.0625-163.601563c20.4375-25.050781 50.703125-39.421875 83.035156-39.421875 32.328126 0 62.59375 14.367188 83.03125 39.421875 20.4375 25.054688 28.4375 57.585938 21.941407 89.257813l-1.476563 7.21875c-3.757812-1.398438-7.816406-2.167969-12.054687-2.167969-1.207031 0-2.410157.078125-3.609375.203125l1.5625-12.515625c.664062.015625 1.324218.03125 2.003906.042969h.214844c3.441406 0 6.679687-1.324219 9.140625-3.746094 2.507812-2.464844 3.886719-5.757812 3.886719-9.269531v-13.894531c0-4.140626-3.355469-7.5-7.5-7.5-4.144532 0-7.5 3.359374-7.5 7.5v11.871093c-37.90625-.851562-52.070313-8.082031-52.992188-8.578125-2.296875-1.472656-5.125-1.519531-7.527344-.21875-2.417968 1.308594-3.832031 3.902344-3.832031 6.652344v2.082031c-33.390625-1.34375-49.550781-11.417969-49.671875-11.496093-2.304688-1.511719-5.257812-1.636719-7.679688-.328126-2.425781 1.308594-3.9375 3.84375-3.9375 6.601563v5.234375c-27.199218-1.007812-43.921874-7.296875-53.21875-12.464844-3.625-2.011718-8.1875-.707031-10.199218 2.914063-2.011719 3.621093-.707032 8.1875 2.910156 10.199219 1.683594.933593 3.570312 1.898437 5.667969 2.867187l3.003906 24.035156c-1.195313-.121093-2.398437-.1875-3.609375-.1875-4.238281 0-8.296875.765625-12.054688 2.164063l-1.476562-7.214844c-6.496094-31.675781 1.503906-64.207031 21.941406-89.261719zm-28.066406 128.964844c0-10.835937 8.816406-19.65625 19.65625-19.65625 1.90625 0 3.765625.28125 5.558594.808594l4.464844 35.742187c-3.023438 1.804688-6.445313 2.757813-10.023438 2.757813-10.839844 0-19.65625-8.816407-19.65625-19.652344zm45.921875 25.902344-9.820313-78.613281c10.527344 2.988281 23.910157 5.300781 40.601563 5.75 3.542969.082031 6.917969-1.214844 9.464844-3.695313 1.492187-1.453125 2.589843-3.195313 3.242187-5.105469 9.632813 3.707032 25.707032 8.132813 48.5625 8.792969 3.484375.101563 6.957032-1.238281 9.46875-3.683594.9375-.910156 1.71875-1.933593 2.332032-3.039062 7.136718 2.226562 18.5625 4.765625 35.691406 6.023437l-2.816406 22.5625c-.007813.0625-.015626.125-.023438.183594l-6.347656 50.824219c-4.097656 32.804687-32.117188 57.542969-65.179688 57.542969-33.058594 0-61.078125-24.738282-65.175781-57.542969zm65.179687 111.488281c-6.984374 0-12.667968-5.683594-12.667968-12.667969v-27.296875c4.136718.660156 8.363281 1.019532 12.667968 1.019532 4.300782 0 8.53125-.359376 12.664063-1.019532v27.296875c0 6.984375-5.679687 12.667969-12.664063 12.667969zm27.664063-33.316406v-10.550782c23.207031-8.511718 41.640625-27.40625 49.246094-51.386718.285156.320312.578125.632812.878906.941406l6.351563 64.050781c-6.304688-1.984375-13.003907-3.054687-19.953126-3.054687zm72.285156 10.445312-6.1875-62.375c2.417969.570313 4.929688.878906 7.492188.878906 3.75 0 7.394531-.636718 10.839843-1.847656 5.085938 26.226563 23.621094 47.300782 47.777344 56.296875v8.882813c-15.617187.195312-30.6875 4.429687-44 12.332031-4.507812-5.53125-9.886718-10.316406-15.921875-14.167969zm30.910157 84.378906v-28.15625c0-10.5625-2.480469-20.550781-6.871094-29.4375 4.539062-2.648437 9.324218-4.777343 14.28125-6.386718v63.679687c-2.617188.015625-5.101563.125-7.410156.300781zm88.035156-67.15625v67.871094c-10.472656 1.554688-21.875 5.0625-32.8125 12.050782-10.921875-6.96875-22.335938-10.476563-32.8125-12.027344v-67.890625c2.183594-.230469 4.386718-.355469 6.601562-.390625v4.675781c0 14.453125 11.757813 26.207031 26.210938 26.207031 14.449218 0 26.207031-11.757812 26.207031-26.207031v-4.667969c2.226563.035156 4.429687.152344 6.605469.378906zm-21.605469 4.289063c0 6.179687-5.027344 11.207031-11.207031 11.207031-6.179688 0-11.210938-5.027344-11.210938-11.207031v-24.679687c3.667969.550781 7.40625.847656 11.210938.847656 3.800781 0 7.542968-.296875 11.207031-.847656zm-11.207031-38.832031c-30.394532 0-56.15625-22.746094-59.921875-52.902344l-3.625-29.015625c2.277343-4.613281 3.5625-9.800781 3.5625-15.28125 0-7.511719-2.410157-14.464844-6.484375-20.148437 18.21875 1.21875 41.027344-1.417969 61.382812-16.054688 7.640625 14.148438 26.855469 39.652344 68.957032 48.894531l-3.949219 31.605469c-3.769531 30.160156-29.527344 52.902344-59.921875 52.902344zm76.109375-61.476563 2.699219-21.59375c2.15625-.496093 4.210937-1.4375 6.042968-2.808593 2.648438-1.988282 4.5625-4.679688 5.582032-7.75 7.011718 2.351562 12.082031 8.96875 12.082031 16.765624 0 9.753907-7.933594 17.6875-17.6875 17.6875-3.113281 0-6.078125-.792968-8.71875-2.300781zm22.902343-51.066406-.59375 5.960937c-1.816406-.835937-3.726562-1.511718-5.707031-2.003906l2.117188-15.910156c.542969-4.105469-2.34375-7.875-6.449219-8.421875-4.097656-.539063-7.875 2.339844-8.421875 6.445313l-3.707031 27.910156c-.039063.285156-.175782.511718-.402344.6875-.160156.121094-.429688.25-.785156.195312-56.101563-8.542968-69.625-48.273437-70.160156-49.925781-.773438-2.445313-2.734376-4.328125-5.210938-4.996094-2.476562-.664062-5.117188-.019531-7.007812 1.710938-18.773438 17.191406-41.714844 19.867187-59.398438 18.484375l.304688-1.484375c4.152343-20.257813 3.101562-40.820313-2.730469-60.015625 11.171875-10.8125 24.589843-18.796875 39.277343-23.40625 1.542969 9.46875 9.753907 16.726562 19.652344 16.726562h23.050782l9.113281 11.78125c3.804687 4.917969 9.550781 7.734375 15.765625 7.734375s11.960937-2.816406 15.765625-7.734375l8.691406-11.238281c26.417969 21.183594 40.179687 53.792969 36.835937 87.5zm0 0" fill="#000000" data-original="#000000" style=""/><path xmlns="http://www.w3.org/2000/svg" d="m366.984375 46.4375c-4.144531 0-7.5 3.359375-7.5 7.5v6.792969h-6.792969c-4.144531 0-7.5 3.359375-7.5 7.5 0 4.144531 3.355469 7.5 7.5 7.5h6.792969v6.796875c0 4.140625 3.355469 7.5 7.5 7.5s7.5-3.359375 7.5-7.5v-6.796875h6.792969c4.144531 0 7.5-3.355469 7.5-7.5 0-4.140625-3.355469-7.5-7.5-7.5h-6.792969v-6.792969c0-4.140625-3.355469-7.5-7.5-7.5zm0 0" fill="#000000" data-original="#000000" style=""/><path xmlns="http://www.w3.org/2000/svg" d="m421.007812 37.578125c-2.242187-1.359375-5.03125-1.449219-7.355468-.234375l-9.53125 4.972656c-3.671875 1.914063-5.097656 6.445313-3.179688 10.117188 1.671875 3.207031 5.332032 4.699218 8.679688 3.753906v28.785156h-1.605469c-4.144531 0-7.5 3.355469-7.5 7.5 0 4.140625 3.355469 7.5 7.5 7.5h18.210937c4.144532 0 7.5-3.359375 7.5-7.5 0-4.144531-3.355468-7.5-7.5-7.5h-1.605468v-40.980468c0-2.621094-1.371094-5.054688-3.613282-6.414063zm0 0" fill="#000000" data-original="#000000" style=""/></g></svg>
