<svg width="379" height="98" viewBox="0 0 379 98" fill="none" xmlns="http://www.w3.org/2000/svg">
<path d="M149.413 20.1595C144.544 20.2814 135.774 20.5497 129.91 20.7691C104.271 21.6715 103.128 21.6959 74.8049 21.3788C53.5129 21.135 45.4881 21.1106 38.4322 21.3544C21.4633 21.8909 12.6186 22.8664 6.87945 24.8418C-2.66091 28.1096 -2.23855 33.6942 7.89808 38.6935C11.3267 40.3762 17.0658 42.2784 21.6372 43.2051C23.426 43.5709 25.0161 43.9123 25.19 43.9611C25.3888 44.0099 25.4881 44.5952 25.4881 45.717V47.3997H20.0968C15.3266 47.3997 14.4322 47.4728 12.6931 47.9362C8.71796 48.9848 7.87324 50.4724 8.9664 54.545C9.43845 56.3253 9.53783 58.008 9.2397 58.9834L9.04094 59.6663H13.7117C23.9478 59.6663 36.8173 60.8856 46.2335 62.739L49.4384 63.3731L92.9415 63.1048C116.842 62.9585 154.656 62.7146 176.917 62.5683C208.122 62.3488 224.246 62.3488 247.227 62.5683C263.625 62.739 278.78 62.9097 280.892 62.9829C283.003 63.0317 284.643 63.0317 284.494 62.9829C284.047 62.7634 252.867 61.8367 230.581 61.3734C213.587 61.0076 172.494 60.8369 158.035 61.0563C151.078 61.1783 145.339 61.2514 145.289 61.227C145.24 61.2027 145.339 60.9588 145.513 60.6905C145.761 60.3003 145.761 60.1052 145.538 59.837C145.19 59.4468 145.563 59.398 154.681 58.8127C171.128 57.7153 189.24 57.7885 222.134 59.0566C248.395 60.0565 256.718 60.2272 270.954 60.0565C278.258 59.9833 285.612 59.837 287.302 59.7638L290.333 59.5931V61.3246C290.333 62.9341 290.382 63.0805 290.904 63.178C291.202 63.2268 296.544 63.3975 302.755 63.5682C313.538 63.8121 323.475 64.1779 338.531 64.8119C344.643 65.0802 345.711 65.0802 348.742 64.69C350.606 64.4705 353.388 63.9584 354.954 63.5926C358.034 62.8122 362.134 61.4221 362.134 61.1539C362.134 60.6661 336.072 58.3006 320.27 57.3739C298.854 56.0814 281.289 55.4961 239.401 54.6426C228.817 54.4475 217.016 54.1792 213.19 54.0817L206.233 53.911L213.19 53.7159C221.587 53.472 253.115 53.6915 259.525 54.0329C262.059 54.1792 265.736 54.3987 267.724 54.545C276.37 55.1303 289.339 55.5937 309.339 56.0082C330.979 56.4716 342.084 56.8618 352.941 57.5934C358.01 57.9348 364.693 58.5445 366.606 58.8127C367.326 58.9347 367.972 58.6908 370.556 57.3008C375.351 54.7401 378.333 51.6918 378.929 48.7409C379.5 45.9608 376.593 42.8881 371.525 40.9127C369.637 40.1567 369.612 40.1567 364.643 40.1567H359.674L359.401 39.1569C359.103 38.1326 359.351 36.2792 359.923 35.2306C360.072 34.9623 360.146 34.7185 360.097 34.6697C360.022 34.5965 346.457 34.0112 320.767 32.9626L306.854 32.4017L319.401 32.5236C326.308 32.5968 338.382 32.7187 346.233 32.8163C362.084 33.0114 361.14 33.1089 361.14 31.4018C361.14 29.5241 359.699 28.3535 356.146 27.2805C352.916 26.305 350.159 26.1587 338.034 26.4025C320.569 26.7439 314.68 26.6708 308.221 26.0611C295.972 24.9149 282.059 24.1833 257.538 23.4517C236.693 22.8176 230.084 22.5982 221.637 22.2324C213.513 21.8666 210.78 21.6959 200.395 21.013C186.805 20.1107 166.184 19.7693 149.413 20.1595ZM230.035 29.1095C229.712 29.1582 229.165 29.1582 228.792 29.1095C228.395 29.0607 228.668 29.0119 229.339 29.0119C230.035 29.0119 230.333 29.0607 230.035 29.1095ZM238.904 29.5484C244.171 29.8655 251.873 30.2557 272.569 31.2555C279.277 31.5726 279.351 31.5969 274.432 31.475C263.128 31.2311 234.258 29.7679 231.575 29.329C230.333 29.1339 233.562 29.207 238.904 29.5484ZM283.575 31.792C283.326 31.8408 282.879 31.8408 282.581 31.792C282.258 31.7433 282.457 31.6945 283.003 31.6945C283.55 31.6701 283.798 31.7189 283.575 31.792ZM285.289 31.7676C285.215 31.8408 284.991 31.8652 284.817 31.792C284.618 31.7189 284.693 31.6457 284.966 31.6457C285.239 31.6213 285.389 31.6945 285.289 31.7676Z" fill="#FF2C2C"/>
<path d="M285.438 63.0073C285.662 63.0561 286.01 63.0561 286.184 63.0073C286.333 62.9341 286.159 62.8854 285.736 62.8854C285.339 62.8854 285.19 62.9341 285.438 63.0073Z" fill="#FF2C2C"/>
<path d="M113.302 37.436C113.302 34.988 113.854 32.792 114.958 30.848C116.062 28.88 117.562 27.344 119.458 26.24C121.378 25.136 123.502 24.584 125.83 24.584C128.566 24.584 130.954 25.244 132.994 26.564C135.034 27.884 136.522 29.756 137.458 32.18H133.534C132.838 30.668 131.83 29.504 130.51 28.688C129.214 27.872 127.654 27.464 125.83 27.464C124.078 27.464 122.506 27.872 121.114 28.688C119.722 29.504 118.63 30.668 117.838 32.18C117.046 33.668 116.65 35.42 116.65 37.436C116.65 39.428 117.046 41.18 117.838 42.692C118.63 44.18 119.722 45.332 121.114 46.148C122.506 46.964 124.078 47.372 125.83 47.372C127.654 47.372 129.214 46.976 130.51 46.184C131.83 45.368 132.838 44.204 133.534 42.692H137.458C136.522 45.092 135.034 46.952 132.994 48.272C130.954 49.568 128.566 50.216 125.83 50.216C123.502 50.216 121.378 49.676 119.458 48.596C117.562 47.492 116.062 45.968 114.958 44.024C113.854 42.08 113.302 39.884 113.302 37.436ZM150.939 50.324C149.091 50.324 147.411 49.904 145.899 49.064C144.411 48.224 143.235 47.036 142.371 45.5C141.531 43.94 141.111 42.14 141.111 40.1C141.111 38.084 141.543 36.308 142.407 34.772C143.295 33.212 144.495 32.024 146.007 31.208C147.519 30.368 149.211 29.948 151.083 29.948C152.955 29.948 154.647 30.368 156.159 31.208C157.671 32.024 158.859 33.2 159.723 34.736C160.611 36.272 161.055 38.06 161.055 40.1C161.055 42.14 160.599 43.94 159.687 45.5C158.799 47.036 157.587 48.224 156.051 49.064C154.515 49.904 152.811 50.324 150.939 50.324ZM150.939 47.444C152.115 47.444 153.219 47.168 154.251 46.616C155.283 46.064 156.111 45.236 156.735 44.132C157.383 43.028 157.707 41.684 157.707 40.1C157.707 38.516 157.395 37.172 156.771 36.068C156.147 34.964 155.331 34.148 154.323 33.62C153.315 33.068 152.223 32.792 151.047 32.792C149.847 32.792 148.743 33.068 147.735 33.62C146.751 34.148 145.959 34.964 145.359 36.068C144.759 37.172 144.459 38.516 144.459 40.1C144.459 41.708 144.747 43.064 145.323 44.168C145.923 45.272 146.715 46.1 147.699 46.652C148.683 47.18 149.763 47.444 150.939 47.444ZM174.974 29.912C177.374 29.912 179.318 30.644 180.806 32.108C182.294 33.548 183.038 35.636 183.038 38.372V50H179.798V38.84C179.798 36.872 179.306 35.372 178.322 34.34C177.338 33.284 175.994 32.756 174.29 32.756C172.562 32.756 171.182 33.296 170.15 34.376C169.142 35.456 168.638 37.028 168.638 39.092V50H165.362V30.272H168.638V33.08C169.286 32.072 170.162 31.292 171.266 30.74C172.394 30.188 173.63 29.912 174.974 29.912ZM192.385 32.972V44.6C192.385 45.56 192.589 46.244 192.997 46.652C193.405 47.036 194.113 47.228 195.121 47.228H197.533V50H194.581C192.757 50 191.389 49.58 190.477 48.74C189.565 47.9 189.109 46.52 189.109 44.6V32.972H186.553V30.272H189.109V25.304H192.385V30.272H197.533V32.972H192.385ZM219.502 39.38C219.502 40.004 219.466 40.664 219.394 41.36H203.626C203.746 43.304 204.406 44.828 205.606 45.932C206.83 47.012 208.306 47.552 210.034 47.552C211.45 47.552 212.626 47.228 213.562 46.58C214.522 45.908 215.194 45.02 215.578 43.916H219.106C218.578 45.812 217.522 47.36 215.938 48.56C214.354 49.736 212.386 50.324 210.034 50.324C208.162 50.324 206.482 49.904 204.994 49.064C203.53 48.224 202.378 47.036 201.538 45.5C200.698 43.94 200.278 42.14 200.278 40.1C200.278 38.06 200.686 36.272 201.502 34.736C202.318 33.2 203.458 32.024 204.922 31.208C206.41 30.368 208.114 29.948 210.034 29.948C211.906 29.948 213.562 30.356 215.002 31.172C216.442 31.988 217.546 33.116 218.314 34.556C219.106 35.972 219.502 37.58 219.502 39.38ZM216.118 38.696C216.118 37.448 215.842 36.38 215.29 35.492C214.738 34.58 213.982 33.896 213.022 33.44C212.086 32.96 211.042 32.72 209.89 32.72C208.234 32.72 206.818 33.248 205.642 34.304C204.49 35.36 203.83 36.824 203.662 38.696H216.118ZM241.323 30.272V50H238.047V47.084C237.423 48.092 236.547 48.884 235.419 49.46C234.315 50.012 233.091 50.288 231.747 50.288C230.211 50.288 228.831 49.976 227.607 49.352C226.383 48.704 225.411 47.744 224.691 46.472C223.995 45.2 223.647 43.652 223.647 41.828V30.272H226.887V41.396C226.887 43.34 227.379 44.84 228.363 45.896C229.347 46.928 230.691 47.444 232.395 47.444C234.147 47.444 235.527 46.904 236.535 45.824C237.543 44.744 238.047 43.172 238.047 41.108V30.272H241.323ZM236.103 24.692L228.435 28.796V26.348L236.103 21.848V24.692ZM245.63 40.064C245.63 38.048 246.038 36.284 246.854 34.772C247.67 33.236 248.786 32.048 250.202 31.208C251.642 30.368 253.25 29.948 255.026 29.948C256.562 29.948 257.99 30.308 259.31 31.028C260.63 31.724 261.638 32.648 262.334 33.8V23.36H265.646V50H262.334V46.292C261.686 47.468 260.726 48.44 259.454 49.208C258.182 49.952 256.694 50.324 254.99 50.324C253.238 50.324 251.642 49.892 250.202 49.028C248.786 48.164 247.67 46.952 246.854 45.392C246.038 43.832 245.63 42.056 245.63 40.064ZM262.334 40.1C262.334 38.612 262.034 37.316 261.434 36.212C260.834 35.108 260.018 34.268 258.986 33.692C257.978 33.092 256.862 32.792 255.638 32.792C254.414 32.792 253.298 33.08 252.29 33.656C251.282 34.232 250.478 35.072 249.878 36.176C249.278 37.28 248.978 38.576 248.978 40.064C248.978 41.576 249.278 42.896 249.878 44.024C250.478 45.128 251.282 45.98 252.29 46.58C253.298 47.156 254.414 47.444 255.638 47.444C256.862 47.444 257.978 47.156 258.986 46.58C260.018 45.98 260.834 45.128 261.434 44.024C262.034 42.896 262.334 41.588 262.334 40.1ZM279.786 50.324C277.938 50.324 276.258 49.904 274.746 49.064C273.258 48.224 272.082 47.036 271.218 45.5C270.378 43.94 269.958 42.14 269.958 40.1C269.958 38.084 270.39 36.308 271.254 34.772C272.142 33.212 273.342 32.024 274.854 31.208C276.366 30.368 278.058 29.948 279.93 29.948C281.802 29.948 283.494 30.368 285.006 31.208C286.518 32.024 287.706 33.2 288.57 34.736C289.458 36.272 289.902 38.06 289.902 40.1C289.902 42.14 289.446 43.94 288.534 45.5C287.646 47.036 286.434 48.224 284.898 49.064C283.362 49.904 281.658 50.324 279.786 50.324ZM279.786 47.444C280.962 47.444 282.066 47.168 283.098 46.616C284.13 46.064 284.958 45.236 285.582 44.132C286.23 43.028 286.554 41.684 286.554 40.1C286.554 38.516 286.242 37.172 285.618 36.068C284.994 34.964 284.178 34.148 283.17 33.62C282.162 33.068 281.07 32.792 279.894 32.792C278.694 32.792 277.59 33.068 276.582 33.62C275.598 34.148 274.806 34.964 274.206 36.068C273.606 37.172 273.306 38.516 273.306 40.1C273.306 41.708 273.594 43.064 274.17 44.168C274.77 45.272 275.562 46.1 276.546 46.652C277.53 47.18 278.61 47.444 279.786 47.444ZM301.194 50.324C299.682 50.324 298.326 50.072 297.126 49.568C295.926 49.04 294.978 48.32 294.282 47.408C293.586 46.472 293.202 45.404 293.13 44.204H296.514C296.61 45.188 297.066 45.992 297.882 46.616C298.722 47.24 299.814 47.552 301.158 47.552C302.406 47.552 303.39 47.276 304.11 46.724C304.83 46.172 305.19 45.476 305.19 44.636C305.19 43.772 304.806 43.136 304.038 42.728C303.27 42.296 302.082 41.876 300.474 41.468C299.01 41.084 297.81 40.7 296.874 40.316C295.962 39.908 295.17 39.32 294.498 38.552C293.85 37.76 293.526 36.728 293.526 35.456C293.526 34.448 293.826 33.524 294.426 32.684C295.026 31.844 295.878 31.184 296.982 30.704C298.086 30.2 299.346 29.948 300.762 29.948C302.946 29.948 304.71 30.5 306.054 31.604C307.398 32.708 308.118 34.22 308.214 36.14H304.938C304.866 35.108 304.446 34.28 303.678 33.656C302.934 33.032 301.926 32.72 300.654 32.72C299.478 32.72 298.542 32.972 297.846 33.476C297.15 33.98 296.802 34.64 296.802 35.456C296.802 36.104 297.006 36.644 297.414 37.076C297.846 37.484 298.374 37.82 298.998 38.084C299.646 38.324 300.534 38.6 301.662 38.912C303.078 39.296 304.23 39.68 305.118 40.064C306.006 40.424 306.762 40.976 307.386 41.72C308.034 42.464 308.37 43.436 308.394 44.636C308.394 45.716 308.094 46.688 307.494 47.552C306.894 48.416 306.042 49.1 304.938 49.604C303.858 50.084 302.61 50.324 301.194 50.324Z" fill="black"/>
<path d="M84.4224 23.9506H65.1802C64.6621 23.9506 64.2427 24.3924 64.2427 24.9369C64.2427 25.4819 64.6621 25.9231 65.1802 25.9231H84.4224C84.9405 25.9231 85.3599 25.4819 85.3599 24.9369C85.3599 24.3924 84.94 23.9506 84.4224 23.9506Z" fill="black"/>
<path d="M84.4224 29.2357H65.1802C64.6621 29.2357 64.2427 29.677 64.2427 30.222C64.2427 30.7664 64.6621 31.2082 65.1802 31.2082H84.4224C84.9405 31.2082 85.3599 30.7664 85.3599 30.222C85.3599 29.677 84.94 29.2357 84.4224 29.2357Z" fill="black"/>
<path d="M84.4224 34.5203H65.1802C64.6621 34.5203 64.2427 34.962 64.2427 35.5065C64.2427 36.0515 64.6621 36.4928 65.1802 36.4928H84.4224C84.9405 36.4928 85.3599 36.0515 85.3599 35.5065C85.3599 34.962 84.94 34.5203 84.4224 34.5203Z" fill="black"/>
<path d="M84.4224 39.8054H65.1802C64.6621 39.8054 64.2427 40.2471 64.2427 40.7916C64.2427 41.3361 64.6621 41.7779 65.1802 41.7779H84.4224C84.9405 41.7779 85.3599 41.3361 85.3599 40.7916C85.3599 40.2471 84.94 39.8054 84.4224 39.8054Z" fill="black"/>
<path d="M40.8809 12.2196C42.0874 12.0598 43.2876 11.9792 44.4487 11.9792C50.8687 11.9792 55.1187 14.3328 57.0806 15.7351C57.2417 15.8507 57.4253 15.9061 57.6065 15.9061C57.9068 15.9061 58.2017 15.7546 58.3829 15.4741C58.6739 15.0237 58.5625 14.4103 58.1343 14.1037C55.9947 12.574 51.3706 10.0067 44.4487 10.0067C43.21 10.0067 41.9312 10.093 40.6475 10.2625C40.1338 10.3303 39.7695 10.8234 39.834 11.3638C39.8984 11.9042 40.3657 12.2874 40.8809 12.2196Z" fill="black"/>
<path d="M40.8809 18.6876C42.0874 18.5279 43.2876 18.4472 44.4487 18.4472C50.8687 18.4472 55.1187 20.8003 57.0806 22.2031C57.2417 22.3187 57.4253 22.3737 57.6065 22.3737C57.9068 22.3737 58.2017 22.2227 58.3829 21.9422C58.6739 21.4912 58.5625 20.8779 58.1343 20.5717C55.9947 19.0415 51.3706 16.4747 44.4487 16.4747C43.21 16.4747 41.9312 16.5605 40.6475 16.73C40.1338 16.7984 39.7695 17.2915 39.834 17.8319C39.8984 18.3722 40.3657 18.7554 40.8809 18.6876Z" fill="black"/>
<path d="M57.6065 28.8417C57.9068 28.8417 58.2012 28.6907 58.3829 28.4098C58.6739 27.9593 58.5625 27.346 58.1343 27.0398C55.9942 25.5096 51.3706 22.9428 44.4487 22.9428C43.21 22.9428 41.9307 23.0286 40.6475 23.1981C40.1333 23.2659 39.7695 23.759 39.834 24.2999C39.8984 24.8403 40.3657 25.223 40.8809 25.1552C42.0874 24.9959 43.2876 24.9153 44.4487 24.9153C50.8687 24.9153 55.1187 27.2684 57.0806 28.6712C57.2417 28.7868 57.4248 28.8417 57.6065 28.8417Z" fill="black"/>
<path d="M58.1343 33.5079C56.4155 32.2787 52.7168 30.1315 47.2573 29.5568C46.7412 29.5018 46.2827 29.8978 46.2314 30.4397C46.1797 30.9817 46.5557 31.465 47.0708 31.5195C52.1177 32.0506 55.5083 34.0154 57.0806 35.1393C57.2417 35.2548 57.4248 35.3098 57.6065 35.3098C57.9068 35.3098 58.2012 35.1588 58.3828 34.8778C58.6739 34.4273 58.5625 33.814 58.1343 33.5079Z" fill="black"/>
<path d="M42.7461 29.4633C42.0562 29.5049 41.3501 29.5732 40.6475 29.6662C40.1333 29.734 39.7695 30.2271 39.834 30.7675C39.8936 31.2662 40.2974 31.6309 40.7627 31.6309C40.8018 31.6309 40.8413 31.6284 40.8809 31.6232C41.542 31.5359 42.2061 31.4717 42.8545 31.4321C43.3716 31.4008 43.7661 30.9344 43.7363 30.3904C43.7066 29.847 43.2627 29.4299 42.7461 29.4633Z" fill="black"/>
<path d="M84.0132 11.935H65.5894C64.8467 11.935 64.2427 12.5704 64.2427 13.3517V18.589C64.2427 19.3698 64.8467 20.0052 65.5894 20.0052H68.1304C68.6484 20.0052 69.0679 19.5634 69.0679 19.0189C69.0679 18.4745 68.6484 18.0327 68.1304 18.0327H66.1177V13.9075H83.4849V18.0327H72.4927C71.9746 18.0327 71.5552 18.4745 71.5552 19.0189C71.5552 19.5634 71.9746 20.0052 72.4927 20.0052H84.0132C84.7559 20.0052 85.3599 19.3698 85.3599 18.589V13.3517C85.3599 12.5704 84.7559 11.935 84.0132 11.935Z" fill="black"/>
<path d="M91.4795 11.276H89.54V7.67722C89.54 6.60777 88.7129 5.73762 87.6963 5.73762H61.3486C60.6343 5.11403 58.6187 3.51037 55.3936 2.1507C51.7207 0.602515 45.6987 -0.911255 37.8701 0.670318C37.0381 0.838287 36.4341 1.60724 36.4341 2.49845V5.73762H33.9341C33.1211 5.73762 32.46 6.43364 32.46 7.28837V11.276H30.5205C29.6821 11.276 29 11.9935 29 12.8755V51.163C29 52.045 29.6821 52.7631 30.5205 52.7631H55.4595C55.6235 52.7631 55.7798 52.8453 55.8774 52.984C56.3276 53.6199 57.0459 54 57.7998 54H64.2002C64.9536 54 65.6724 53.6199 66.1226 52.984C66.2202 52.8458 66.377 52.7631 66.5405 52.7631H91.4795C92.3179 52.7631 93 52.045 93 51.163V12.8755C93 11.9935 92.3179 11.276 91.4795 11.276ZM61.9375 7.71009H87.665V47.3527H61.9375V7.71009ZM38.3091 2.5904C45.605 1.13621 51.1982 2.52259 54.6104 3.94544C57.5117 5.15564 59.3745 6.59647 60.0625 7.1805V46.3464C57.5903 44.5804 52.271 41.6084 44.4678 41.6084C42.5615 41.6084 40.5059 41.7861 38.3091 42.2016V2.5904ZM34.335 7.71009H36.4341V42.3367C36.4341 42.8905 36.666 43.4118 37.0708 43.7668C37.4746 44.1202 38.0015 44.2661 38.5176 44.1664C45.7471 42.7713 51.2886 44.1674 54.6641 45.5846C56.0508 46.1671 57.1899 46.7933 58.0762 47.3522H34.335V7.71009ZM91.125 50.7906H66.5405C65.7871 50.7906 65.0684 51.1702 64.6182 51.8061C64.5205 51.9448 64.3638 52.0275 64.2002 52.0275H57.7998C57.6357 52.0275 57.4795 51.9448 57.3818 51.8067C56.9316 51.1702 56.2129 50.7906 55.4595 50.7906H30.875V13.2484H32.46V47.7744C32.46 48.6291 33.1216 49.3251 33.9341 49.3251H87.6963C88.7129 49.3251 89.54 48.455 89.54 47.385V13.2484H91.125V50.7906Z" fill="black"/>
</svg>
