<svg height="512pt" viewBox="-57 0 512 512" width="512pt" xmlns="http://www.w3.org/2000/svg"><path d="m34.136719 75.496094h232.875v119.4375h-232.875zm0 0" fill="#ba6f3c"/><path d="m290.433594 504.5h-282.933594v-125.023438c0-37.050781 30.03125-67.085937 67.082031-67.085937h148.769531c37.046876 0 67.082032 30.035156 67.082032 67.085937zm0 0" fill="#627687"/><path d="m290.429688 379.476562v125.019532h-22.859376v-125.019532c0-37.042968-30.042968-67.085937-67.085937-67.085937h22.871094c37.042969 0 67.074219 30.042969 67.074219 67.085937zm0 0" fill="#455e6d"/><path d="m7.5 426.242188h54.644531v78.257812h-54.644531zm0 0" fill="#f8c298"/><path d="m235.789062 426.242188h54.640626v78.257812h-54.640626zm0 0" fill="#f8c298"/><g fill="#e39f6e"><path d="m267.570312 426.242188h22.859376v78.257812h-22.859376zm0 0"/><path d="m150.574219 350.164062c-12.628907 0-22.867188-10.238281-22.867188-22.863281v-64.144531h45.730469v64.144531c0 12.625-10.234375 22.863281-22.863281 22.863281zm0 0"/><path d="m285.035156 185.890625c0 17.003906-13.78125 30.789063-30.785156 30.789063-17 0-30.785156-13.785157-30.785156-30.789063 0-17 13.785156-30.785156 30.785156-30.785156 17.003906 0 30.785156 13.785156 30.785156 30.785156zm0 0"/><path d="m77.683594 185.890625c0 17.003906-13.785156 30.789063-30.789063 30.789063-17 0-30.785156-13.785157-30.785156-30.789063 0-17 13.785156-30.785156 30.785156-30.785156 17.003907 0 30.789063 13.785156 30.789063 30.785156zm0 0"/></g><path d="m150.574219 289.003906c-41.847657 0-77.144531-31.164062-82.332031-72.691406l-8.105469-64.894531c-3.828125-30.644531 20.066406-57.710938 50.949219-57.710938h78.976562c30.882812 0 54.777344 27.066407 50.949219 57.710938l-8.105469 64.894531c-5.1875 41.527344-40.484375 72.691406-82.332031 72.691406zm0 0" fill="#f8c298"/><path d="m203.835938 114.460938h-169.9375c-6.152344 0-11.140626-4.988282-11.140626-11.140626v-11.796874c0-46.40625 37.617188-84.023438 84.023438-84.023438h169.9375c6.152344 0 11.140625 4.988281 11.140625 11.140625v11.796875c0 46.40625-37.617187 84.023438-84.023437 84.023438zm0 0" fill="#c2c6cc"/><path d="m200.722656 439.367188h-110.71875l10.421875-35.261719h110.71875zm0 0" fill="#f1dd47"/><path d="m389.570312 320.1875c0 43.929688-35.613281 79.542969-79.542968 79.542969-43.933594 0-79.546875-35.613281-79.546875-79.542969 0-43.933594 35.613281-79.546875 79.546875-79.546875 43.929687 0 79.542968 35.613281 79.542968 79.546875zm0 0" fill="#a0d37d"/><path d="m299.050781 356.65625c-3.316406 0-6.496093-1.316406-8.839843-3.664062l-20.050782-20.046876c-4.882812-4.882812-4.882812-12.796874 0-17.679687 4.882813-4.878906 12.796875-4.878906 17.679688 0l11.210937 11.210937 34.144531-34.148437c4.882813-4.878906 12.796876-4.878906 17.679688 0 4.882812 4.882813 4.882812 12.796875 0 17.679687l-42.988281 42.984376c-2.34375 2.347656-5.523438 3.664062-8.835938 3.664062zm0 0" fill="#ebeef2"/><path d="m7.5 471.882812c-4.144531 0-7.5 3.359376-7.5 7.5v25.117188c0 4.140625 3.355469 7.5 7.5 7.5s7.5-3.359375 7.5-7.5v-25.117188c0-4.140624-3.359375-7.5-7.5-7.5zm0 0"/><path d="m103.5625 171.753906c-4.140625.109375-7.402344 3.558594-7.289062 7.699219l.132812 4.882813c.109375 4.070312 3.445312 7.292968 7.492188 7.292968.070312 0 .140624 0 .210937-.003906 4.140625-.113281 7.402344-3.5625 7.289063-7.703125l-.132813-4.878906c-.113281-4.140625-3.574219-7.398438-7.703125-7.289063zm0 0"/><path d="m194.160156 191.628906c.066406 0 .140625 0 .207032-.003906 4.140624-.113281 7.40625-3.5625 7.292968-7.703125l-.132812-4.878906c-.113282-4.140625-3.566406-7.398438-7.703125-7.292969-4.140625.113281-7.40625 3.5625-7.292969 7.703125l.132812 4.882813c.113282 4.070312 3.449219 7.292968 7.496094 7.292968zm0 0"/><path d="m148.96875 234.878906c13.214844 0 25.742188-6.40625 33.507812-17.128906 2.429688-3.355469 1.679688-8.046875-1.675781-10.476562-3.355469-2.425782-8.042969-1.675782-10.472656 1.675781-4.957031 6.84375-12.941406 10.929687-21.359375 10.929687-8.421875 0-16.410156-4.085937-21.363281-10.929687-2.429688-3.351563-7.117188-4.101563-10.472657-1.675781-3.355468 2.429687-4.105468 7.121093-1.675781 10.476562 7.765625 10.726562 20.292969 17.128906 33.511719 17.128906zm0 0"/><path d="m211.144531 396.605469h-110.71875c-3.324219 0-6.25 2.1875-7.191406 5.375l-10.421875 35.257812c-.671875 2.269531-.234375 4.722657 1.183594 6.617188 1.414062 1.894531 3.644531 3.011719 6.007812 3.011719h110.71875c3.324219 0 6.25-2.1875 7.191406-5.375l10.425782-35.257813c.667968-2.269531.230468-4.722656-1.1875-6.617187-1.414063-1.894532-3.640625-3.011719-6.007813-3.011719zm-16.027343 35.261719h-95.078126l5.988282-20.261719h95.078125zm0 0"/><path d="m310.027344 233.140625c-42.789063 0-78.464844 31.03125-85.703125 71.769531-.324219-.003906-.648438-.019531-.972657-.019531h-42.414062v-13.667969c30.117188-10.78125 53.1875-37.121094 58.800781-69.890625 4.558594 1.871094 9.457031 2.84375 14.511719 2.84375 21.109375 0 38.285156-17.171875 38.285156-38.285156 0-13.675781-7.210937-25.691406-18.027344-32.464844v-64.894531c13.023438-15.8125 20.851563-36.054688 20.851563-58.09375v-11.796875c0-10.277344-8.363281-18.640625-18.640625-18.640625h-105.855469c-4.140625 0-7.5 3.359375-7.5 7.5s3.359375 7.5 7.5 7.5h105.855469c2.007812 0 3.640625 1.632812 3.640625 3.640625v11.800781c0 40.324219-31.359375 73.441406-70.96875 76.296875 9.863281-6.535156 18.507813-15.011719 25.339844-25.121093 2.316406-3.433594 1.414062-8.097657-2.019531-10.414063-3.429688-2.320313-8.09375-1.417969-10.410157 2.015625-10.6875 15.816406-26.671875 26.863281-44.714843 31.417969 8.605468-6.21875 16.183593-13.960938 22.308593-23.023438 2.316407-3.429687 1.414063-8.09375-2.019531-10.414062-3.429688-2.316407-8.09375-1.414063-10.410156 2.019531-14.277344 21.128906-38 33.742188-63.460938 33.742188h-3.140625c-4.140625 0-7.5 3.359374-7.5 7.5 0 4.140624 3.359375 7.5 7.5 7.5h82.976563c7.484375 0 14.761718-.910157 21.734375-2.613282 6.554687 9.011719 9.394531 19.953125 7.996093 31.140625l-8.105468 64.894531c-4.707032 37.695313-36.90625 66.121094-74.890625 66.121094-37.988281 0-70.183594-28.425781-74.890625-66.121094l-8.105469-64.894531c-1.25-10.007812.964844-20.035156 6.238281-28.527343h14.386719c4.144531 0 7.5-3.359376 7.5-7.5 0-4.144532-3.355469-7.5-7.5-7.5h-54.304687c-2.007813 0-3.640626-1.636719-3.640626-3.644532v-11.792968c0-42.195313 34.328126-76.523438 76.523438-76.523438h31.421875c4.144531 0 7.5-3.359375 7.5-7.5s-3.355469-7.5-7.5-7.5h-31.421875c-50.464844 0-91.523438 41.058594-91.523438 91.523438v11.796874c0 7.703126 4.699219 14.332032 11.378907 17.167969v32.9375c-10.8125 6.773438-18.027344 18.792969-18.027344 32.464844 0 21.113281 17.175781 38.289063 38.289063 38.289063 5.054687 0 9.953124-.976563 14.507812-2.84375 5.617188 32.765624 28.6875 59.105468 58.804688 69.886718v13.671875h-45.628907c-41.125 0-74.582031 33.457031-74.582031 74.582031v66.792969c0 4.140625 3.359375 7.5 7.5 7.5 4.144531 0 7.5-3.359375 7.5-7.5v-12.523437h39.644531v70.753906c0 4.140625 3.359375 7.5 7.5 7.5 4.144531 0 7.5-3.359375 7.5-7.5v-104.714844c0-4.144531-3.355469-7.5-7.5-7.5-4.140625 0-7.5 3.355469-7.5 7.5v18.957032h-39.644531v-39.269532c0-32.851562 26.730469-59.582031 59.582031-59.582031h45.625v7.40625c0 16.742187 13.621094 30.363281 30.367188 30.363281 16.742187 0 30.363281-13.621094 30.363281-30.363281v-7.40625h42.046875c0 .097656-.003906.195313-.003906.292969 0 38.542968 25.179687 71.304687 59.953125 82.722656v15.835938h-39.644532v-18.960938c0-4.140625-3.359374-7.5-7.5-7.5-4.144531 0-7.5 3.359375-7.5 7.5v104.71875c0 4.140625 3.355469 7.5 7.5 7.5 4.140626 0 7.5-3.359375 7.5-7.5v-70.757812h39.644532v70.757812c0 4.140625 3.355468 7.5 7.5 7.5 4.140625 0 7.5-3.359375 7.5-7.5v-98.113281c3.953125.550781 7.988281.84375 12.09375.84375 47.996094 0 87.042968-39.046875 87.042968-87.042969s-39.046874-87.046875-87.042968-87.046875zm-55.777344-23.960937c-4.464844 0-8.730469-1.242188-12.445312-3.601563l5.226562-41.832031c2.316406-.753906 4.734375-1.140625 7.21875-1.140625 12.839844 0 23.285156 10.445312 23.285156 23.285156s-10.445312 23.289063-23.285156 23.289063zm5.261719-106.152344v44.949218c-1.722657-.238281-3.476563-.371093-5.261719-.371093-1.832031 0-3.640625.140625-5.429688.390625.628907-11.9375-2.324218-23.53125-8.53125-33.617188 6.890626-3 13.335938-6.824218 19.222657-11.351562zm-217.875 18.933594h15.324219c-3.492188 8.175781-5.089844 17.0625-4.636719 26.035156-1.789063-.253906-3.597657-.390625-5.425781-.390625-1.785157 0-3.539063.132812-5.261719.371093zm-18.027344 63.929687c0-12.839844 10.445313-23.285156 23.285156-23.285156 2.480469 0 4.902344.402343 7.222657 1.160156l5.222656 41.808594c-3.714844 2.359375-7.972656 3.601562-12.445313 3.601562-12.839843.003907-23.285156-10.445312-23.285156-23.285156zm126.964844 156.773437c-8.472657 0-15.367188-6.894531-15.367188-15.367187v-32.125c5.007813.863281 10.136719 1.332031 15.367188 1.332031 5.226562 0 10.359375-.472656 15.363281-1.332031v32.125c0 8.472656-6.890625 15.367187-15.363281 15.367187zm159.453125 49.566407c-39.726563 0-72.046875-32.320313-72.046875-72.042969 0-39.726562 32.320312-72.046875 72.046875-72.046875 39.726562 0 72.042968 32.320313 72.042968 72.046875 0 39.722656-32.316406 72.042969-72.042968 72.042969zm0 0"/><path d="m356.179688 287.027344c-3.777344-3.777344-8.800782-5.859375-14.144532-5.859375s-10.363281 2.082031-14.144531 5.859375l-28.84375 28.84375-5.90625-5.90625c-3.777344-3.777344-8.796875-5.859375-14.140625-5.859375s-10.367188 2.082031-14.144531 5.859375c-3.777344 3.773437-5.855469 8.796875-5.855469 14.140625s2.078125 10.367187 5.855469 14.140625l20.050781 20.050781c3.777344 3.777344 8.800781 5.855469 14.140625 5.855469 5.34375 0 10.367187-2.078125 14.144531-5.855469l42.984375-42.988281c3.777344-3.777344 5.859375-8.796875 5.859375-14.140625 0-5.339844-2.082031-10.363281-5.855468-14.140625zm-10.609376 17.675781-42.984374 42.988281c-.945313.945313-2.199219 1.464844-3.535157 1.464844-1.335937 0-2.59375-.519531-3.535156-1.464844l-20.050781-20.046875c-.945313-.945312-1.464844-2.203125-1.464844-3.535156 0-1.335937.519531-2.59375 1.464844-3.539063.945312-.941406 2.199218-1.460937 3.535156-1.460937s2.589844.519531 3.535156 1.464844l11.210938 11.207031c2.929687 2.929688 7.675781 2.929688 10.605468 0l34.148438-34.144531c.941406-.945313 2.199219-1.464844 3.535156-1.464844 1.335938 0 2.589844.519531 3.535156 1.464844.945313.941406 1.464844 2.199219 1.464844 3.535156s-.519531 2.589844-1.464844 3.53125zm0 0"/></svg>