<svg width="407" height="98" viewBox="0 0 407 98" fill="none" xmlns="http://www.w3.org/2000/svg">
<path d="M235.124 24V6.9375H239.94C241.425 6.9375 242.737 7.26562 243.878 7.92188C245.019 8.57812 245.897 9.51172 246.515 10.7227C247.14 11.9336 247.456 13.3242 247.464 14.8945V15.9844C247.464 17.5938 247.151 19.0039 246.526 20.2148C245.909 21.4258 245.022 22.3555 243.866 23.0039C242.718 23.6523 241.378 23.9844 239.847 24H235.124ZM237.374 8.78906V22.1602H239.741C241.476 22.1602 242.823 21.6211 243.784 20.543C244.753 19.4648 245.237 17.9297 245.237 15.9375V14.9414C245.237 13.0039 244.78 11.5 243.866 10.4297C242.96 9.35156 241.671 8.80469 239.999 8.78906H237.374ZM255.796 24.2344C254.077 24.2344 252.679 23.6719 251.601 22.5469C250.522 21.4141 249.983 19.9023 249.983 18.0117V17.6133C249.983 16.3555 250.222 15.2344 250.698 14.25C251.183 13.2578 251.854 12.4844 252.714 11.9297C253.581 11.3672 254.519 11.0859 255.526 11.0859C257.175 11.0859 258.456 11.6289 259.37 12.7148C260.284 13.8008 260.741 15.3555 260.741 17.3789V18.2812H252.151C252.183 19.5312 252.546 20.543 253.241 21.3164C253.944 22.082 254.835 22.4648 255.913 22.4648C256.679 22.4648 257.327 22.3086 257.858 21.9961C258.39 21.6836 258.854 21.2695 259.253 20.7539L260.577 21.7852C259.515 23.418 257.921 24.2344 255.796 24.2344ZM255.526 12.8672C254.651 12.8672 253.917 13.1875 253.323 13.8281C252.729 14.4609 252.362 15.3516 252.222 16.5H258.573V16.3359C258.511 15.2344 258.214 14.3828 257.683 13.7812C257.151 13.1719 256.433 12.8672 255.526 12.8672ZM270.644 20.6367C270.644 20.0508 270.421 19.5977 269.976 19.2773C269.538 18.9492 268.769 18.668 267.667 18.4336C266.573 18.1992 265.702 17.918 265.054 17.5898C264.413 17.2617 263.937 16.8711 263.624 16.418C263.319 15.9648 263.167 15.4258 263.167 14.8008C263.167 13.7617 263.604 12.8828 264.479 12.1641C265.362 11.4453 266.487 11.0859 267.854 11.0859C269.292 11.0859 270.456 11.457 271.347 12.1992C272.245 12.9414 272.694 13.8906 272.694 15.0469H270.515C270.515 14.4531 270.261 13.9414 269.753 13.5117C269.253 13.082 268.62 12.8672 267.854 12.8672C267.065 12.8672 266.448 13.0391 266.003 13.3828C265.558 13.7266 265.335 14.1758 265.335 14.7305C265.335 15.2539 265.542 15.6484 265.956 15.9141C266.37 16.1797 267.116 16.4336 268.194 16.6758C269.28 16.918 270.159 17.207 270.831 17.543C271.503 17.8789 271.999 18.2852 272.319 18.7617C272.647 19.2305 272.812 19.8047 272.812 20.4844C272.812 21.6172 272.358 22.5273 271.452 23.2148C270.546 23.8945 269.37 24.2344 267.925 24.2344C266.909 24.2344 266.011 24.0547 265.229 23.6953C264.448 23.3359 263.835 22.8359 263.39 22.1953C262.952 21.5469 262.733 20.8477 262.733 20.0977H264.901C264.94 20.8242 265.229 21.4023 265.769 21.832C266.315 22.2539 267.034 22.4648 267.925 22.4648C268.745 22.4648 269.401 22.3008 269.894 21.9727C270.394 21.6367 270.644 21.1914 270.644 20.6367ZM283.464 24C283.339 23.75 283.237 23.3047 283.159 22.6641C282.151 23.7109 280.948 24.2344 279.55 24.2344C278.3 24.2344 277.272 23.8828 276.468 23.1797C275.671 22.4688 275.272 21.5703 275.272 20.4844C275.272 19.1641 275.772 18.1406 276.772 17.4141C277.78 16.6797 279.194 16.3125 281.015 16.3125H283.124V15.3164C283.124 14.5586 282.897 13.957 282.444 13.5117C281.991 13.0586 281.323 12.832 280.44 12.832C279.667 12.832 279.019 13.0273 278.495 13.418C277.972 13.8086 277.71 14.2812 277.71 14.8359H275.53C275.53 14.2031 275.753 13.5938 276.198 13.0078C276.651 12.4141 277.261 11.9453 278.026 11.6016C278.8 11.2578 279.647 11.0859 280.569 11.0859C282.03 11.0859 283.175 11.4531 284.003 12.1875C284.831 12.9141 285.261 13.918 285.292 15.1992V21.0352C285.292 22.1992 285.44 23.125 285.737 23.8125V24H283.464ZM279.866 22.3477C280.546 22.3477 281.19 22.1719 281.8 21.8203C282.409 21.4688 282.851 21.0117 283.124 20.4492V17.8477H281.425C278.769 17.8477 277.44 18.625 277.44 20.1797C277.44 20.8594 277.667 21.3906 278.12 21.7734C278.573 22.1562 279.155 22.3477 279.866 22.3477ZM289.417 24V12.9961H287.413V11.3203H289.417V10.2422C289.417 8.82812 289.819 7.72656 290.624 6.9375C291.437 6.14844 292.581 5.75391 294.058 5.75391C294.933 5.75391 296.038 5.99219 297.374 6.46875L297.011 8.29688C296.034 7.90625 295.104 7.71094 294.222 7.71094C293.292 7.71094 292.62 7.92188 292.206 8.34375C291.8 8.75781 291.597 9.38281 291.597 10.2188V11.3203H294.187V12.9961H291.597V24H289.417ZM298.452 24H296.272V11.3203H298.452V24ZM301.405 17.543C301.405 16.3008 301.647 15.1836 302.132 14.1914C302.624 13.1992 303.304 12.4336 304.171 11.8945C305.046 11.3555 306.042 11.0859 307.159 11.0859C308.886 11.0859 310.28 11.6836 311.343 12.8789C312.413 14.0742 312.948 15.6641 312.948 17.6484V17.8008C312.948 19.0352 312.71 20.1445 312.233 21.1289C311.765 22.1055 311.089 22.8672 310.206 23.4141C309.331 23.9609 308.323 24.2344 307.183 24.2344C305.464 24.2344 304.069 23.6367 302.999 22.4414C301.937 21.2461 301.405 19.6641 301.405 17.6953V17.543ZM303.585 17.8008C303.585 19.207 303.909 20.3359 304.558 21.1875C305.214 22.0391 306.089 22.4648 307.183 22.4648C308.284 22.4648 309.159 22.0352 309.808 21.1758C310.456 20.3086 310.78 19.0977 310.78 17.543C310.78 16.1523 310.448 15.0273 309.784 14.168C309.128 13.3008 308.253 12.8672 307.159 12.8672C306.089 12.8672 305.226 13.293 304.569 14.1445C303.913 14.9961 303.585 16.2148 303.585 17.8008ZM235.124 52V34.9375H240.702C242.554 34.9375 243.944 35.3203 244.874 36.0859C245.812 36.8516 246.28 37.9844 246.28 39.4844C246.28 40.2812 246.054 40.9883 245.601 41.6055C245.147 42.2148 244.53 42.6875 243.749 43.0234C244.671 43.2812 245.397 43.7734 245.929 44.5C246.468 45.2188 246.737 46.0781 246.737 47.0781C246.737 48.6094 246.241 49.8125 245.249 50.6875C244.257 51.5625 242.854 52 241.042 52H235.124ZM237.374 44.0195V50.1602H241.089C242.136 50.1602 242.96 49.8906 243.562 49.3516C244.171 48.8047 244.476 48.0547 244.476 47.1016C244.476 45.0469 243.358 44.0195 241.124 44.0195H237.374ZM237.374 42.2148H240.772C241.757 42.2148 242.542 41.9688 243.128 41.4766C243.722 40.9844 244.019 40.3164 244.019 39.4727C244.019 38.5352 243.745 37.8555 243.198 37.4336C242.651 37.0039 241.819 36.7891 240.702 36.7891H237.374V42.2148ZM255.866 41.2656C255.538 41.2109 255.183 41.1836 254.8 41.1836C253.378 41.1836 252.413 41.7891 251.905 43V52H249.737V39.3203H251.847L251.882 40.7852C252.593 39.6523 253.601 39.0859 254.905 39.0859C255.327 39.0859 255.647 39.1406 255.866 39.25V41.2656ZM265.229 52C265.104 51.75 265.003 51.3047 264.925 50.6641C263.917 51.7109 262.714 52.2344 261.315 52.2344C260.065 52.2344 259.038 51.8828 258.233 51.1797C257.437 50.4688 257.038 49.5703 257.038 48.4844C257.038 47.1641 257.538 46.1406 258.538 45.4141C259.546 44.6797 260.96 44.3125 262.78 44.3125H264.89V43.3164C264.89 42.5586 264.663 41.957 264.21 41.5117C263.757 41.0586 263.089 40.832 262.206 40.832C261.433 40.832 260.784 41.0273 260.261 41.418C259.737 41.8086 259.476 42.2812 259.476 42.8359H257.296C257.296 42.2031 257.519 41.5938 257.964 41.0078C258.417 40.4141 259.026 39.9453 259.792 39.6016C260.565 39.2578 261.413 39.0859 262.335 39.0859C263.796 39.0859 264.94 39.4531 265.769 40.1875C266.597 40.9141 267.026 41.918 267.058 43.1992V49.0352C267.058 50.1992 267.206 51.125 267.503 51.8125V52H265.229ZM261.632 50.3477C262.312 50.3477 262.956 50.1719 263.565 49.8203C264.175 49.4688 264.616 49.0117 264.89 48.4492V45.8477H263.19C260.534 45.8477 259.206 46.625 259.206 48.1797C259.206 48.8594 259.433 49.3906 259.886 49.7734C260.339 50.1562 260.921 50.3477 261.632 50.3477ZM277.839 48.6367C277.839 48.0508 277.616 47.5977 277.171 47.2773C276.733 46.9492 275.964 46.668 274.862 46.4336C273.769 46.1992 272.897 45.918 272.249 45.5898C271.608 45.2617 271.132 44.8711 270.819 44.418C270.515 43.9648 270.362 43.4258 270.362 42.8008C270.362 41.7617 270.8 40.8828 271.675 40.1641C272.558 39.4453 273.683 39.0859 275.05 39.0859C276.487 39.0859 277.651 39.457 278.542 40.1992C279.44 40.9414 279.89 41.8906 279.89 43.0469H277.71C277.71 42.4531 277.456 41.9414 276.948 41.5117C276.448 41.082 275.815 40.8672 275.05 40.8672C274.261 40.8672 273.644 41.0391 273.198 41.3828C272.753 41.7266 272.53 42.1758 272.53 42.7305C272.53 43.2539 272.737 43.6484 273.151 43.9141C273.565 44.1797 274.312 44.4336 275.39 44.6758C276.476 44.918 277.354 45.207 278.026 45.543C278.698 45.8789 279.194 46.2852 279.515 46.7617C279.843 47.2305 280.007 47.8047 280.007 48.4844C280.007 49.6172 279.554 50.5273 278.647 51.2148C277.741 51.8945 276.565 52.2344 275.12 52.2344C274.104 52.2344 273.206 52.0547 272.425 51.6953C271.644 51.3359 271.03 50.8359 270.585 50.1953C270.147 49.5469 269.929 48.8477 269.929 48.0977H272.097C272.136 48.8242 272.425 49.4023 272.964 49.832C273.511 50.2539 274.229 50.4648 275.12 50.4648C275.94 50.4648 276.597 50.3008 277.089 49.9727C277.589 49.6367 277.839 49.1914 277.839 48.6367ZM285.187 52H283.019V39.3203H285.187V52ZM282.843 35.957C282.843 35.6055 282.948 35.3086 283.159 35.0664C283.378 34.8242 283.698 34.7031 284.12 34.7031C284.542 34.7031 284.862 34.8242 285.081 35.0664C285.3 35.3086 285.409 35.6055 285.409 35.957C285.409 36.3086 285.3 36.6016 285.081 36.8359C284.862 37.0703 284.542 37.1875 284.12 37.1875C283.698 37.1875 283.378 37.0703 283.159 36.8359C282.948 36.6016 282.843 36.3086 282.843 35.957ZM291.022 52H288.854V34H291.022V52ZM299.765 52.2344C298.046 52.2344 296.647 51.6719 295.569 50.5469C294.491 49.4141 293.952 47.9023 293.952 46.0117V45.6133C293.952 44.3555 294.19 43.2344 294.667 42.25C295.151 41.2578 295.823 40.4844 296.683 39.9297C297.55 39.3672 298.487 39.0859 299.495 39.0859C301.144 39.0859 302.425 39.6289 303.339 40.7148C304.253 41.8008 304.71 43.3555 304.71 45.3789V46.2812H296.12C296.151 47.5312 296.515 48.543 297.21 49.3164C297.913 50.082 298.804 50.4648 299.882 50.4648C300.647 50.4648 301.296 50.3086 301.827 49.9961C302.358 49.6836 302.823 49.2695 303.222 48.7539L304.546 49.7852C303.483 51.418 301.89 52.2344 299.765 52.2344ZM299.495 40.8672C298.62 40.8672 297.886 41.1875 297.292 41.8281C296.698 42.4609 296.331 43.3516 296.19 44.5H302.542V44.3359C302.479 43.2344 302.183 42.3828 301.651 41.7812C301.12 41.1719 300.401 40.8672 299.495 40.8672ZM309.585 52H307.417V39.3203H309.585V52ZM307.241 35.957C307.241 35.6055 307.347 35.3086 307.558 35.0664C307.776 34.8242 308.097 34.7031 308.519 34.7031C308.94 34.7031 309.261 34.8242 309.479 35.0664C309.698 35.3086 309.808 35.6055 309.808 35.957C309.808 36.3086 309.698 36.6016 309.479 36.8359C309.261 37.0703 308.94 37.1875 308.519 37.1875C308.097 37.1875 307.776 37.0703 307.558 36.8359C307.347 36.6016 307.241 36.3086 307.241 35.957ZM319.194 41.2656C318.866 41.2109 318.511 41.1836 318.128 41.1836C316.706 41.1836 315.741 41.7891 315.233 43V52H313.065V39.3203H315.175L315.21 40.7852C315.921 39.6523 316.929 39.0859 318.233 39.0859C318.655 39.0859 318.976 39.1406 319.194 39.25V41.2656ZM320.39 45.543C320.39 44.3008 320.632 43.1836 321.116 42.1914C321.608 41.1992 322.288 40.4336 323.155 39.8945C324.03 39.3555 325.026 39.0859 326.144 39.0859C327.87 39.0859 329.265 39.6836 330.327 40.8789C331.397 42.0742 331.933 43.6641 331.933 45.6484V45.8008C331.933 47.0352 331.694 48.1445 331.218 49.1289C330.749 50.1055 330.073 50.8672 329.19 51.4141C328.315 51.9609 327.308 52.2344 326.167 52.2344C324.448 52.2344 323.054 51.6367 321.983 50.4414C320.921 49.2461 320.39 47.6641 320.39 45.6953V45.543ZM322.569 45.8008C322.569 47.207 322.894 48.3359 323.542 49.1875C324.198 50.0391 325.073 50.4648 326.167 50.4648C327.269 50.4648 328.144 50.0352 328.792 49.1758C329.44 48.3086 329.765 47.0977 329.765 45.543C329.765 44.1523 329.433 43.0273 328.769 42.168C328.112 41.3008 327.237 40.8672 326.144 40.8672C325.073 40.8672 324.21 41.293 323.554 42.1445C322.897 42.9961 322.569 44.2148 322.569 45.8008ZM234.257 73.5547C234.257 71.6094 234.718 70.0469 235.64 68.8672C236.562 67.6797 237.769 67.0859 239.261 67.0859C240.745 67.0859 241.921 67.5938 242.788 68.6094V62H244.956V80H242.964L242.858 78.6406C241.991 79.7031 240.784 80.2344 239.237 80.2344C237.769 80.2344 236.569 79.6328 235.64 78.4297C234.718 77.2266 234.257 75.6562 234.257 73.7188V73.5547ZM236.425 73.8008C236.425 75.2383 236.722 76.3633 237.315 77.1758C237.909 77.9883 238.729 78.3945 239.776 78.3945C241.151 78.3945 242.155 77.7773 242.788 76.543V70.7188C242.14 69.5234 241.144 68.9258 239.8 68.9258C238.737 68.9258 237.909 69.3359 237.315 70.1562C236.722 70.9766 236.425 72.1914 236.425 73.8008ZM253.593 80.2344C251.874 80.2344 250.476 79.6719 249.397 78.5469C248.319 77.4141 247.78 75.9023 247.78 74.0117V73.6133C247.78 72.3555 248.019 71.2344 248.495 70.25C248.979 69.2578 249.651 68.4844 250.511 67.9297C251.378 67.3672 252.315 67.0859 253.323 67.0859C254.972 67.0859 256.253 67.6289 257.167 68.7148C258.081 69.8008 258.538 71.3555 258.538 73.3789V74.2812H249.948C249.979 75.5312 250.343 76.543 251.038 77.3164C251.741 78.082 252.632 78.4648 253.71 78.4648C254.476 78.4648 255.124 78.3086 255.655 77.9961C256.187 77.6836 256.651 77.2695 257.05 76.7539L258.374 77.7852C257.312 79.418 255.718 80.2344 253.593 80.2344ZM253.323 68.8672C252.448 68.8672 251.714 69.1875 251.12 69.8281C250.526 70.4609 250.159 71.3516 250.019 72.5H256.37V72.3359C256.308 71.2344 256.011 70.3828 255.479 69.7812C254.948 69.1719 254.229 68.8672 253.323 68.8672ZM270.257 62.9375L275.835 76.8594L281.413 62.9375H284.331V80H282.081V73.3555L282.292 66.1836L276.69 80H274.968L269.378 66.2188L269.601 73.3555V80H267.351V62.9375H270.257ZM295.792 80C295.667 79.75 295.565 79.3047 295.487 78.6641C294.479 79.7109 293.276 80.2344 291.878 80.2344C290.628 80.2344 289.601 79.8828 288.796 79.1797C287.999 78.4688 287.601 77.5703 287.601 76.4844C287.601 75.1641 288.101 74.1406 289.101 73.4141C290.108 72.6797 291.522 72.3125 293.343 72.3125H295.452V71.3164C295.452 70.5586 295.226 69.957 294.772 69.5117C294.319 69.0586 293.651 68.832 292.769 68.832C291.995 68.832 291.347 69.0273 290.823 69.418C290.3 69.8086 290.038 70.2812 290.038 70.8359H287.858C287.858 70.2031 288.081 69.5938 288.526 69.0078C288.979 68.4141 289.589 67.9453 290.354 67.6016C291.128 67.2578 291.976 67.0859 292.897 67.0859C294.358 67.0859 295.503 67.4531 296.331 68.1875C297.159 68.9141 297.589 69.918 297.62 71.1992V77.0352C297.62 78.1992 297.769 79.125 298.065 79.8125V80H295.792ZM292.194 78.3477C292.874 78.3477 293.519 78.1719 294.128 77.8203C294.737 77.4688 295.179 77.0117 295.452 76.4492V73.8477H293.753C291.097 73.8477 289.769 74.625 289.769 76.1797C289.769 76.8594 289.995 77.3906 290.448 77.7734C290.901 78.1562 291.483 78.3477 292.194 78.3477ZM303.96 64.25V67.3203H306.327V68.9961H303.96V76.8594C303.96 77.3672 304.065 77.75 304.276 78.0078C304.487 78.2578 304.847 78.3828 305.354 78.3828C305.604 78.3828 305.948 78.3359 306.386 78.2422V80C305.815 80.1562 305.261 80.2344 304.722 80.2344C303.753 80.2344 303.022 79.9414 302.53 79.3555C302.038 78.7695 301.792 77.9375 301.792 76.8594V68.9961H299.483V67.3203H301.792V64.25H303.96ZM314.132 80.2344C312.413 80.2344 311.015 79.6719 309.937 78.5469C308.858 77.4141 308.319 75.9023 308.319 74.0117V73.6133C308.319 72.3555 308.558 71.2344 309.034 70.25C309.519 69.2578 310.19 68.4844 311.05 67.9297C311.917 67.3672 312.854 67.0859 313.862 67.0859C315.511 67.0859 316.792 67.6289 317.706 68.7148C318.62 69.8008 319.077 71.3555 319.077 73.3789V74.2812H310.487C310.519 75.5312 310.882 76.543 311.577 77.3164C312.28 78.082 313.171 78.4648 314.249 78.4648C315.015 78.4648 315.663 78.3086 316.194 77.9961C316.726 77.6836 317.19 77.2695 317.589 76.7539L318.913 77.7852C317.851 79.418 316.257 80.2344 314.132 80.2344ZM313.862 68.8672C312.987 68.8672 312.253 69.1875 311.659 69.8281C311.065 70.4609 310.698 71.3516 310.558 72.5H316.909V72.3359C316.847 71.2344 316.55 70.3828 316.019 69.7812C315.487 69.1719 314.769 68.8672 313.862 68.8672ZM323.636 67.3203L323.694 68.7266C324.624 67.6328 325.878 67.0859 327.456 67.0859C329.229 67.0859 330.437 67.7656 331.077 69.125C331.499 68.5156 332.046 68.0234 332.718 67.6484C333.397 67.2734 334.198 67.0859 335.12 67.0859C337.901 67.0859 339.315 68.5586 339.362 71.5039V80H337.194V71.6328C337.194 70.7266 336.987 70.0508 336.573 69.6055C336.159 69.1523 335.464 68.9258 334.487 68.9258C333.683 68.9258 333.015 69.168 332.483 69.6523C331.952 70.1289 331.644 70.7734 331.558 71.5859V80H329.378V71.6914C329.378 69.8477 328.476 68.9258 326.671 68.9258C325.249 68.9258 324.276 69.5312 323.753 70.7422V80H321.585V67.3203H323.636ZM350.472 80C350.347 79.75 350.245 79.3047 350.167 78.6641C349.159 79.7109 347.956 80.2344 346.558 80.2344C345.308 80.2344 344.28 79.8828 343.476 79.1797C342.679 78.4688 342.28 77.5703 342.28 76.4844C342.28 75.1641 342.78 74.1406 343.78 73.4141C344.788 72.6797 346.202 72.3125 348.022 72.3125H350.132V71.3164C350.132 70.5586 349.905 69.957 349.452 69.5117C348.999 69.0586 348.331 68.832 347.448 68.832C346.675 68.832 346.026 69.0273 345.503 69.418C344.979 69.8086 344.718 70.2812 344.718 70.8359H342.538C342.538 70.2031 342.761 69.5938 343.206 69.0078C343.659 68.4141 344.269 67.9453 345.034 67.6016C345.808 67.2578 346.655 67.0859 347.577 67.0859C349.038 67.0859 350.183 67.4531 351.011 68.1875C351.839 68.9141 352.269 69.918 352.3 71.1992V77.0352C352.3 78.1992 352.448 79.125 352.745 79.8125V80H350.472ZM346.874 78.3477C347.554 78.3477 348.198 78.1719 348.808 77.8203C349.417 77.4688 349.858 77.0117 350.132 76.4492V73.8477H348.433C345.776 73.8477 344.448 74.625 344.448 76.1797C344.448 76.8594 344.675 77.3906 345.128 77.7734C345.581 78.1562 346.163 78.3477 346.874 78.3477ZM358.64 64.25V67.3203H361.007V68.9961H358.64V76.8594C358.64 77.3672 358.745 77.75 358.956 78.0078C359.167 78.2578 359.526 78.3828 360.034 78.3828C360.284 78.3828 360.628 78.3359 361.065 78.2422V80C360.495 80.1562 359.94 80.2344 359.401 80.2344C358.433 80.2344 357.702 79.9414 357.21 79.3555C356.718 78.7695 356.472 77.9375 356.472 76.8594V68.9961H354.163V67.3203H356.472V64.25H358.64ZM365.905 80H363.737V67.3203H365.905V80ZM363.562 63.957C363.562 63.6055 363.667 63.3086 363.878 63.0664C364.097 62.8242 364.417 62.7031 364.839 62.7031C365.261 62.7031 365.581 62.8242 365.8 63.0664C366.019 63.3086 366.128 63.6055 366.128 63.957C366.128 64.3086 366.019 64.6016 365.8 64.8359C365.581 65.0703 365.261 65.1875 364.839 65.1875C364.417 65.1875 364.097 65.0703 363.878 64.8359C363.667 64.6016 363.562 64.3086 363.562 63.957ZM374.472 78.4648C375.245 78.4648 375.921 78.2305 376.499 77.7617C377.077 77.293 377.397 76.707 377.46 76.0039H379.511C379.472 76.7305 379.222 77.4219 378.761 78.0781C378.3 78.7344 377.683 79.2578 376.909 79.6484C376.144 80.0391 375.331 80.2344 374.472 80.2344C372.745 80.2344 371.37 79.6602 370.347 78.5117C369.331 77.3555 368.823 75.7773 368.823 73.7773V73.4141C368.823 72.1797 369.05 71.082 369.503 70.1211C369.956 69.1602 370.604 68.4141 371.448 67.8828C372.3 67.3516 373.304 67.0859 374.46 67.0859C375.882 67.0859 377.062 67.5117 377.999 68.3633C378.944 69.2148 379.448 70.3203 379.511 71.6797H377.46C377.397 70.8594 377.085 70.1875 376.522 69.6641C375.968 69.1328 375.28 68.8672 374.46 68.8672C373.358 68.8672 372.503 69.2656 371.894 70.0625C371.292 70.8516 370.991 71.9961 370.991 73.4961V73.9062C370.991 75.3672 371.292 76.4922 371.894 77.2812C372.495 78.0703 373.354 78.4648 374.472 78.4648ZM389.776 80C389.651 79.75 389.55 79.3047 389.472 78.6641C388.464 79.7109 387.261 80.2344 385.862 80.2344C384.612 80.2344 383.585 79.8828 382.78 79.1797C381.983 78.4688 381.585 77.5703 381.585 76.4844C381.585 75.1641 382.085 74.1406 383.085 73.4141C384.093 72.6797 385.507 72.3125 387.327 72.3125H389.437V71.3164C389.437 70.5586 389.21 69.957 388.757 69.5117C388.304 69.0586 387.636 68.832 386.753 68.832C385.979 68.832 385.331 69.0273 384.808 69.418C384.284 69.8086 384.022 70.2812 384.022 70.8359H381.843C381.843 70.2031 382.065 69.5938 382.511 69.0078C382.964 68.4141 383.573 67.9453 384.339 67.6016C385.112 67.2578 385.96 67.0859 386.882 67.0859C388.343 67.0859 389.487 67.4531 390.315 68.1875C391.144 68.9141 391.573 69.918 391.604 71.1992V77.0352C391.604 78.1992 391.753 79.125 392.05 79.8125V80H389.776ZM386.179 78.3477C386.858 78.3477 387.503 78.1719 388.112 77.8203C388.722 77.4688 389.163 77.0117 389.437 76.4492V73.8477H387.737C385.081 73.8477 383.753 74.625 383.753 76.1797C383.753 76.8594 383.979 77.3906 384.433 77.7734C384.886 78.1562 385.468 78.3477 386.179 78.3477Z" fill="black"/>
<path d="M185.073 42.8632L151.885 83.2595L151.885 4.50875e-05L185.073 42.8632Z" fill="#0092FF"/>
<path d="M185.073 42.8632L217.926 83.2594L217.926 -5.39201e-06L185.073 42.8632Z" fill="#0092FF"/>
<path d="M67.2993 40.5309C67.2993 63.7611 50.1288 84.124 36.8544 84.124C23.58 84.124 24.4356 63.7611 24.4356 40.5309C24.4356 17.3007 23.1794 0 36.4538 0C49.7282 0 67.2993 17.3007 67.2993 40.5309Z" fill="#02CC54"/>
<rect width="36.8543" height="84.124" fill="#01F965"/>
<rect x="76.9133" width="36.8543" height="84.124" fill="#FDB601"/>
<circle cx="114.168" cy="59.688" r="24.436" fill="#FFD83A"/>
<circle cx="115.771" cy="61.2903" r="20.4301" fill="#FFD93A"/>
<path d="M139.405 59.2874C139.405 73.0043 128.286 84.124 114.569 84.124V34.4508C128.286 34.4508 139.405 45.5705 139.405 59.2874Z" fill="#FDB601"/>
<circle cx="113.367" cy="18.0266" r="18.0266" fill="#FFD83A"/>
<path d="M132.595 18.0266C132.595 27.9824 124.525 36.0532 114.569 36.0532V0C124.525 0 132.595 8.07077 132.595 18.0266Z" fill="#FDB601"/>
<path d="M151.824 82.9222L185.073 42.4626L218.322 82.9222H151.824Z" fill="#005EB2"/>
</svg>
