<svg width="379" height="110" viewBox="0 0 379 110" fill="none" xmlns="http://www.w3.org/2000/svg">
<path d="M149.413 31.1595C144.544 31.2814 135.774 31.5497 129.91 31.7691C104.271 32.6715 103.128 32.6959 74.8049 32.3788C53.5129 32.135 45.4881 32.1106 38.4322 32.3544C21.4633 32.8909 12.6186 33.8664 6.87945 35.8418C-2.66091 39.1096 -2.23855 44.6942 7.89808 49.6935C11.3267 51.3762 17.0658 53.2784 21.6372 54.2051C23.426 54.5709 25.0161 54.9123 25.19 54.9611C25.3888 55.0099 25.4881 55.5952 25.4881 56.717V58.3997H20.0968C15.3266 58.3997 14.4322 58.4728 12.6931 58.9362C8.71796 59.9848 7.87324 61.4724 8.9664 65.545C9.43845 67.3253 9.53783 69.008 9.2397 69.9834L9.04094 70.6663H13.7117C23.9478 70.6663 36.8173 71.8856 46.2335 73.739L49.4384 74.3731L92.9415 74.1048C116.842 73.9585 154.656 73.7146 176.917 73.5683C208.122 73.3488 224.246 73.3488 247.227 73.5683C263.625 73.739 278.78 73.9097 280.892 73.9829C283.003 74.0317 284.643 74.0317 284.494 73.9829C284.047 73.7634 252.867 72.8367 230.581 72.3734C213.587 72.0076 172.494 71.8369 158.035 72.0563C151.078 72.1783 145.339 72.2514 145.289 72.227C145.24 72.2027 145.339 71.9588 145.513 71.6905C145.761 71.3003 145.761 71.1052 145.538 70.837C145.19 70.4468 145.563 70.398 154.681 69.8127C171.128 68.7153 189.24 68.7885 222.134 70.0566C248.395 71.0565 256.718 71.2272 270.954 71.0565C278.258 70.9833 285.612 70.837 287.302 70.7638L290.333 70.5931V72.3246C290.333 73.9341 290.382 74.0805 290.904 74.178C291.202 74.2268 296.544 74.3975 302.755 74.5682C313.538 74.8121 323.475 75.1779 338.531 75.8119C344.643 76.0802 345.711 76.0802 348.742 75.69C350.606 75.4705 353.388 74.9584 354.954 74.5926C358.034 73.8122 362.134 72.4221 362.134 72.1539C362.134 71.6661 336.072 69.3006 320.27 68.3739C298.854 67.0814 281.289 66.4961 239.401 65.6426C228.817 65.4475 217.016 65.1792 213.19 65.0817L206.233 64.911L213.19 64.7159C221.587 64.472 253.115 64.6915 259.525 65.0329C262.059 65.1792 265.736 65.3987 267.724 65.545C276.37 66.1303 289.339 66.5937 309.339 67.0082C330.979 67.4716 342.084 67.8618 352.941 68.5934C358.01 68.9348 364.693 69.5445 366.606 69.8127C367.326 69.9347 367.972 69.6908 370.556 68.3008C375.351 65.7401 378.333 62.6918 378.929 59.7409C379.5 56.9608 376.593 53.8881 371.525 51.9127C369.637 51.1567 369.612 51.1567 364.643 51.1567H359.674L359.401 50.1569C359.103 49.1326 359.351 47.2792 359.923 46.2306C360.072 45.9623 360.146 45.7185 360.097 45.6697C360.022 45.5965 346.457 45.0112 320.767 43.9626L306.854 43.4017L319.401 43.5236C326.308 43.5968 338.382 43.7187 346.233 43.8163C362.084 44.0114 361.14 44.1089 361.14 42.4018C361.14 40.5241 359.699 39.3535 356.146 38.2805C352.916 37.305 350.159 37.1587 338.034 37.4025C320.569 37.7439 314.68 37.6708 308.221 37.0611C295.972 35.9149 282.059 35.1833 257.538 34.4517C236.693 33.8176 230.084 33.5982 221.637 33.2324C213.513 32.8666 210.78 32.6959 200.395 32.013C186.805 31.1107 166.184 30.7693 149.413 31.1595ZM230.035 40.1095C229.712 40.1582 229.165 40.1582 228.792 40.1095C228.395 40.0607 228.668 40.0119 229.339 40.0119C230.035 40.0119 230.333 40.0607 230.035 40.1095ZM238.904 40.5484C244.171 40.8655 251.873 41.2557 272.569 42.2555C279.277 42.5726 279.351 42.5969 274.432 42.475C263.128 42.2311 234.258 40.7679 231.575 40.329C230.333 40.1339 233.562 40.207 238.904 40.5484ZM283.575 42.792C283.326 42.8408 282.879 42.8408 282.581 42.792C282.258 42.7433 282.457 42.6945 283.003 42.6945C283.55 42.6701 283.798 42.7189 283.575 42.792ZM285.289 42.7676C285.215 42.8408 284.991 42.8652 284.817 42.792C284.618 42.7189 284.693 42.6457 284.966 42.6457C285.239 42.6213 285.389 42.6945 285.289 42.7676Z" fill="#7978F8"/>
<path d="M285.438 74.0073C285.662 74.0561 286.01 74.0561 286.184 74.0073C286.333 73.9341 286.159 73.8854 285.736 73.8854C285.339 73.8854 285.19 73.9341 285.438 74.0073Z" fill="#7978F8"/>
<path d="M118.579 39.572V47.96H127.723V50.66H118.579V59.3H128.803V62H115.303V36.872H128.803V39.572H118.579ZM141.104 58.976L147.224 42.272H150.716L142.976 62H139.16L131.42 42.272H134.948L141.104 58.976ZM171.94 51.38C171.94 52.004 171.904 52.664 171.832 53.36H156.064C156.184 55.304 156.844 56.828 158.044 57.932C159.268 59.012 160.744 59.552 162.472 59.552C163.888 59.552 165.064 59.228 166 58.58C166.96 57.908 167.632 57.02 168.016 55.916H171.544C171.016 57.812 169.96 59.36 168.376 60.56C166.792 61.736 164.824 62.324 162.472 62.324C160.6 62.324 158.92 61.904 157.432 61.064C155.968 60.224 154.816 59.036 153.976 57.5C153.136 55.94 152.716 54.14 152.716 52.1C152.716 50.06 153.124 48.272 153.94 46.736C154.756 45.2 155.896 44.024 157.36 43.208C158.848 42.368 160.552 41.948 162.472 41.948C164.344 41.948 166 42.356 167.44 43.172C168.88 43.988 169.984 45.116 170.752 46.556C171.544 47.972 171.94 49.58 171.94 51.38ZM168.556 50.696C168.556 49.448 168.28 48.38 167.728 47.492C167.176 46.58 166.42 45.896 165.46 45.44C164.524 44.96 163.48 44.72 162.328 44.72C160.672 44.72 159.256 45.248 158.08 46.304C156.928 47.36 156.268 48.824 156.1 50.696H168.556ZM185.876 41.912C188.276 41.912 190.22 42.644 191.708 44.108C193.196 45.548 193.94 47.636 193.94 50.372V62H190.7V50.84C190.7 48.872 190.208 47.372 189.224 46.34C188.24 45.284 186.896 44.756 185.192 44.756C183.464 44.756 182.084 45.296 181.052 46.376C180.044 47.456 179.54 49.028 179.54 51.092V62H176.264V42.272H179.54V45.08C180.188 44.072 181.064 43.292 182.168 42.74C183.296 42.188 184.532 41.912 185.876 41.912ZM203.288 44.972V56.6C203.288 57.56 203.492 58.244 203.9 58.652C204.308 59.036 205.016 59.228 206.024 59.228H208.436V62H205.484C203.66 62 202.292 61.58 201.38 60.74C200.468 59.9 200.012 58.52 200.012 56.6V44.972H197.456V42.272H200.012V37.304H203.288V42.272H208.436V44.972H203.288ZM221.009 62.324C219.161 62.324 217.481 61.904 215.969 61.064C214.481 60.224 213.305 59.036 212.441 57.5C211.601 55.94 211.181 54.14 211.181 52.1C211.181 50.084 211.613 48.308 212.477 46.772C213.365 45.212 214.565 44.024 216.077 43.208C217.589 42.368 219.281 41.948 221.153 41.948C223.025 41.948 224.717 42.368 226.229 43.208C227.741 44.024 228.929 45.2 229.793 46.736C230.681 48.272 231.125 50.06 231.125 52.1C231.125 54.14 230.669 55.94 229.757 57.5C228.869 59.036 227.657 60.224 226.121 61.064C224.585 61.904 222.881 62.324 221.009 62.324ZM221.009 59.444C222.185 59.444 223.289 59.168 224.321 58.616C225.353 58.064 226.181 57.236 226.805 56.132C227.453 55.028 227.777 53.684 227.777 52.1C227.777 50.516 227.465 49.172 226.841 48.068C226.217 46.964 225.401 46.148 224.393 45.62C223.385 45.068 222.293 44.792 221.117 44.792C219.917 44.792 218.813 45.068 217.805 45.62C216.821 46.148 216.029 46.964 215.429 48.068C214.829 49.172 214.529 50.516 214.529 52.1C214.529 53.708 214.817 55.064 215.393 56.168C215.993 57.272 216.785 58.1 217.769 58.652C218.753 59.18 219.833 59.444 221.009 59.444ZM242.416 62.324C240.904 62.324 239.548 62.072 238.348 61.568C237.148 61.04 236.2 60.32 235.504 59.408C234.808 58.472 234.424 57.404 234.352 56.204H237.736C237.832 57.188 238.288 57.992 239.104 58.616C239.944 59.24 241.036 59.552 242.38 59.552C243.628 59.552 244.612 59.276 245.332 58.724C246.052 58.172 246.412 57.476 246.412 56.636C246.412 55.772 246.028 55.136 245.26 54.728C244.492 54.296 243.304 53.876 241.696 53.468C240.232 53.084 239.032 52.7 238.096 52.316C237.184 51.908 236.392 51.32 235.72 50.552C235.072 49.76 234.748 48.728 234.748 47.456C234.748 46.448 235.048 45.524 235.648 44.684C236.248 43.844 237.1 43.184 238.204 42.704C239.308 42.2 240.568 41.948 241.984 41.948C244.168 41.948 245.932 42.5 247.276 43.604C248.62 44.708 249.34 46.22 249.436 48.14H246.16C246.088 47.108 245.668 46.28 244.9 45.656C244.156 45.032 243.148 44.72 241.876 44.72C240.7 44.72 239.764 44.972 239.068 45.476C238.372 45.98 238.024 46.64 238.024 47.456C238.024 48.104 238.228 48.644 238.636 49.076C239.068 49.484 239.596 49.82 240.22 50.084C240.868 50.324 241.756 50.6 242.884 50.912C244.3 51.296 245.452 51.68 246.34 52.064C247.228 52.424 247.984 52.976 248.608 53.72C249.256 54.464 249.592 55.436 249.616 56.636C249.616 57.716 249.316 58.688 248.716 59.552C248.116 60.416 247.264 61.1 246.16 61.604C245.08 62.084 243.832 62.324 242.416 62.324Z" fill="black"/>
<path d="M85.7665 6.72542C85.6415 6.72027 85.5163 6.71941 85.3911 6.72299H80.6718V2.6145C80.672 0.971109 79.1234 0 77.5011 0H73.1506C71.5284 0 70.3486 0.971109 70.3486 2.6145V6.72284H52.6513V2.6145C52.6513 0.971109 51.4715 0 49.8493 0H45.4986C43.8765 0 42.3279 0.971109 42.3279 2.6145V6.72284H37.6088C34.5963 6.63777 32.0861 9.04281 32.0021 12.0944C31.9986 12.2211 31.9995 12.348 32.0045 12.4747V55.6506C32.0045 58.9374 34.3641 62 37.6086 62H85.3912C88.6358 62 90.9953 58.9374 90.9953 55.6506V12.4747C91.1187 9.42442 88.7776 6.85038 85.7665 6.72542ZM73.1506 2.98796H77.7224V11.2048H73.1506V2.98796ZM45.4988 2.98796H49.7019V11.2048H45.4988V2.98796ZM88.0458 55.6506C88.0458 57.294 87.0135 59.012 85.3912 59.012H37.6088C35.9865 59.012 34.9542 57.294 34.9542 55.6506V23.9037H88.0458V55.6506ZM88.0458 12.4747V20.9157H34.9541V12.4747C34.8292 11.0778 35.8458 9.84278 37.2247 9.71624C37.3523 9.70452 37.4808 9.7028 37.6086 9.71095H42.3279V11.3543C42.3279 12.9977 43.8764 14.1929 45.4986 14.1929H49.8493C51.3555 14.2348 52.61 13.0316 52.6513 11.5058C52.6527 11.4553 52.6527 11.4048 52.6513 11.3543V9.71081H70.3486V11.3542C70.3072 12.8801 71.4949 14.1509 73.0011 14.1927C73.051 14.1942 73.1008 14.1942 73.1506 14.1927H77.5012C79.1235 14.1927 80.672 12.9976 80.672 11.3542V9.71081H85.3912C86.7731 9.62259 87.9639 10.6859 88.051 12.0858C88.0591 12.2154 88.0574 12.3455 88.0458 12.4747Z" fill="black"/>
<path d="M53.315 44.2964L51.9877 51.7663C51.9352 52.0867 51.9871 52.4159 52.1357 52.7037C52.5133 53.4347 53.4044 53.7174 54.1261 53.3349L60.7625 49.8241L67.3989 53.3349L68.0625 53.4844C68.3825 53.4901 68.6948 53.3846 68.9473 53.1855C69.3881 52.8594 69.6149 52.3135 69.5373 51.7662L68.21 44.2963L73.5929 39.0674C73.9781 38.6458 74.1178 38.051 73.9616 37.4988C73.763 36.9884 73.3156 36.6202 72.7818 36.5277L65.408 35.4072L62.0898 28.6095C61.9451 28.307 61.704 28.0627 61.4054 27.9162C60.6723 27.5567 59.7903 27.8671 59.4352 28.6095L56.117 35.4072L48.7432 36.5277C48.2094 36.6201 47.762 36.9884 47.5634 37.4988C47.4071 38.051 47.547 38.6458 47.932 39.0674L53.315 44.2964ZM57.3706 38.2459C57.8337 38.1757 58.2261 37.8634 58.4029 37.4242L60.7625 32.6434L63.1221 37.4242C63.2991 37.8634 63.6913 38.1757 64.1544 38.2459L69.3898 38.9928L65.6291 42.653C65.2788 43.0043 65.1145 43.5036 65.1867 43.9976L66.0715 49.3012L61.426 46.7615L60.7623 46.6121L60.0987 46.7615L55.4532 49.3012L56.338 43.9976C56.4103 43.5036 56.2459 43.0043 55.8956 42.653L52.1349 38.9928L57.3706 38.2459Z" fill="black"/>
</svg>
