<svg width="379" height="68" viewBox="0 0 379 68" fill="none" xmlns="http://www.w3.org/2000/svg">
<path d="M149.413 23.1595C144.544 23.2814 135.774 23.5497 129.91 23.7691C104.271 24.6715 103.128 24.6959 74.8049 24.3788C53.5129 24.135 45.4881 24.1106 38.4322 24.3544C21.4633 24.8909 12.6186 25.8664 6.87945 27.8418C-2.66091 31.1096 -2.23855 36.6942 7.89808 41.6935C11.3267 43.3762 17.0658 45.2784 21.6372 46.2051C23.426 46.5709 25.0161 46.9123 25.19 46.9611C25.3888 47.0099 25.4881 47.5952 25.4881 48.717V50.3997H20.0968C15.3266 50.3997 14.4322 50.4728 12.6931 50.9362C8.71796 51.9848 7.87324 53.4724 8.9664 57.545C9.43845 59.3253 9.53783 61.008 9.2397 61.9834L9.04094 62.6663H13.7117C23.9478 62.6663 36.8173 63.8856 46.2335 65.739L49.4384 66.3731L92.9415 66.1048C116.842 65.9585 154.656 65.7146 176.917 65.5683C208.122 65.3488 224.246 65.3488 247.227 65.5683C263.625 65.739 278.78 65.9097 280.892 65.9829C283.003 66.0317 284.643 66.0317 284.494 65.9829C284.047 65.7634 252.867 64.8367 230.581 64.3734C213.587 64.0076 172.494 63.8369 158.035 64.0563C151.078 64.1783 145.339 64.2514 145.289 64.227C145.24 64.2027 145.339 63.9588 145.513 63.6905C145.761 63.3003 145.761 63.1052 145.538 62.837C145.19 62.4468 145.563 62.398 154.681 61.8127C171.128 60.7153 189.24 60.7885 222.134 62.0566C248.395 63.0565 256.718 63.2272 270.954 63.0565C278.258 62.9833 285.612 62.837 287.302 62.7638L290.333 62.5931V64.3246C290.333 65.9341 290.382 66.0805 290.904 66.178C291.202 66.2268 296.544 66.3975 302.755 66.5682C313.538 66.8121 323.475 67.1779 338.531 67.8119C344.643 68.0802 345.711 68.0802 348.742 67.69C350.606 67.4705 353.388 66.9584 354.954 66.5926C358.034 65.8122 362.134 64.4221 362.134 64.1539C362.134 63.6661 336.072 61.3006 320.27 60.3739C298.854 59.0814 281.289 58.4961 239.401 57.6426C228.817 57.4475 217.016 57.1792 213.19 57.0817L206.233 56.911L213.19 56.7159C221.587 56.472 253.115 56.6915 259.525 57.0329C262.059 57.1792 265.736 57.3987 267.724 57.545C276.37 58.1303 289.339 58.5937 309.339 59.0082C330.979 59.4716 342.084 59.8618 352.941 60.5934C358.01 60.9348 364.693 61.5445 366.606 61.8127C367.326 61.9347 367.972 61.6908 370.556 60.3008C375.351 57.7401 378.333 54.6918 378.929 51.7409C379.5 48.9608 376.593 45.8881 371.525 43.9127C369.637 43.1567 369.612 43.1567 364.643 43.1567H359.674L359.401 42.1569C359.103 41.1326 359.351 39.2792 359.923 38.2306C360.072 37.9623 360.146 37.7185 360.097 37.6697C360.022 37.5965 346.457 37.0112 320.767 35.9626L306.854 35.4017L319.401 35.5236C326.308 35.5968 338.382 35.7187 346.233 35.8163C362.084 36.0114 361.14 36.1089 361.14 34.4018C361.14 32.5241 359.699 31.3535 356.146 30.2805C352.916 29.305 350.159 29.1587 338.034 29.4025C320.569 29.7439 314.68 29.6708 308.221 29.0611C295.972 27.9149 282.059 27.1833 257.538 26.4517C236.693 25.8176 230.084 25.5982 221.637 25.2324C213.513 24.8666 210.78 24.6959 200.395 24.013C186.805 23.1107 166.184 22.7693 149.413 23.1595ZM230.035 32.1095C229.712 32.1582 229.165 32.1582 228.792 32.1095C228.395 32.0607 228.668 32.0119 229.339 32.0119C230.035 32.0119 230.333 32.0607 230.035 32.1095ZM238.904 32.5484C244.171 32.8655 251.873 33.2557 272.569 34.2555C279.277 34.5726 279.351 34.5969 274.432 34.475C263.128 34.2311 234.258 32.7679 231.575 32.329C230.333 32.1339 233.562 32.207 238.904 32.5484ZM283.575 34.792C283.326 34.8408 282.879 34.8408 282.581 34.792C282.258 34.7433 282.457 34.6945 283.003 34.6945C283.55 34.6701 283.798 34.7189 283.575 34.792ZM285.289 34.7676C285.215 34.8408 284.991 34.8652 284.817 34.792C284.618 34.7189 284.693 34.6457 284.966 34.6457C285.239 34.6213 285.389 34.6945 285.289 34.7676Z" fill="#7978F8"/>
<path d="M285.438 66.0073C285.662 66.0561 286.01 66.0561 286.184 66.0073C286.333 65.9341 286.159 65.8854 285.736 65.8854C285.339 65.8854 285.19 65.9341 285.438 66.0073Z" fill="#7978F8"/>
<path d="M116.048 30.908V56H112.772V30.908H116.048ZM131.243 35.912C133.643 35.912 135.587 36.644 137.075 38.108C138.563 39.548 139.307 41.636 139.307 44.372V56H136.067V44.84C136.067 42.872 135.575 41.372 134.591 40.34C133.607 39.284 132.263 38.756 130.559 38.756C128.831 38.756 127.451 39.296 126.419 40.376C125.411 41.456 124.907 43.028 124.907 45.092V56H121.631V36.272H124.907V39.08C125.555 38.072 126.431 37.292 127.535 36.74C128.663 36.188 129.899 35.912 131.243 35.912ZM151.643 56.324C150.131 56.324 148.775 56.072 147.575 55.568C146.375 55.04 145.427 54.32 144.731 53.408C144.035 52.472 143.651 51.404 143.579 50.204H146.963C147.059 51.188 147.515 51.992 148.331 52.616C149.171 53.24 150.263 53.552 151.607 53.552C152.855 53.552 153.839 53.276 154.559 52.724C155.279 52.172 155.639 51.476 155.639 50.636C155.639 49.772 155.255 49.136 154.487 48.728C153.719 48.296 152.531 47.876 150.923 47.468C149.459 47.084 148.259 46.7 147.323 46.316C146.411 45.908 145.619 45.32 144.947 44.552C144.299 43.76 143.975 42.728 143.975 41.456C143.975 40.448 144.275 39.524 144.875 38.684C145.475 37.844 146.327 37.184 147.431 36.704C148.535 36.2 149.795 35.948 151.211 35.948C153.395 35.948 155.159 36.5 156.503 37.604C157.847 38.708 158.567 40.22 158.663 42.14H155.387C155.315 41.108 154.895 40.28 154.127 39.656C153.383 39.032 152.375 38.72 151.103 38.72C149.927 38.72 148.991 38.972 148.295 39.476C147.599 39.98 147.251 40.64 147.251 41.456C147.251 42.104 147.455 42.644 147.863 43.076C148.295 43.484 148.823 43.82 149.447 44.084C150.095 44.324 150.983 44.6 152.111 44.912C153.527 45.296 154.679 45.68 155.567 46.064C156.455 46.424 157.211 46.976 157.835 47.72C158.483 48.464 158.819 49.436 158.843 50.636C158.843 51.716 158.543 52.688 157.943 53.552C157.343 54.416 156.491 55.1 155.387 55.604C154.307 56.084 153.059 56.324 151.643 56.324ZM162.243 46.1C162.243 44.06 162.651 42.284 163.467 40.772C164.283 39.236 165.411 38.048 166.851 37.208C168.315 36.368 169.983 35.948 171.855 35.948C174.279 35.948 176.271 36.536 177.831 37.712C179.415 38.888 180.459 40.52 180.963 42.608H177.435C177.099 41.408 176.439 40.46 175.455 39.764C174.495 39.068 173.295 38.72 171.855 38.72C169.983 38.72 168.471 39.368 167.319 40.664C166.167 41.936 165.591 43.748 165.591 46.1C165.591 48.476 166.167 50.312 167.319 51.608C168.471 52.904 169.983 53.552 171.855 53.552C173.295 53.552 174.495 53.216 175.455 52.544C176.415 51.872 177.075 50.912 177.435 49.664H180.963C180.435 51.68 179.379 53.3 177.795 54.524C176.211 55.724 174.231 56.324 171.855 56.324C169.983 56.324 168.315 55.904 166.851 55.064C165.411 54.224 164.283 53.036 163.467 51.5C162.651 49.964 162.243 48.164 162.243 46.1ZM188.611 39.476C189.187 38.348 190.003 37.472 191.059 36.848C192.139 36.224 193.447 35.912 194.983 35.912V39.296H194.119C190.447 39.296 188.611 41.288 188.611 45.272V56H185.335V36.272H188.611V39.476ZM200.456 33.068C199.832 33.068 199.304 32.852 198.872 32.42C198.44 31.988 198.224 31.46 198.224 30.836C198.224 30.212 198.44 29.684 198.872 29.252C199.304 28.82 199.832 28.604 200.456 28.604C201.056 28.604 201.56 28.82 201.968 29.252C202.4 29.684 202.616 30.212 202.616 30.836C202.616 31.46 202.4 31.988 201.968 32.42C201.56 32.852 201.056 33.068 200.456 33.068ZM202.04 36.272V56H198.764V36.272H202.04ZM216.012 53.552C217.452 53.552 218.652 53.216 219.612 52.544C220.572 51.872 221.232 50.912 221.592 49.664H225.12C224.64 51.536 223.692 53.072 222.276 54.272C220.884 55.448 219.132 56.12 217.02 56.288V58.088C218.436 58.064 219.564 58.364 220.404 58.988C221.244 59.612 221.664 60.5 221.664 61.652C221.664 62.78 221.256 63.68 220.44 64.352C219.624 65.024 218.568 65.36 217.272 65.36H213.132V63.236H216.624C217.416 63.236 217.992 63.116 218.352 62.876C218.736 62.636 218.928 62.228 218.928 61.652C218.928 61.1 218.736 60.704 218.352 60.464C217.992 60.224 217.416 60.104 216.624 60.104H214.824V56.252C213.168 56.084 211.704 55.568 210.432 54.704C209.16 53.816 208.164 52.64 207.444 51.176C206.748 49.688 206.4 47.996 206.4 46.1C206.4 44.06 206.808 42.284 207.624 40.772C208.44 39.236 209.568 38.048 211.008 37.208C212.472 36.368 214.14 35.948 216.012 35.948C218.436 35.948 220.428 36.536 221.988 37.712C223.572 38.888 224.616 40.52 225.12 42.608H221.592C221.256 41.408 220.596 40.46 219.612 39.764C218.652 39.068 217.452 38.72 216.012 38.72C214.14 38.72 212.628 39.368 211.476 40.664C210.324 41.936 209.748 43.748 209.748 46.1C209.748 48.476 210.324 50.312 211.476 51.608C212.628 52.904 214.14 53.552 216.012 53.552ZM228.267 46.064C228.267 44.048 228.675 42.284 229.491 40.772C230.307 39.236 231.423 38.048 232.839 37.208C234.279 36.368 235.875 35.948 237.627 35.948C239.355 35.948 240.855 36.32 242.127 37.064C243.399 37.808 244.347 38.744 244.971 39.872V36.272H248.283V56H244.971V52.328C244.323 53.48 243.351 54.44 242.055 55.208C240.783 55.952 239.295 56.324 237.591 56.324C235.839 56.324 234.255 55.892 232.839 55.028C231.423 54.164 230.307 52.952 229.491 51.392C228.675 49.832 228.267 48.056 228.267 46.064ZM244.971 46.1C244.971 44.612 244.671 43.316 244.071 42.212C243.471 41.108 242.655 40.268 241.623 39.692C240.615 39.092 239.499 38.792 238.275 38.792C237.051 38.792 235.935 39.08 234.927 39.656C233.919 40.232 233.115 41.072 232.515 42.176C231.915 43.28 231.615 44.576 231.615 46.064C231.615 47.576 231.915 48.896 232.515 50.024C233.115 51.128 233.919 51.98 234.927 52.58C235.935 53.156 237.051 53.444 238.275 53.444C239.499 53.444 240.615 53.156 241.623 52.58C242.655 51.98 243.471 51.128 244.071 50.024C244.671 48.896 244.971 47.588 244.971 46.1ZM233.631 34.148C233.799 32.924 234.195 31.988 234.819 31.34C235.467 30.692 236.271 30.368 237.231 30.368C237.687 30.368 238.071 30.452 238.383 30.62C238.719 30.764 239.115 30.98 239.571 31.268C239.907 31.508 240.207 31.7 240.471 31.844C240.735 31.964 241.023 32.024 241.335 32.024C241.743 32.024 242.091 31.892 242.379 31.628C242.667 31.364 242.847 30.98 242.919 30.476H244.791C244.647 31.676 244.251 32.6 243.603 33.248C242.955 33.896 242.151 34.22 241.191 34.22C240.735 34.22 240.327 34.148 239.967 34.004C239.631 33.836 239.247 33.596 238.815 33.284C238.431 33.044 238.119 32.864 237.879 32.744C237.663 32.624 237.399 32.564 237.087 32.564C236.679 32.564 236.331 32.696 236.043 32.96C235.779 33.224 235.611 33.62 235.539 34.148H233.631ZM262.423 56.324C260.575 56.324 258.895 55.904 257.383 55.064C255.895 54.224 254.719 53.036 253.855 51.5C253.015 49.94 252.595 48.14 252.595 46.1C252.595 44.084 253.027 42.308 253.891 40.772C254.779 39.212 255.979 38.024 257.491 37.208C259.003 36.368 260.695 35.948 262.567 35.948C264.439 35.948 266.131 36.368 267.643 37.208C269.155 38.024 270.343 39.2 271.207 40.736C272.095 42.272 272.539 44.06 272.539 46.1C272.539 48.14 272.083 49.94 271.171 51.5C270.283 53.036 269.071 54.224 267.535 55.064C265.999 55.904 264.295 56.324 262.423 56.324ZM262.423 53.444C263.599 53.444 264.703 53.168 265.735 52.616C266.767 52.064 267.595 51.236 268.219 50.132C268.867 49.028 269.191 47.684 269.191 46.1C269.191 44.516 268.879 43.172 268.255 42.068C267.631 40.964 266.815 40.148 265.807 39.62C264.799 39.068 263.707 38.792 262.531 38.792C261.331 38.792 260.227 39.068 259.219 39.62C258.235 40.148 257.443 40.964 256.843 42.068C256.243 43.172 255.943 44.516 255.943 46.1C255.943 47.708 256.231 49.064 256.807 50.168C257.407 51.272 258.199 52.1 259.183 52.652C260.167 53.18 261.247 53.444 262.423 53.444Z" fill="black"/>
<path d="M22.6451 61.2001H52V58.9329H22.6451C20.7745 58.9329 19.258 57.4106 19.258 55.533V5.66652C19.258 3.78829 20.7745 2.26655 22.6451 2.26655H72.3225C74.1939 2.26655 75.7096 3.78829 75.7096 5.66652V31.7329H77.9681V5.66652C77.9645 2.5384 75.4391 0.00369282 72.3225 0H22.6451C19.5293 0.00369282 17.004 2.5384 17 5.66652V55.533C17.004 58.6611 19.5293 61.1958 22.6451 61.2001Z" fill="black"/>
<path d="M21.5165 4.53367H23.7742V6.79994H21.5165V4.53367Z" fill="black"/>
<path d="M26.0321 4.53367H28.2907V6.79994H26.0321V4.53367Z" fill="black"/>
<path d="M30.5484 4.53367H32.8066V6.79994H30.5484V4.53367Z" fill="black"/>
<path d="M21.5165 9.06649H73.4517V11.3336H21.5165V9.06649Z" fill="black"/>
<path d="M33.1374 13.932L30.2696 16.8107C27.8455 15.1997 24.5994 15.694 22.7597 17.954C20.9202 20.2138 21.0852 23.5055 23.1408 25.5687C25.1962 27.6327 28.4757 27.7983 30.7272 25.9516C32.9784 24.1052 33.4711 20.8461 31.8659 18.4134L34.7335 15.5346L33.1374 13.932ZM27.161 24.9329C25.2907 24.9329 23.7742 23.4109 23.7742 21.5332C23.7742 19.6553 25.2907 18.1336 27.161 18.1336C27.6647 18.1353 28.1602 18.2512 28.6121 18.473L26.3632 20.7308L27.9593 22.3335L30.2099 20.0771C30.4309 20.5305 30.5467 21.0279 30.5484 21.5332C30.5484 23.4109 29.0324 24.9329 27.161 24.9329Z" fill="black"/>
<path d="M36.1937 18.1336H55.3868V20.3998H36.1937V18.1336Z" fill="black"/>
<path d="M36.1937 22.6667H44.0967V24.9329H36.1937V22.6667Z" fill="black"/>
<path d="M46.3549 22.6667H62.161V24.9329H46.3549V22.6667Z" fill="black"/>
<path d="M57.6451 18.1336H68.9354V20.3998H57.6451V18.1336Z" fill="black"/>
<path d="M33.1374 27.5318L30.2696 30.4106C27.8455 28.7996 24.5994 29.2939 22.7597 31.5539C20.9202 33.8139 21.0852 37.1054 23.1408 39.1691C25.1962 41.2326 28.4757 41.3982 30.7272 39.5515C32.9784 37.7048 33.4711 34.4468 31.8659 32.0132L34.7335 29.1345L33.1374 27.5318ZM27.161 38.5331C25.2907 38.5331 23.7742 37.0108 23.7742 35.1331C23.7742 33.2552 25.2907 31.7329 27.161 31.7329C27.6647 31.7349 28.1602 31.851 28.6121 32.0729L26.3632 34.3312L27.9593 35.9333L30.2099 33.6767C30.4309 34.1304 30.5467 34.6278 30.5484 35.1331C30.5484 37.0108 29.0324 38.5331 27.161 38.5331Z" fill="black"/>
<path d="M36.1937 31.7329H55.3868V33.9997H36.1937V31.7329Z" fill="black"/>
<path d="M36.1937 36.2666H44.0967V38.5331H36.1937V36.2666Z" fill="black"/>
<path d="M46.3549 36.2666H55.3868V38.5331H46.3549V36.2666Z" fill="black"/>
<path d="M57.6451 31.7329H62.161V33.9997H57.6451V31.7329Z" fill="black"/>
<path d="M33.1374 41.1317L30.2696 44.0104C27.8455 42.3995 24.5994 42.8938 22.7597 45.1538C20.9202 47.4138 21.0852 50.7053 23.1408 52.769C25.1962 54.8327 28.4757 54.9978 30.7272 53.1514C32.9784 51.3047 33.4711 48.0464 31.8659 45.6129L34.7335 42.7344L33.1374 41.1317ZM27.161 52.133C25.2907 52.133 23.7742 50.6107 23.7742 48.733C23.7742 46.8551 25.2907 45.333 27.161 45.333C27.6647 45.3348 28.1602 45.4506 28.6121 45.6728L26.3632 47.9311L27.9593 49.5332L30.2099 47.2766C30.4309 47.7303 30.5467 48.228 30.5484 48.733C30.5484 50.6107 29.0324 52.133 27.161 52.133Z" fill="black"/>
<path d="M36.1937 45.333H50.8709V47.6002H36.1937V45.333Z" fill="black"/>
<path d="M36.1937 49.8664H44.0967V52.133H36.1937V49.8664Z" fill="black"/>
<path d="M46.3549 49.8664H50.8709V52.133H46.3549V49.8664Z" fill="black"/>
<path d="M70.0648 68C79.4185 68 87 60.3882 87 50.9999C87 41.6107 79.4185 33.9997 70.0648 33.9997C60.7112 33.9997 53.1291 41.6107 53.1291 50.9999C53.1402 60.3839 60.7158 67.9886 70.0648 68ZM70.0648 36.2666C78.1705 36.2666 84.7423 42.8628 84.7423 50.9999C84.7423 59.1369 78.1705 65.7329 70.0648 65.7329C61.9584 65.7329 55.3868 59.1369 55.3868 50.9999C55.3964 42.8668 61.962 36.2756 70.0648 36.2666Z" fill="black"/>
<path d="M63.1778 51.6262L61.1567 52.6392L63.4149 57.1726C63.5768 57.4987 63.8858 57.7268 64.2443 57.785C64.3026 57.7941 64.3609 57.7989 64.4195 57.7998C64.7186 57.7998 65.0059 57.6802 65.2181 57.4677L78.7659 43.8678L77.1698 42.2651L64.7285 54.7532L63.1778 51.6262Z" fill="black"/>
</svg>
