<svg width="482" height="94" viewBox="0 0 482 94" fill="none" xmlns="http://www.w3.org/2000/svg">
<path d="M149.413 17.1595C144.544 17.2814 135.774 17.5497 129.91 17.7691C104.271 18.6715 103.128 18.6959 74.8049 18.3788C53.5129 18.135 45.4881 18.1106 38.4322 18.3544C21.4633 18.8909 12.6186 19.8664 6.87945 21.8418C-2.66091 25.1096 -2.23855 30.6942 7.89808 35.6935C11.3267 37.3762 17.0658 39.2784 21.6372 40.2051C23.426 40.5709 25.0161 40.9123 25.19 40.9611C25.3888 41.0099 25.4881 41.5952 25.4881 42.717V44.3997H20.0968C15.3266 44.3997 14.4322 44.4728 12.6931 44.9362C8.71796 45.9848 7.87324 47.4724 8.9664 51.545C9.43845 53.3253 9.53783 55.008 9.2397 55.9834L9.04094 56.6663H13.7117C23.9478 56.6663 36.8173 57.8856 46.2335 59.739L49.4384 60.3731L92.9415 60.1048C116.842 59.9585 154.656 59.7146 176.917 59.5683C208.122 59.3488 224.246 59.3488 247.227 59.5683C263.625 59.739 278.78 59.9097 280.892 59.9829C283.003 60.0317 284.643 60.0317 284.494 59.9829C284.047 59.7634 252.867 58.8367 230.581 58.3734C213.587 58.0076 172.494 57.8369 158.035 58.0563C151.078 58.1783 145.339 58.2514 145.289 58.227C145.24 58.2027 145.339 57.9588 145.513 57.6905C145.761 57.3003 145.761 57.1052 145.538 56.837C145.19 56.4468 145.563 56.398 154.681 55.8127C171.128 54.7153 189.24 54.7885 222.134 56.0566C248.395 57.0565 256.718 57.2272 270.954 57.0565C278.258 56.9833 285.612 56.837 287.302 56.7638L290.333 56.5931V58.3246C290.333 59.9341 290.382 60.0805 290.904 60.178C291.202 60.2268 296.544 60.3975 302.755 60.5682C313.538 60.8121 323.475 61.1779 338.531 61.8119C344.643 62.0802 345.711 62.0802 348.742 61.69C350.606 61.4705 353.388 60.9584 354.954 60.5926C358.034 59.8122 362.134 58.4221 362.134 58.1539C362.134 57.6661 336.072 55.3006 320.27 54.3739C298.854 53.0814 281.289 52.4961 239.401 51.6426C228.817 51.4475 217.016 51.1792 213.19 51.0817L206.233 50.911L213.19 50.7159C221.587 50.472 253.115 50.6915 259.525 51.0329C262.059 51.1792 265.736 51.3987 267.724 51.545C276.37 52.1303 289.339 52.5937 309.339 53.0082C330.979 53.4716 342.084 53.8618 352.941 54.5934C358.01 54.9348 364.693 55.5445 366.606 55.8127C367.326 55.9347 367.972 55.6908 370.556 54.3008C375.351 51.7401 378.333 48.6918 378.929 45.7409C379.5 42.9608 376.593 39.8881 371.525 37.9127C369.637 37.1567 369.612 37.1567 364.643 37.1567H359.674L359.401 36.1569C359.103 35.1326 359.351 33.2792 359.923 32.2306C360.072 31.9623 360.146 31.7185 360.097 31.6697C360.022 31.5965 346.457 31.0112 320.767 29.9626L306.854 29.4017L319.401 29.5236C326.308 29.5968 338.382 29.7187 346.233 29.8163C362.084 30.0114 361.14 30.1089 361.14 28.4018C361.14 26.5241 359.699 25.3535 356.146 24.2805C352.916 23.305 350.159 23.1587 338.034 23.4025C320.569 23.7439 314.68 23.6708 308.221 23.0611C295.972 21.9149 282.059 21.1833 257.538 20.4517C236.693 19.8176 230.084 19.5982 221.637 19.2324C213.513 18.8666 210.78 18.6959 200.395 18.013C186.805 17.1107 166.184 16.7693 149.413 17.1595ZM230.035 26.1095C229.712 26.1582 229.165 26.1582 228.792 26.1095C228.395 26.0607 228.668 26.0119 229.339 26.0119C230.035 26.0119 230.333 26.0607 230.035 26.1095ZM238.904 26.5484C244.171 26.8655 251.873 27.2557 272.569 28.2555C279.277 28.5726 279.351 28.5969 274.432 28.475C263.128 28.2311 234.258 26.7679 231.575 26.329C230.333 26.1339 233.562 26.207 238.904 26.5484ZM283.575 28.792C283.326 28.8408 282.879 28.8408 282.581 28.792C282.258 28.7433 282.457 28.6945 283.003 28.6945C283.55 28.6701 283.798 28.7189 283.575 28.792ZM285.289 28.7676C285.215 28.8408 284.991 28.8652 284.817 28.792C284.618 28.7189 284.693 28.6457 284.966 28.6457C285.239 28.6213 285.389 28.6945 285.289 28.7676Z" fill="#7978F8"/>
<path d="M285.438 60.0073C285.662 60.0561 286.01 60.0561 286.184 60.0073C286.333 59.9341 286.159 59.8854 285.736 59.8854C285.339 59.8854 285.19 59.9341 285.438 60.0073Z" fill="#7978F8"/>
<path d="M113.896 54.752L108.892 49.748C107.668 50.084 106.42 50.252 105.148 50.252C102.82 50.252 100.696 49.712 98.776 48.632C96.856 47.528 95.332 46.004 94.204 44.06C93.1 42.092 92.548 39.884 92.548 37.436C92.548 34.988 93.1 32.792 94.204 30.848C95.332 28.88 96.856 27.356 98.776 26.276C100.696 25.172 102.82 24.62 105.148 24.62C107.5 24.62 109.636 25.172 111.556 26.276C113.476 27.356 114.988 28.868 116.092 30.812C117.196 32.756 117.748 34.964 117.748 37.436C117.748 39.836 117.22 41.996 116.164 43.916C115.108 45.836 113.656 47.348 111.808 48.452L118.144 54.752H113.896ZM95.896 37.436C95.896 39.428 96.292 41.18 97.084 42.692C97.9 44.204 99.004 45.368 100.396 46.184C101.812 47 103.396 47.408 105.148 47.408C106.9 47.408 108.472 47 109.864 46.184C111.28 45.368 112.384 44.204 113.176 42.692C113.992 41.18 114.4 39.428 114.4 37.436C114.4 35.42 113.992 33.668 113.176 32.18C112.384 30.668 111.292 29.504 109.9 28.688C108.508 27.872 106.924 27.464 105.148 27.464C103.372 27.464 101.788 27.872 100.396 28.688C99.004 29.504 97.9 30.668 97.084 32.18C96.292 33.668 95.896 35.42 95.896 37.436ZM139.639 30.272V50H136.363V47.084C135.739 48.092 134.863 48.884 133.735 49.46C132.631 50.012 131.407 50.288 130.063 50.288C128.527 50.288 127.147 49.976 125.923 49.352C124.699 48.704 123.727 47.744 123.007 46.472C122.311 45.2 121.963 43.652 121.963 41.828V30.272H125.203V41.396C125.203 43.34 125.695 44.84 126.679 45.896C127.663 46.928 129.007 47.444 130.711 47.444C132.463 47.444 133.843 46.904 134.851 45.824C135.859 44.744 136.363 43.172 136.363 41.108V30.272H139.639ZM163.17 39.38C163.17 40.004 163.134 40.664 163.062 41.36H147.294C147.414 43.304 148.074 44.828 149.274 45.932C150.498 47.012 151.974 47.552 153.702 47.552C155.118 47.552 156.294 47.228 157.23 46.58C158.19 45.908 158.862 45.02 159.246 43.916H162.774C162.246 45.812 161.19 47.36 159.606 48.56C158.022 49.736 156.054 50.324 153.702 50.324C151.83 50.324 150.15 49.904 148.662 49.064C147.198 48.224 146.046 47.036 145.206 45.5C144.366 43.94 143.946 42.14 143.946 40.1C143.946 38.06 144.354 36.272 145.17 34.736C145.986 33.2 147.126 32.024 148.59 31.208C150.078 30.368 151.782 29.948 153.702 29.948C155.574 29.948 157.23 30.356 158.67 31.172C160.11 31.988 161.214 33.116 161.982 34.556C162.774 35.972 163.17 37.58 163.17 39.38ZM159.786 38.696C159.786 37.448 159.51 36.38 158.958 35.492C158.406 34.58 157.65 33.896 156.69 33.44C155.754 32.96 154.71 32.72 153.558 32.72C151.902 32.72 150.486 33.248 149.31 34.304C148.158 35.36 147.498 36.824 147.33 38.696H159.786ZM191.219 29.912C192.755 29.912 194.123 30.236 195.323 30.884C196.523 31.508 197.471 32.456 198.167 33.728C198.863 35 199.211 36.548 199.211 38.372V50H195.971V38.84C195.971 36.872 195.479 35.372 194.495 34.34C193.535 33.284 192.227 32.756 190.571 32.756C188.867 32.756 187.511 33.308 186.503 34.412C185.495 35.492 184.991 37.064 184.991 39.128V50H181.751V38.84C181.751 36.872 181.259 35.372 180.275 34.34C179.315 33.284 178.007 32.756 176.351 32.756C174.647 32.756 173.291 33.308 172.283 34.412C171.275 35.492 170.771 37.064 170.771 39.128V50H167.495V30.272H170.771V33.116C171.419 32.084 172.283 31.292 173.363 30.74C174.467 30.188 175.679 29.912 176.999 29.912C178.655 29.912 180.119 30.284 181.391 31.028C182.663 31.772 183.611 32.864 184.235 34.304C184.787 32.912 185.699 31.832 186.971 31.064C188.243 30.296 189.659 29.912 191.219 29.912ZM221.166 50.324C219.654 50.324 218.298 50.072 217.098 49.568C215.898 49.04 214.95 48.32 214.254 47.408C213.558 46.472 213.174 45.404 213.102 44.204H216.486C216.582 45.188 217.038 45.992 217.854 46.616C218.694 47.24 219.786 47.552 221.13 47.552C222.378 47.552 223.362 47.276 224.082 46.724C224.802 46.172 225.162 45.476 225.162 44.636C225.162 43.772 224.778 43.136 224.01 42.728C223.242 42.296 222.054 41.876 220.446 41.468C218.982 41.084 217.782 40.7 216.846 40.316C215.934 39.908 215.142 39.32 214.47 38.552C213.822 37.76 213.498 36.728 213.498 35.456C213.498 34.448 213.798 33.524 214.398 32.684C214.998 31.844 215.85 31.184 216.954 30.704C218.058 30.2 219.318 29.948 220.734 29.948C222.918 29.948 224.682 30.5 226.026 31.604C227.37 32.708 228.09 34.22 228.186 36.14H224.91C224.838 35.108 224.418 34.28 223.65 33.656C222.906 33.032 221.898 32.72 220.626 32.72C219.45 32.72 218.514 32.972 217.818 33.476C217.122 33.98 216.774 34.64 216.774 35.456C216.774 36.104 216.978 36.644 217.386 37.076C217.818 37.484 218.346 37.82 218.97 38.084C219.618 38.324 220.506 38.6 221.634 38.912C223.05 39.296 224.202 39.68 225.09 40.064C225.978 40.424 226.734 40.976 227.358 41.72C228.006 42.464 228.342 43.436 228.366 44.636C228.366 45.716 228.066 46.688 227.466 47.552C226.866 48.416 226.014 49.1 224.91 49.604C223.83 50.084 222.582 50.324 221.166 50.324ZM241.595 50.324C239.747 50.324 238.067 49.904 236.555 49.064C235.067 48.224 233.891 47.036 233.027 45.5C232.187 43.94 231.767 42.14 231.767 40.1C231.767 38.084 232.199 36.308 233.063 34.772C233.951 33.212 235.151 32.024 236.663 31.208C238.175 30.368 239.867 29.948 241.739 29.948C243.611 29.948 245.303 30.368 246.815 31.208C248.327 32.024 249.515 33.2 250.379 34.736C251.267 36.272 251.711 38.06 251.711 40.1C251.711 42.14 251.255 43.94 250.343 45.5C249.455 47.036 248.243 48.224 246.707 49.064C245.171 49.904 243.467 50.324 241.595 50.324ZM241.595 47.444C242.771 47.444 243.875 47.168 244.907 46.616C245.939 46.064 246.767 45.236 247.391 44.132C248.039 43.028 248.363 41.684 248.363 40.1C248.363 38.516 248.051 37.172 247.427 36.068C246.803 34.964 245.987 34.148 244.979 33.62C243.971 33.068 242.879 32.792 241.703 32.792C240.503 32.792 239.399 33.068 238.391 33.62C237.407 34.148 236.615 34.964 236.015 36.068C235.415 37.172 235.115 38.516 235.115 40.1C235.115 41.708 235.403 43.064 235.979 44.168C236.579 45.272 237.371 46.1 238.355 46.652C239.339 47.18 240.419 47.444 241.595 47.444ZM279.742 29.912C281.278 29.912 282.646 30.236 283.846 30.884C285.046 31.508 285.994 32.456 286.69 33.728C287.386 35 287.734 36.548 287.734 38.372V50H284.494V38.84C284.494 36.872 284.002 35.372 283.018 34.34C282.058 33.284 280.75 32.756 279.094 32.756C277.39 32.756 276.034 33.308 275.026 34.412C274.018 35.492 273.514 37.064 273.514 39.128V50H270.274V38.84C270.274 36.872 269.782 35.372 268.798 34.34C267.838 33.284 266.53 32.756 264.874 32.756C263.17 32.756 261.814 33.308 260.806 34.412C259.798 35.492 259.294 37.064 259.294 39.128V50H256.018V30.272H259.294V33.116C259.942 32.084 260.806 31.292 261.886 30.74C262.99 30.188 264.202 29.912 265.522 29.912C267.178 29.912 268.642 30.284 269.914 31.028C271.186 31.772 272.134 32.864 272.758 34.304C273.31 32.912 274.222 31.832 275.494 31.064C276.766 30.296 278.182 29.912 279.742 29.912ZM301.712 50.324C299.864 50.324 298.184 49.904 296.672 49.064C295.184 48.224 294.008 47.036 293.144 45.5C292.304 43.94 291.884 42.14 291.884 40.1C291.884 38.084 292.316 36.308 293.18 34.772C294.068 33.212 295.268 32.024 296.78 31.208C298.292 30.368 299.984 29.948 301.856 29.948C303.728 29.948 305.42 30.368 306.932 31.208C308.444 32.024 309.632 33.2 310.496 34.736C311.384 36.272 311.828 38.06 311.828 40.1C311.828 42.14 311.372 43.94 310.46 45.5C309.572 47.036 308.36 48.224 306.824 49.064C305.288 49.904 303.584 50.324 301.712 50.324ZM301.712 47.444C302.888 47.444 303.992 47.168 305.024 46.616C306.056 46.064 306.884 45.236 307.508 44.132C308.156 43.028 308.48 41.684 308.48 40.1C308.48 38.516 308.168 37.172 307.544 36.068C306.92 34.964 306.104 34.148 305.096 33.62C304.088 33.068 302.996 32.792 301.82 32.792C300.62 32.792 299.516 33.068 298.508 33.62C297.524 34.148 296.732 34.964 296.132 36.068C295.532 37.172 295.232 38.516 295.232 40.1C295.232 41.708 295.52 43.064 296.096 44.168C296.696 45.272 297.488 46.1 298.472 46.652C299.456 47.18 300.536 47.444 301.712 47.444ZM323.119 50.324C321.607 50.324 320.251 50.072 319.051 49.568C317.851 49.04 316.903 48.32 316.207 47.408C315.511 46.472 315.127 45.404 315.055 44.204H318.439C318.535 45.188 318.991 45.992 319.807 46.616C320.647 47.24 321.739 47.552 323.083 47.552C324.331 47.552 325.315 47.276 326.035 46.724C326.755 46.172 327.115 45.476 327.115 44.636C327.115 43.772 326.731 43.136 325.963 42.728C325.195 42.296 324.007 41.876 322.399 41.468C320.935 41.084 319.735 40.7 318.799 40.316C317.887 39.908 317.095 39.32 316.423 38.552C315.775 37.76 315.451 36.728 315.451 35.456C315.451 34.448 315.751 33.524 316.351 32.684C316.951 31.844 317.803 31.184 318.907 30.704C320.011 30.2 321.271 29.948 322.687 29.948C324.871 29.948 326.635 30.5 327.979 31.604C329.323 32.708 330.043 34.22 330.139 36.14H326.863C326.791 35.108 326.371 34.28 325.603 33.656C324.859 33.032 323.851 32.72 322.579 32.72C321.403 32.72 320.467 32.972 319.771 33.476C319.075 33.98 318.727 34.64 318.727 35.456C318.727 36.104 318.931 36.644 319.339 37.076C319.771 37.484 320.299 37.82 320.923 38.084C321.571 38.324 322.459 38.6 323.587 38.912C325.003 39.296 326.155 39.68 327.043 40.064C327.931 40.424 328.687 40.976 329.311 41.72C329.959 42.464 330.295 43.436 330.319 44.636C330.319 45.716 330.019 46.688 329.419 47.552C328.819 48.416 327.967 49.1 326.863 49.604C325.783 50.084 324.535 50.324 323.119 50.324ZM341.352 24.584C343.728 24.584 345.648 25.256 347.112 26.6C348.576 27.944 349.308 29.744 349.308 32C349.308 34.52 348.528 36.392 346.968 37.616C345.408 38.816 343.296 39.416 340.632 39.416L340.524 42.836H337.68L337.536 37.148H338.58C340.956 37.148 342.816 36.788 344.16 36.068C345.504 35.348 346.176 33.992 346.176 32C346.176 30.56 345.744 29.42 344.88 28.58C344.016 27.74 342.852 27.32 341.388 27.32C339.9 27.32 338.724 27.728 337.86 28.544C337.02 29.336 336.6 30.428 336.6 31.82H333.504C333.504 30.38 333.828 29.12 334.476 28.04C335.124 26.936 336.036 26.084 337.212 25.484C338.412 24.884 339.792 24.584 341.352 24.584ZM339.084 50.216C338.46 50.216 337.932 50 337.5 49.568C337.068 49.136 336.852 48.608 336.852 47.984C336.852 47.36 337.068 46.832 337.5 46.4C337.932 45.968 338.46 45.752 339.084 45.752C339.684 45.752 340.188 45.968 340.596 46.4C341.028 46.832 341.244 47.36 341.244 47.984C341.244 48.608 341.028 49.136 340.596 49.568C340.188 50 339.684 50.216 339.084 50.216Z" fill="black"/>
<path d="M60.7371 37.4751H49.0215C48.4544 37.4751 47.9947 37.9331 47.9947 38.498C47.9947 39.0629 48.4544 39.5208 49.0215 39.5208H60.7371C61.3041 39.5208 61.7638 39.0629 61.7638 38.498C61.7639 37.9331 61.3041 37.4751 60.7371 37.4751Z" fill="black"/>
<path d="M43.5426 43.7417C43.5426 44.3066 44.0023 44.7646 44.5693 44.7646H50.3015C50.8685 44.7646 51.3282 44.3066 51.3282 43.7417C51.3282 43.1769 50.8685 42.7189 50.3015 42.7189H44.5693C44.0023 42.7189 43.5426 43.1769 43.5426 43.7417Z" fill="black"/>
<path d="M58.4304 43.7417C58.4304 44.3066 58.8902 44.7646 59.4572 44.7646H65.1893C65.7564 44.7646 66.2161 44.3066 66.2161 43.7417C66.2161 43.1769 65.7563 42.7189 65.1893 42.7189H59.4572C58.8902 42.7189 58.4304 43.1769 58.4304 43.7417Z" fill="black"/>
<path d="M54.8692 42.7189C54.3021 42.7189 53.8424 43.1769 53.8424 43.7417C53.8424 44.3066 54.3021 44.7646 54.8692 44.7646H54.8894C55.4564 44.7646 55.9161 44.3066 55.9161 43.7417C55.9161 43.1769 55.4564 42.7189 54.8894 42.7189H54.8692Z" fill="black"/>
<path d="M34.0268 16.9137C34.5938 16.9137 35.0535 16.4558 35.0535 15.8909V15.8707C35.0535 15.3058 34.5938 14.8478 34.0268 14.8478C33.4597 14.8478 33 15.3058 33 15.8707V15.8909C33 16.4558 33.4597 16.9137 34.0268 16.9137Z" fill="black"/>
<path d="M80.7917 40.3505L76.178 35.7555V9.85552C76.178 9.82282 76.1762 9.79032 76.173 9.75792C76.1717 9.74431 76.1693 9.73101 76.1676 9.7176C76.1652 9.69942 76.1627 9.68134 76.1594 9.66337C76.1562 9.64712 76.1522 9.63117 76.1483 9.61523C76.1448 9.6006 76.1412 9.58598 76.137 9.57155C76.1321 9.5547 76.1266 9.53814 76.1208 9.52159C76.1162 9.50838 76.1114 9.49518 76.1063 9.48208C76.0999 9.46573 76.0931 9.44958 76.0857 9.43363C76.0798 9.42063 76.0735 9.40773 76.0671 9.39494C76.0594 9.37991 76.0516 9.36487 76.0432 9.35025C76.0356 9.33684 76.0274 9.32384 76.0191 9.31074C76.0107 9.29744 76.0024 9.28413 75.9933 9.27123C75.9836 9.25732 75.9732 9.24381 75.9627 9.2303C75.9539 9.21903 75.9453 9.20766 75.9361 9.19669C75.9336 9.19364 75.9314 9.19049 75.9289 9.18744L68.2841 0.354961C68.2776 0.347445 68.2702 0.340844 68.2634 0.333531C68.2487 0.317586 68.234 0.301742 68.2183 0.286711C68.2078 0.276656 68.1969 0.267109 68.186 0.257562C68.1704 0.243852 68.1546 0.230445 68.1382 0.217648C68.127 0.208914 68.1156 0.200484 68.104 0.192156C68.0865 0.179664 68.0686 0.167781 68.0503 0.156305C68.0392 0.149398 68.0281 0.142492 68.0168 0.135992C67.9966 0.124516 67.9759 0.113852 67.9549 0.103695C67.9445 0.0987188 67.9344 0.0934375 67.9239 0.0887656C67.9007 0.0785078 67.8771 0.0694688 67.8531 0.0609375C67.8438 0.0575859 67.8348 0.0539297 67.8256 0.0508828C67.7999 0.0425547 67.7735 0.0356484 67.747 0.02925C67.7388 0.0272187 67.7306 0.0246797 67.7224 0.0229531C67.6945 0.0169609 67.6661 0.0126953 67.6374 0.00914063C67.6301 0.00822656 67.6228 0.00660156 67.6155 0.00578906C67.5796 0.00213281 67.5433 0 67.5065 0H37.592C35.06 0 33 2.05329 33 4.57722V11.3118C33 11.8767 33.4597 12.3347 34.0268 12.3347C34.5938 12.3347 35.0535 11.8767 35.0535 11.3118V4.57722C35.0535 3.18124 36.1923 2.04567 37.592 2.04567H66.4797V8.6382C66.4797 9.8735 67.4899 10.8785 68.7315 10.8785H74.1244V33.7102L71.8688 31.4638C71.8632 31.4579 71.8583 31.4516 71.8526 31.4459C71.8468 31.4401 71.8405 31.4352 71.8345 31.4296L66.9929 26.6076C67.9835 24.7236 68.5449 22.5818 68.5449 20.3116C68.5449 12.8062 62.4152 6.70018 54.8808 6.70018C47.3448 6.70018 41.214 12.8062 41.214 20.3116C41.214 23.894 42.6109 27.157 44.8897 29.5903C44.9366 29.6528 44.9909 29.71 45.052 29.761C47.539 32.3271 51.0258 33.9259 54.8809 33.9259C57.159 33.9259 59.3081 33.3668 61.1987 32.3804L66.0386 37.2025C66.0444 37.2086 66.0494 37.2151 66.0554 37.221C66.0613 37.2269 66.0678 37.2319 66.0739 37.2377L74.1245 45.259V47.4229C74.1245 48.8189 72.9857 49.9544 71.586 49.9544H37.592C36.1923 49.9544 35.0535 48.8188 35.0535 47.4229V20.4296C35.0535 19.8647 34.5938 19.4068 34.0268 19.4068C33.4597 19.4068 33 19.8647 33 20.4296V47.4228C33 49.9467 35.06 52 37.592 52H71.586C74.118 52 76.178 49.9467 76.178 47.4228V46.9989C76.7407 47.2861 77.3116 47.4137 77.8631 47.4137C78.9552 47.4136 79.9716 46.918 80.6984 46.1936C82.1425 44.7544 82.6659 42.2175 80.7917 40.3505ZM68.5334 8.6382V3.77559L72.9103 8.83279H68.7316C68.6241 8.83279 68.5334 8.74362 68.5334 8.6382ZM54.8808 8.74575C61.2828 8.74575 66.4912 13.9342 66.4912 20.3115C66.4912 22.4248 65.9191 24.4074 64.9218 26.1142C64.8492 26.1997 64.7928 26.294 64.7529 26.3936C64.5508 26.7179 64.3331 27.0318 64.1008 27.3338C62.88 25.0848 60.8902 23.3686 58.5351 22.4671C59.9264 21.353 60.8192 19.6452 60.8192 17.7327C60.8192 14.3821 58.084 11.656 54.7219 11.656C51.3583 11.656 48.6218 14.382 48.6218 17.7327C48.6218 19.6432 49.5131 21.3496 50.9026 22.4638C50.0936 22.7732 49.3205 23.1809 48.5989 23.6858C47.3078 24.5893 46.2485 25.7487 45.4757 27.0897C44.0874 25.1834 43.2674 22.8412 43.2674 20.3114C43.2674 13.9342 48.4772 8.74575 54.8808 8.74575ZM50.6752 17.7328C50.6752 15.5101 52.4905 13.7018 54.7218 13.7018C56.9516 13.7018 58.7656 15.5101 58.7656 17.7328C58.7656 19.954 56.9517 21.761 54.7218 21.761C52.4905 21.761 50.6752 19.9539 50.6752 17.7328ZM46.9287 28.7344C48.3348 25.7618 51.3875 23.8066 54.7218 23.8066C58.1533 23.8066 61.2424 25.8444 62.6051 28.9404C62.1024 29.3877 61.5604 29.7921 60.9852 30.1479C60.884 30.1879 60.7881 30.2449 60.7014 30.3181C58.989 31.3108 57.0004 31.8802 54.8807 31.8802C51.8067 31.8802 49.0082 30.6838 46.9287 28.7344ZM64.4433 30.0261C64.5139 29.972 64.5763 29.9095 64.6296 29.8406C65.0775 29.3858 65.4937 28.9001 65.8746 28.3867L69.6734 32.1701L66.7822 35.0503L62.9843 31.2662C63.4995 30.8868 63.987 30.4722 64.4433 30.0261ZM79.246 44.7473C78.5864 45.4047 77.5045 45.732 76.4464 44.6792L68.2341 36.4968L71.1256 33.6164L74.4061 36.8836C74.4191 36.8971 74.4322 36.9104 74.4459 36.9232L79.3396 41.7971C80.3915 42.845 79.86 44.1355 79.246 44.7473Z" fill="black"/>
</svg>
